<svg id="Layer_1" data-name="Layer 1" xmlns="http://www.w3.org/2000/svg" xmlns:xlink="http://www.w3.org/1999/xlink" width="1920" height="1080" viewBox="0 0 1920 1080"><defs><style>.cls-1{fill:url(#linear-gradient);}.cls-2{fill:url(#linear-gradient-2);}.cls-3{fill:url(#linear-gradient-3);}.cls-4{fill:url(#linear-gradient-4);}.cls-5{fill:url(#linear-gradient-5);}.cls-6{fill:url(#linear-gradient-6);}.cls-7{fill:url(#linear-gradient-7);}.cls-8{fill:url(#linear-gradient-8);}.cls-9{fill:url(#linear-gradient-9);}.cls-10{fill:url(#linear-gradient-10);}.cls-11{fill:url(#linear-gradient-11);}.cls-12{fill:url(#linear-gradient-12);}.cls-13{fill:url(#linear-gradient-13);}.cls-14{fill:url(#linear-gradient-14);}.cls-15{fill:url(#linear-gradient-15);}.cls-16{fill:url(#linear-gradient-16);}.cls-17{fill:url(#linear-gradient-17);}.cls-18{fill:url(#linear-gradient-18);}.cls-19{fill:url(#linear-gradient-19);}.cls-20{fill:url(#linear-gradient-20);}.cls-21{fill:url(#linear-gradient-21);}.cls-22{fill:url(#linear-gradient-22);}.cls-23{fill:url(#linear-gradient-23);}.cls-24{fill:url(#linear-gradient-24);}.cls-25{fill:url(#linear-gradient-25);}.cls-26{fill:url(#linear-gradient-26);}.cls-27{fill:url(#linear-gradient-27);}.cls-28{fill:url(#linear-gradient-28);}.cls-29{fill:url(#linear-gradient-29);}.cls-30{fill:url(#linear-gradient-30);}.cls-31{fill:url(#linear-gradient-31);}.cls-32{fill:url(#linear-gradient-32);}.cls-33{fill:url(#linear-gradient-33);}.cls-34{fill:url(#linear-gradient-34);}.cls-35{fill:url(#linear-gradient-35);}.cls-36{fill:url(#linear-gradient-36);}.cls-37{fill:#898989;}.cls-38{fill:#e2e2e2;}.cls-39{fill:#d1d1d1;}.cls-40,.cls-45{fill:#020202;}.cls-40{opacity:0.4;}.cls-41{fill:#936231;}.cls-42{fill:url(#linear-gradient-37);}.cls-43{fill:url(#linear-gradient-38);}.cls-44{fill:#fcfcfc;opacity:0.1;}.cls-45{opacity:0.62;}.cls-46{fill:#96caed;}.cls-47{fill:#fff;}.cls-48{fill:#543a21;}.cls-49{fill:url(#linear-gradient-39);}.cls-50{fill:#38682b;opacity:0.8;}.cls-51{fill:url(#linear-gradient-40);}</style><linearGradient id="linear-gradient" x1="-2" y1="787.5" x2="105" y2="787.5" gradientUnits="userSpaceOnUse"><stop offset="0.79" stop-color="#a87f56"/><stop offset="1"/></linearGradient><linearGradient id="linear-gradient-2" x1="-3" x2="106" xlink:href="#linear-gradient"/><linearGradient id="linear-gradient-3" x1="105" x2="212" xlink:href="#linear-gradient"/><linearGradient id="linear-gradient-4" x1="104" x2="213" xlink:href="#linear-gradient"/><linearGradient id="linear-gradient-5" x1="212" x2="319" xlink:href="#linear-gradient"/><linearGradient id="linear-gradient-6" x1="211" x2="320" xlink:href="#linear-gradient"/><linearGradient id="linear-gradient-7" x1="319" x2="426" xlink:href="#linear-gradient"/><linearGradient id="linear-gradient-8" x1="318" x2="427" xlink:href="#linear-gradient"/><linearGradient id="linear-gradient-9" x1="426" x2="533" xlink:href="#linear-gradient"/><linearGradient id="linear-gradient-10" x1="425" x2="534" xlink:href="#linear-gradient"/><linearGradient id="linear-gradient-11" x1="532" x2="639" xlink:href="#linear-gradient"/><linearGradient id="linear-gradient-12" x1="531" x2="640" xlink:href="#linear-gradient"/><linearGradient id="linear-gradient-13" x1="639" x2="746" xlink:href="#linear-gradient"/><linearGradient id="linear-gradient-14" x1="638" x2="747" xlink:href="#linear-gradient"/><linearGradient id="linear-gradient-15" x1="747" x2="854" xlink:href="#linear-gradient"/><linearGradient id="linear-gradient-16" x1="746" x2="855" xlink:href="#linear-gradient"/><linearGradient id="linear-gradient-17" x1="856" x2="963" xlink:href="#linear-gradient"/><linearGradient id="linear-gradient-18" x1="855" x2="964" xlink:href="#linear-gradient"/><linearGradient id="linear-gradient-19" x1="965" x2="1072" xlink:href="#linear-gradient"/><linearGradient id="linear-gradient-20" x1="964" x2="1073" xlink:href="#linear-gradient"/><linearGradient id="linear-gradient-21" x1="1073" x2="1180" xlink:href="#linear-gradient"/><linearGradient id="linear-gradient-22" x1="1072" x2="1181" xlink:href="#linear-gradient"/><linearGradient id="linear-gradient-23" x1="1182" x2="1289" xlink:href="#linear-gradient"/><linearGradient id="linear-gradient-24" x1="1181" x2="1290" xlink:href="#linear-gradient"/><linearGradient id="linear-gradient-25" x1="1291" x2="1398" xlink:href="#linear-gradient"/><linearGradient id="linear-gradient-26" x1="1290" x2="1399" xlink:href="#linear-gradient"/><linearGradient id="linear-gradient-27" x1="1400" x2="1507" xlink:href="#linear-gradient"/><linearGradient id="linear-gradient-28" x1="1399" x2="1508" xlink:href="#linear-gradient"/><linearGradient id="linear-gradient-29" x1="1509" x2="1616" xlink:href="#linear-gradient"/><linearGradient id="linear-gradient-30" x1="1508" x2="1617" xlink:href="#linear-gradient"/><linearGradient id="linear-gradient-31" x1="1618" x2="1725" xlink:href="#linear-gradient"/><linearGradient id="linear-gradient-32" x1="1617" x2="1726" xlink:href="#linear-gradient"/><linearGradient id="linear-gradient-33" x1="1727" x2="1834" xlink:href="#linear-gradient"/><linearGradient id="linear-gradient-34" x1="1726" x2="1835" xlink:href="#linear-gradient"/><linearGradient id="linear-gradient-35" x1="1836" x2="1943" xlink:href="#linear-gradient"/><linearGradient id="linear-gradient-36" x1="1835" x2="1944" xlink:href="#linear-gradient"/><linearGradient id="linear-gradient-37" x1="114.78" y1="156.29" x2="924.09" y2="161.57" gradientUnits="userSpaceOnUse"><stop offset="0" stop-color="#fff"/><stop offset="1" stop-color="#29abe2"/></linearGradient><linearGradient id="linear-gradient-38" x1="114.8" y1="153.8" x2="924.11" y2="159.07" xlink:href="#linear-gradient-37"/><linearGradient id="linear-gradient-39" x1="1267.98" y1="192" x2="1255.59" y2="86.98" gradientUnits="userSpaceOnUse"><stop offset="0"/><stop offset="1" stop-color="#29abe2"/></linearGradient><linearGradient id="linear-gradient-40" x1="1192" y1="47" x2="1239" y2="47" gradientUnits="userSpaceOnUse"><stop offset="0.78" stop-color="#fff"/><stop offset="1"/></linearGradient></defs><title>baggrund</title><rect class="cls-1" x="-2" y="495" width="107" height="585"/><path class="cls-2" d="M106,1081H-3V494H106Zm-107-2H104V496H-1Z"/><rect class="cls-3" x="105" y="495" width="107" height="585"/><path class="cls-4" d="M213,1081H104V494H213Zm-107-2H211V496H106Z"/><rect class="cls-5" x="212" y="495" width="107" height="585"/><path class="cls-6" d="M320,1081H211V494H320Zm-107-2H318V496H213Z"/><rect class="cls-7" x="319" y="495" width="107" height="585"/><path class="cls-8" d="M427,1081H318V494H427Zm-107-2H425V496H320Z"/><rect class="cls-9" x="426" y="495" width="107" height="585"/><path class="cls-10" d="M534,1081H425V494H534Zm-107-2H532V496H427Z"/><rect class="cls-11" x="532" y="495" width="107" height="585"/><path class="cls-12" d="M640,1081H531V494H640Zm-107-2H638V496H533Z"/><rect class="cls-13" x="639" y="495" width="107" height="585"/><path class="cls-14" d="M747,1081H638V494H747Zm-107-2H745V496H640Z"/><rect class="cls-15" x="747" y="495" width="107" height="585"/><path class="cls-16" d="M855,1081H746V494H855Zm-107-2H853V496H748Z"/><rect class="cls-17" x="856" y="495" width="107" height="585"/><path class="cls-18" d="M964,1081H855V494H964Zm-107-2H962V496H857Z"/><rect class="cls-19" x="965" y="495" width="107" height="585"/><path class="cls-20" d="M1073,1081H964V494h109Zm-107-2h105V496H966Z"/><rect class="cls-21" x="1073" y="495" width="107" height="585"/><path class="cls-22" d="M1181,1081H1072V494h109Zm-107-2h105V496H1074Z"/><rect class="cls-23" x="1182" y="495" width="107" height="585"/><path class="cls-24" d="M1290,1081H1181V494h109Zm-107-2h105V496H1183Z"/><rect class="cls-25" x="1291" y="495" width="107" height="585"/><path class="cls-26" d="M1399,1081H1290V494h109Zm-107-2h105V496H1292Z"/><rect class="cls-27" x="1400" y="495" width="107" height="585"/><path class="cls-28" d="M1508,1081H1399V494h109Zm-107-2h105V496H1401Z"/><rect class="cls-29" x="1509" y="495" width="107" height="585"/><path class="cls-30" d="M1617,1081H1508V494h109Zm-107-2h105V496H1510Z"/><rect class="cls-31" x="1618" y="495" width="107" height="585"/><path class="cls-32" d="M1726,1081H1617V494h109Zm-107-2h105V496H1619Z"/><rect class="cls-33" x="1727" y="495" width="107" height="585"/><path class="cls-34" d="M1835,1081H1726V494h109Zm-107-2h105V496H1728Z"/><rect class="cls-35" x="1836" y="495" width="107" height="585"/><path class="cls-36" d="M1944,1081H1835V494h109Zm-107-2h105V496H1837Z"/><rect class="cls-37" x="-1.5" y="-0.5" width="1920" height="431"/><rect class="cls-38" x="-2" y="431" width="1921" height="49"/><rect class="cls-39" x="-2" y="480" width="1920" height="15"/><polygon class="cls-40" points="1694 1080 314 1080 373.72 433 1634.28 433 1694 1080"/><rect class="cls-41" x="159" width="665" height="252"/><rect class="cls-42" x="159" y="63" width="282" height="189"/><rect class="cls-43" x="542" y="63" width="282" height="189"/><polygon class="cls-44" points="1004.22 515.25 339.22 515.25 159 252 824 252 1004.22 515.25"/><rect class="cls-45" x="1044" width="463" height="269"/><rect class="cls-41" x="1032" width="463" height="252"/><rect class="cls-46" x="1101" width="325" height="198"/><line class="cls-47" x1="1101" y1="198" x2="1032" y2="252"/><rect x="1022.69" y="223" width="87.62" height="4" transform="translate(87.89 704.97) rotate(-38.04)"/><line class="cls-47" x1="1426" y1="198" x2="1495" y2="252"/><rect x="1458.5" y="181.19" width="4" height="87.62" transform="translate(383.19 1236.48) rotate(-51.95)"/><path class="cls-48" d="M1404.68,94c0,29.82-61.26,54-136.84,54S1131,123.82,1131,94"/><polygon class="cls-49" points="1426 198 1101 198 1101 110 1165 134 1250.56 110 1354 133 1426 110 1426 198"/><rect class="cls-50" x="1633" width="286" height="1081"/><path class="cls-51" d="M1239,94a47,47,0,0,1,0-94"/></svg>
