<svg id="Layer_1" data-name="Layer 1" xmlns="http://www.w3.org/2000/svg" xmlns:xlink="http://www.w3.org/1999/xlink" width="1920" height="1080" viewBox="0 0 1920 1080"><defs><style>.cls-1{fill:url(#linear-gradient);}.cls-2{fill:url(#linear-gradient-2);}.cls-3{fill:url(#linear-gradient-3);}.cls-4{fill:url(#linear-gradient-4);}.cls-5{fill:url(#linear-gradient-5);}.cls-6{fill:url(#linear-gradient-6);}.cls-7{fill:url(#linear-gradient-7);}.cls-8{fill:url(#linear-gradient-8);}.cls-9{fill:url(#linear-gradient-9);}.cls-10{fill:url(#linear-gradient-10);}.cls-11{fill:url(#linear-gradient-11);}.cls-12{fill:url(#linear-gradient-12);}.cls-13{fill:url(#linear-gradient-13);}.cls-14{fill:url(#linear-gradient-14);}.cls-15{fill:url(#linear-gradient-15);}.cls-16{fill:url(#linear-gradient-16);}.cls-17{fill:url(#linear-gradient-17);}.cls-18{fill:url(#linear-gradient-18);}.cls-19{fill:url(#linear-gradient-19);}.cls-20{fill:url(#linear-gradient-20);}.cls-21{fill:url(#linear-gradient-21);}.cls-22{fill:url(#linear-gradient-22);}.cls-23{fill:url(#linear-gradient-23);}.cls-24{fill:url(#linear-gradient-24);}.cls-25{fill:url(#linear-gradient-25);}.cls-26{fill:url(#linear-gradient-26);}.cls-27{fill:url(#linear-gradient-27);}.cls-28{fill:url(#linear-gradient-28);}.cls-29{fill:url(#linear-gradient-29);}.cls-30{fill:url(#linear-gradient-30);}.cls-31{fill:url(#linear-gradient-31);}.cls-32{fill:url(#linear-gradient-32);}.cls-33{fill:url(#linear-gradient-33);}.cls-34{fill:url(#linear-gradient-34);}.cls-35{fill:url(#linear-gradient-35);}.cls-36{fill:url(#linear-gradient-36);}.cls-37{fill:#898989;}.cls-38{fill:#e2e2e2;}.cls-39{fill:#d1d1d1;}.cls-40,.cls-45{fill:#020202;}.cls-40{opacity:0.4;}.cls-41{fill:#936231;}.cls-42{fill:url(#linear-gradient-37);}.cls-43{fill:url(#linear-gradient-38);}.cls-44{fill:#fcfcfc;opacity:0.1;}.cls-45{opacity:0.62;}.cls-46{fill:#96caed;}.cls-47{fill:#fff;}.cls-48{fill:#543a21;}.cls-49{fill:url(#linear-gradient-39);}.cls-50{fill:url(#linear-gradient-40);}.cls-51{fill:url(#linear-gradient-41);}.cls-52{fill:url(#linear-gradient-42);}.cls-53{fill:url(#linear-gradient-43);}.cls-54{fill:#ddbc9b;}.cls-55{fill:#38682b;opacity:0.8;}.cls-56{fill:url(#linear-gradient-44);}</style><linearGradient id="linear-gradient" y1="787.5" x2="107" y2="787.5" gradientUnits="userSpaceOnUse"><stop offset="0.79" stop-color="#a87f56"/><stop offset="1"/></linearGradient><linearGradient id="linear-gradient-2" x1="-1" x2="108" xlink:href="#linear-gradient"/><linearGradient id="linear-gradient-3" x1="107" x2="214" xlink:href="#linear-gradient"/><linearGradient id="linear-gradient-4" x1="106" x2="215" xlink:href="#linear-gradient"/><linearGradient id="linear-gradient-5" x1="214" x2="321" xlink:href="#linear-gradient"/><linearGradient id="linear-gradient-6" x1="213" x2="322" xlink:href="#linear-gradient"/><linearGradient id="linear-gradient-7" x1="321" x2="428" xlink:href="#linear-gradient"/><linearGradient id="linear-gradient-8" x1="320" x2="429" xlink:href="#linear-gradient"/><linearGradient id="linear-gradient-9" x1="428" x2="535" xlink:href="#linear-gradient"/><linearGradient id="linear-gradient-10" x1="427" x2="536" xlink:href="#linear-gradient"/><linearGradient id="linear-gradient-11" x1="534" x2="641" xlink:href="#linear-gradient"/><linearGradient id="linear-gradient-12" x1="533" x2="642" xlink:href="#linear-gradient"/><linearGradient id="linear-gradient-13" x1="641" x2="748" xlink:href="#linear-gradient"/><linearGradient id="linear-gradient-14" x1="640" x2="749" xlink:href="#linear-gradient"/><linearGradient id="linear-gradient-15" x1="749" x2="856" xlink:href="#linear-gradient"/><linearGradient id="linear-gradient-16" x1="748" x2="857" xlink:href="#linear-gradient"/><linearGradient id="linear-gradient-17" x1="858" x2="965" xlink:href="#linear-gradient"/><linearGradient id="linear-gradient-18" x1="857" x2="966" xlink:href="#linear-gradient"/><linearGradient id="linear-gradient-19" x1="967" x2="1074" xlink:href="#linear-gradient"/><linearGradient id="linear-gradient-20" x1="966" x2="1075" xlink:href="#linear-gradient"/><linearGradient id="linear-gradient-21" x1="1075" x2="1182" xlink:href="#linear-gradient"/><linearGradient id="linear-gradient-22" x1="1074" x2="1183" xlink:href="#linear-gradient"/><linearGradient id="linear-gradient-23" x1="1184" x2="1291" xlink:href="#linear-gradient"/><linearGradient id="linear-gradient-24" x1="1183" x2="1292" xlink:href="#linear-gradient"/><linearGradient id="linear-gradient-25" x1="1293" x2="1400" xlink:href="#linear-gradient"/><linearGradient id="linear-gradient-26" x1="1292" x2="1401" xlink:href="#linear-gradient"/><linearGradient id="linear-gradient-27" x1="1402" x2="1509" xlink:href="#linear-gradient"/><linearGradient id="linear-gradient-28" x1="1401" x2="1510" xlink:href="#linear-gradient"/><linearGradient id="linear-gradient-29" x1="1511" x2="1618" xlink:href="#linear-gradient"/><linearGradient id="linear-gradient-30" x1="1510" x2="1619" xlink:href="#linear-gradient"/><linearGradient id="linear-gradient-31" x1="1620" x2="1727" xlink:href="#linear-gradient"/><linearGradient id="linear-gradient-32" x1="1619" x2="1728" xlink:href="#linear-gradient"/><linearGradient id="linear-gradient-33" x1="1729" x2="1836" xlink:href="#linear-gradient"/><linearGradient id="linear-gradient-34" x1="1728" x2="1837" xlink:href="#linear-gradient"/><linearGradient id="linear-gradient-35" x1="1838" x2="1945" xlink:href="#linear-gradient"/><linearGradient id="linear-gradient-36" x1="1837" x2="1946" xlink:href="#linear-gradient"/><linearGradient id="linear-gradient-37" x1="116.78" y1="156.29" x2="926.09" y2="161.57" gradientUnits="userSpaceOnUse"><stop offset="0" stop-color="#fff"/><stop offset="1" stop-color="#29abe2"/></linearGradient><linearGradient id="linear-gradient-38" x1="116.8" y1="153.8" x2="926.11" y2="159.07" xlink:href="#linear-gradient-37"/><linearGradient id="linear-gradient-39" x1="1269.98" y1="192" x2="1257.59" y2="86.98" gradientUnits="userSpaceOnUse"><stop offset="0"/><stop offset="1" stop-color="#29abe2"/></linearGradient><linearGradient id="linear-gradient-40" x1="366.66" y1="919.95" x2="370.49" y2="1141.67" gradientUnits="userSpaceOnUse"><stop offset="0"/><stop offset="0.63" stop-color="#513820"/><stop offset="1" stop-color="#543a21"/></linearGradient><linearGradient id="linear-gradient-41" x1="1453.34" y1="901.21" x2="1457.16" y2="1122.93" xlink:href="#linear-gradient-40"/><linearGradient id="linear-gradient-42" x1="879.67" y1="1124.93" x2="1015.38" y2="318.33" gradientUnits="userSpaceOnUse"><stop offset="0" stop-color="#a87f56"/><stop offset="0.7" stop-color="#543a21"/></linearGradient><linearGradient id="linear-gradient-43" x1="242.91" y1="968.5" x2="1623.09" y2="977.5" gradientUnits="userSpaceOnUse"><stop offset="0" stop-color="#8c6239"/><stop offset="0.7" stop-color="#543a21"/></linearGradient><linearGradient id="linear-gradient-44" x1="1194" y1="47" x2="1241" y2="47" gradientUnits="userSpaceOnUse"><stop offset="0.78" stop-color="#fff"/><stop offset="1"/></linearGradient></defs><title>Artboard 1</title><rect class="cls-1" y="495" width="107" height="585"/><path class="cls-2" d="M108,1081H-1V494H108ZM1,1079H106V496H1Z"/><rect class="cls-3" x="107" y="495" width="107" height="585"/><path class="cls-4" d="M215,1081H106V494H215Zm-107-2H213V496H108Z"/><rect class="cls-5" x="214" y="495" width="107" height="585"/><path class="cls-6" d="M322,1081H213V494H322Zm-107-2H320V496H215Z"/><rect class="cls-7" x="321" y="495" width="107" height="585"/><path class="cls-8" d="M429,1081H320V494H429Zm-107-2H427V496H322Z"/><rect class="cls-9" x="428" y="495" width="107" height="585"/><path class="cls-10" d="M536,1081H427V494H536Zm-107-2H534V496H429Z"/><rect class="cls-11" x="534" y="495" width="107" height="585"/><path class="cls-12" d="M642,1081H533V494H642Zm-107-2H640V496H535Z"/><rect class="cls-13" x="641" y="495" width="107" height="585"/><path class="cls-14" d="M749,1081H640V494H749Zm-107-2H747V496H642Z"/><rect class="cls-15" x="749" y="495" width="107" height="585"/><path class="cls-16" d="M857,1081H748V494H857Zm-107-2H855V496H750Z"/><rect class="cls-17" x="858" y="495" width="107" height="585"/><path class="cls-18" d="M966,1081H857V494H966Zm-107-2H964V496H859Z"/><rect class="cls-19" x="967" y="495" width="107" height="585"/><path class="cls-20" d="M1075,1081H966V494h109Zm-107-2h105V496H968Z"/><rect class="cls-21" x="1075" y="495" width="107" height="585"/><path class="cls-22" d="M1183,1081H1074V494h109Zm-107-2h105V496H1076Z"/><rect class="cls-23" x="1184" y="495" width="107" height="585"/><path class="cls-24" d="M1292,1081H1183V494h109Zm-107-2h105V496H1185Z"/><rect class="cls-25" x="1293" y="495" width="107" height="585"/><path class="cls-26" d="M1401,1081H1292V494h109Zm-107-2h105V496H1294Z"/><rect class="cls-27" x="1402" y="495" width="107" height="585"/><path class="cls-28" d="M1510,1081H1401V494h109Zm-107-2h105V496H1403Z"/><rect class="cls-29" x="1511" y="495" width="107" height="585"/><path class="cls-30" d="M1619,1081H1510V494h109Zm-107-2h105V496H1512Z"/><rect class="cls-31" x="1620" y="495" width="107" height="585"/><path class="cls-32" d="M1728,1081H1619V494h109Zm-107-2h105V496H1621Z"/><rect class="cls-33" x="1729" y="495" width="107" height="585"/><path class="cls-34" d="M1837,1081H1728V494h109Zm-107-2h105V496H1730Z"/><rect class="cls-35" x="1838" y="495" width="107" height="585"/><path class="cls-36" d="M1946,1081H1837V494h109Zm-107-2h105V496H1839Z"/><rect class="cls-37" x="0.5" y="-0.5" width="1920" height="431"/><rect class="cls-38" y="431" width="1921" height="49"/><rect class="cls-39" y="480" width="1920" height="15"/><polygon class="cls-40" points="1696 1080 316 1080 375.72 433 1636.28 433 1696 1080"/><rect class="cls-41" x="161" width="665" height="252"/><rect class="cls-42" x="161" y="63" width="282" height="189"/><rect class="cls-43" x="544" y="63" width="282" height="189"/><polygon class="cls-44" points="1006.22 515.25 341.22 515.25 161 252 826 252 1006.22 515.25"/><rect class="cls-45" x="1046" width="463" height="269"/><rect class="cls-41" x="1034" width="463" height="252"/><rect class="cls-46" x="1103" width="325" height="198"/><line class="cls-47" x1="1103" y1="198" x2="1034" y2="252"/><rect x="1024.69" y="223" width="87.62" height="4" transform="translate(88.32 706.21) rotate(-38.04)"/><line class="cls-47" x1="1428" y1="198" x2="1497" y2="252"/><rect x="1460.5" y="181.19" width="4" height="87.62" transform="translate(383.96 1238.06) rotate(-51.95)"/><path class="cls-48" d="M1406.68,94c0,29.82-61.26,54-136.84,54S1133,123.82,1133,94"/><polygon class="cls-49" points="1428 198 1103 198 1103 110 1167 134 1252.56 110 1356 133 1428 110 1428 198"/><rect class="cls-50" x="349" y="973" width="39" height="107"/><rect class="cls-51" x="1436" y="973" width="39" height="107"/><polygon class="cls-52" points="1623 954 243 954 302.72 307 1563.28 307 1623 954"/><rect class="cls-53" x="243" y="954" width="1380" height="38"/><circle class="cls-54" cx="368.5" cy="829.5" r="69.5"/><circle class="cls-54" cx="1228.5" cy="811.5" r="69.5"/><circle class="cls-54" cx="947.5" cy="750.5" r="69.5"/><circle class="cls-54" cx="804.5" cy="515.5" r="69.5"/><circle class="cls-54" cx="1391.5" cy="515.5" r="69.5"/><circle class="cls-54" cx="1095.5" cy="495.5" r="69.5"/><circle class="cls-54" cx="1471.5" cy="811.5" r="69.5"/><circle class="cls-54" cx="531.5" cy="517.5" r="69.5"/><circle class="cls-54" cx="677.5" cy="830.5" r="69.5"/><rect class="cls-55" x="1635" width="286" height="1081"/><path class="cls-56" d="M1241,94a47,47,0,0,1,0-94"/></svg>
