<svg id="Layer_1" data-name="Layer 1" xmlns="http://www.w3.org/2000/svg" width="1230" height="680" viewBox="0 0 1230 680"><defs><style>.cls-1{fill:#38682b;opacity:0.8;}.cls-2{fill:#f9f906;}.cls-3{fill:#d6af85;}.cls-4{fill:#f9f9f9;}.cls-5{fill:#c19613;}.cls-6{fill:#8c061d;}.cls-7{fill:#be765f;}.cls-8{fill:#141611;}.cls-9{fill:none;stroke:#fcee21;stroke-linecap:round;stroke-miterlimit:10;stroke-width:15px;}.cls-10{fill:#fcfcfc;}.cls-11{fill:#132459;}.cls-12{fill:#0f0e0e;}.cls-13{fill:#020202;opacity:0.1;}</style></defs><title>duhartabt</title><rect class="cls-1" x="4.5" y="1" width="1221" height="678" rx="12"/><path class="cls-2" d="M123.11,281.21l-4-4q9.36-9.37,19-18.32l5.24,5.64L142,265.84Q132.48,273.33,123.11,281.21ZM196.75,322l5.24,5.64q-8.37,7.78-16.52,15.93l-4-4q6.9-8.39,14-16.49Zm-34.86-25.84c-9.94-10.44-20-21-30.32-31.06q6.54-6.23,13.2-12.27c9.08,10.85,18.87,21.62,28.75,32.52l3.57,3.94c10.82,11.92,20.61,22.69,30.66,33.05Q202,327.6,196.28,333c-9.4-10.58-19.43-21.14-30.72-33Zm35.71,26.76q7.8-7.24,15.76-14.18c19.28-16.69,21.51-36.62,6.16-57.07-15.87-21.08-37.11-23.09-58-5.12q-9.63,8.34-19,17.09l-4.38-4.72q10.65-9.92,21.61-19.31c27.12-23.21,56.7-23.58,74.23,1.29s7.83,51.66-15.66,72.06q-8.26,7.17-16.33,14.68C200.53,326.07,199.06,324.5,197.6,322.93Z"/><path class="cls-2" d="M219.79,200.15l-3.2-4.6q21-14.66,42.78-27.64l2.87,4.81q-9.5,6.89-18.77,14.09l-3,2Q230.07,194.26,219.79,200.15ZM312,236.91c15.78-9,19.8-21.15,8.34-43.5l-23.91-46.12q4-2.07,8-4.09,12.48,24.84,25,49.68c13,26.4,3.74,43.08-14.42,53.62-19.5,11.33-38.53,10.68-53.13-10.94L253.44,223c-8-12-16-24.14-24.48-35.85q7.28-4.86,14.65-9.52c7.09,12.25,14.88,24.56,22.73,37q3,4.66,5.92,9.35C285.23,244.25,298,245,312,236.91ZM301,153.55q-9.17,3.55-18.29,7.39l-2.7-4.9Q299,145.57,318.4,136.35q1.2,2.52,2.41,5.06-8.38,5.15-16.61,10.52Z"/><path class="cls-2" d="M371.88,119.53l-2-5.23q23.25-8.91,47-16.13c.55,1.79,1.1,3.57,1.64,5.36q-10.61,4.34-21.06,9l-3.32,1.14Q383,116.42,371.88,119.53Zm50.86,67.21q9.94-2.28,19.91-4.21l1.63,5.35q-20.59,6.28-40.82,14l-2-5.23q9.1-4.6,18.34-8.91Zm-22.45-37.4c-4.85-13.58-9.73-27.31-15.09-40.71q8-2.86,16.11-5.53c3.94,13.59,8.54,27.41,13.16,41.37.44,1.33.88,2.66,1.33,4,5.42,16.34,10,30.16,15,43.71q-7,2.33-14,4.81c-4.33-13.48-9.21-27.2-14.15-41C401.86,153.73,401.07,151.54,400.29,149.34Zm8.9,2.82q-1.05-3-2.09-6.09a672.57,672.57,0,0,1,67.12-19.22c.48,2.09,1,4.18,1.45,6.27A669.33,669.33,0,0,0,409.19,152.16Zm32.89-55.39c-.49-1.8-1-3.61-1.46-5.41Q464.52,85,488.71,80.24l1.08,5.5Q478.86,88.95,468,92.5l-3.4.78Q453.35,94.84,442.08,96.77Zm43.5,72.15q10.07-1.23,20.12-2.12l1.08,5.5q-21,4.09-41.81,9.66c-.49-1.8-1-3.6-1.46-5.41q9.47-3.62,19-6.93Zm-18.43-39.54c-3.42-14-6.86-28.16-10.8-42q8.23-2,16.5-3.81c2.52,13.92,5.66,28.14,8.83,42.5.5,2.28,1,4.55,1.51,6.83,3.1,14.09,6.25,28.31,9.79,42.29q-7.19,1.57-14.33,3.32c-2.92-13.85-6.35-28-10.5-45C467.81,132.11,467.48,130.75,467.15,129.38Z"/><path class="cls-2" d="M513.28,165.37q7.41-2.43,14.89-4.66l3.05-.48q8.58-.24,17.12-.25c.23,1.85.47,3.7.7,5.55q-17.43,2.19-34.75,5.35Q513.8,168.12,513.28,165.37Zm35.83-95c3.5-.38,7-.73,10.49-1.06a970.14,970.14,0,0,1,43.88,91.79q-7.08.27-14.17.7Q571.47,120.88,549.57,81l4-.42q-13.23,43.53-22.21,87.4c-2.36.36-4.73.74-7.09,1.13A970,970,0,0,1,549.11,70.38Zm-12.57,59.37q21.66-3,43.43-4.51c1,2.08,2,4.16,3,6.24q-24.12,1.62-48.11,5C535.43,134.24,536,132,536.54,129.75ZM571,157.55q9.57-1.91,19.22-3.51l3.09-.18q9.61.55,19.18,1.38c0,1.86.09,3.73.13,5.6q-20.58.47-41.12,2.29C571.34,161.27,571.18,159.41,571,157.55Z"/><path class="cls-2" d="M618.43,72.52c0-1.86,0-3.73-.07-5.6q12.28-.15,24.56.12c-.06,2.57-.11,5.14-.17,7.7l-1.74,0Q629.76,73.44,618.43,72.52Zm24.13,80.64q10,1.29,19.94,2.9c-.1,1.87-.21,3.73-.31,5.59q-21.33-1.18-42.7-.93l-.06-5.6q10-1.17,20-2Zm-8-42.85c.16-14.42.33-29,0-43.4q8.41.09,16.84.37c-1,14.53-1.46,28.25-2,44.76-.05,1.4-.09,2.79-.14,4.19-.53,15.81-1,30.37-1,44.8q-7.32-.25-14.64-.33c.6-14.13.78-28.69.94-43.39C634.49,115,634.52,112.65,634.54,110.31Zm7.4.82q10.29.24,20.58.77c17.69,1,27-6.16,28.07-17.49,1.12-11.66-6.07-19-24.18-20q-11.8-.65-23.63-.91.06-3.21.14-6.44,12,.27,24,.93c26.93,1.55,41.58,12.74,39.67,28.09-1.44,11.87-13.65,21.07-35,21.14l.57-1.08c11.71,1.78,18.5,7.12,21.49,20.08q2.7,12,5.12,23.92c-1.48-1.06-3-2.11-4.46-3.16q7.83,1.68,15.59,3.55-.37,2.78-.74,5.55a40.66,40.66,0,0,1-11.08.05c-9.37-1.06-13.25-3.61-14.52-10.2q-2.14-11.65-4.5-23.28c-2.29-11.54-8.22-14-21.74-14.68q-7.75-.35-15.49-.52C641.85,115.33,641.9,113.23,641.94,111.13Z"/><path class="cls-2" d="M770.7,88.45q4.54-2.64,9.17-5.22-5.42,11.58-10.63,23.22-4.66-1-9.33-1.88,3.06-12.1,6.16-24.19a717.89,717.89,0,0,1,93.1,24.86q-3.36,12-6.76,24-4.53-1.55-9.09-3,1.29-12.69,2.38-25.43,2.73,4.55,5.38,9.11A709.44,709.44,0,0,0,770.7,88.45Zm21.47,86.36q10.23,3.84,20.31,8l-1.65,5.36q-22.07-6.78-44.49-11.88c.42-1.82.83-3.64,1.25-5.46q10.78,1.38,21.58,3.14Zm2.33-43.54c3.57-14,7.2-28.08,10.25-42.18q8.22,2.09,16.38,4.37c-4.33,13.47-8.24,27.5-12.21,41.66q-.93,3.36-1.88,6.74c-3.89,13.89-7.8,27.91-11.26,41.93q-7.1-2-14.23-3.81c3.94-13.58,7.56-27.69,11.21-41.93Z"/><path class="cls-2" d="M825.21,186.9q7.71,1.44,15.42,3.08l2.94,1.07q7.71,3.91,15.32,8-1,2.61-2.06,5.21-16.56-6.54-33.38-12.09C824,190.44,824.62,188.67,825.21,186.9ZM902.83,121q4.95,2.06,9.86,4.18A973.18,973.18,0,0,1,907.56,227q-6.48-3.25-13-6.35,3.83-44.61,3.56-90.16l3.73,1.56Q869,163.79,839.92,197.91q-3.42-1.23-6.84-2.42A946.07,946.07,0,0,1,902.83,121ZM863,166.9q20.65,7.88,40.87,17.17c-.1,2.32-.21,4.63-.32,7q-22.35-10.4-45.27-19ZM880.25,208q9.45,3,18.87,6.32l2.84,1.37q8.35,5.19,16.54,10.65l-2.6,5q-18.71-9.76-37.9-18.18Z"/><path class="cls-2" d="M963.8,156.84l2.65-4.94q11.1,6,22,12.33l-3.88,6.66-1.54-.9Q973.53,163.26,963.8,156.84Zm-18.64,81.82-3.87,6.66q-9.51-5.55-19.16-10.72l2.64-4.94q9.54,3.93,19,8.2ZM960,197.94c7.11-12.55,14.3-25.21,20.94-38q7.53,4.28,15,8.74c-7.72,11.86-15.18,24.37-22.73,37l-2.51,4.21c-8.47,14.18-15.94,26.69-22.93,39.31q-6.48-3.89-13-7.6c7.38-12.07,14.57-24.74,21.82-37.53Zm7.25,2.72q7.28,4.25,14.47,8.68c17.8,11.07,28.29,11.92,35.6,1.23s1.93-19.86-13.81-29.73q-9.09-5.67-18.29-11l3.24-5.57q11.55,6.74,22.91,14c21.1,13.45,27.36,30,19.49,40.82-6.41,8.93-19.54,11.05-39.69.61l.69-1.06c21.41,16.13,24.26,30.86,17.18,40.47-7.64,10.37-24.69,13.19-49.73-2.76q-9-5.64-18.05-10.94l3.24-5.57q7.54,4.4,15,9c17.52,10.94,29.63,11.29,36.71,1.13,7.42-10.61,2.75-22.24-17.42-34.82q-7.35-4.53-14.77-8.86Z"/><path class="cls-2" d="M1057.87,219.09q5.39-.3,10.81-.5-10,8-19.83,16.16-3.94-3-7.93-6,8-9.58,16-19.12a724.74,724.74,0,0,1,76.9,66.55q-8.25,9.36-16.55,18.69-3.61-3.62-7.27-7.17,6.59-11,13-22.06.64,5.44,1.21,10.9A718,718,0,0,0,1057.87,219.09Zm-16.56,88.49q8,8.32,15.69,17l-3.82,4.1q-17.9-16.72-36.76-31.79l3.49-4.38q9.52,6.27,18.92,13ZM1062,269.06c9.29-11,18.68-22.15,27.55-33.54q6.81,5.74,13.53,11.7c-9.79,10.22-19.42,21.14-29.16,32.15l-4.63,5.25c-9.55,10.8-19.18,21.72-28.38,32.85q-5.84-5.18-11.76-10.18c9.48-10.5,18.87-21.63,28.34-32.87Z"/><path d="M171.94,412.59v-30h13.34a6.71,6.71,0,0,1,6.66,6.66v16.68a6.73,6.73,0,0,1-6.66,6.66Zm6.65-3.34h3.35a3.22,3.22,0,0,0,2.37-1,3.18,3.18,0,0,0,1-2.33V389.25a3.17,3.17,0,0,0-1-2.34,3.25,3.25,0,0,0-2.35-1h-3.35Z"/><path d="M218.59,389.25v23.34h-6.65v-3.34q-.39,3.35-3.35,3.34h-3.34a6.71,6.71,0,0,1-6.66-6.66V389.25h6.66v16.68a3.35,3.35,0,0,0,6.69,0V389.25Z"/><path d="M235,412.59v-30h6.65v10a4.13,4.13,0,0,1,1-2.51,3.12,3.12,0,0,1,2.31-.83h3.34a6.42,6.42,0,0,1,4.7,2,6.49,6.49,0,0,1,2,4.71v16.66h-6.66V395.93a3.19,3.19,0,0,0-1-2.35,3.3,3.3,0,0,0-4.71,0,3.19,3.19,0,0,0-1,2.35v16.66Z"/><path d="M275,399.25v-3.32a3.16,3.16,0,0,0-1-2.35,3.21,3.21,0,0,0-2.35-1h-3.34c-2,0-3.07,1.12-3.31,3.34h-3.35q.76-6.68,6.66-6.68H275a6.71,6.71,0,0,1,6.65,6.68v16.66H275v-3.34q-.39,3.35-3.35,3.34h-3.34a6.69,6.69,0,0,1-6.66-6.66v0a6.71,6.71,0,0,1,6.66-6.65Zm0,3.34h-3.35a3.26,3.26,0,0,0-2.36,1,3.19,3.19,0,0,0-1,2.33v0a3.15,3.15,0,0,0,1,2.33,3.35,3.35,0,0,0,5.71-2.33Z"/><path d="M295,412.59h-6.66V389.25H295v6.68a8.19,8.19,0,0,1,2.06-5,6.21,6.21,0,0,1,4.62-1.67H305v6.68h-6.66a3.24,3.24,0,0,0-2.36,1,3.16,3.16,0,0,0-1,2.34Z"/><path d="M321.41,412.59v-30h6.67v30Z"/><path d="M338.09,412.59v-30h6.66v12.25l10.78-12.25h5.91l-13.35,15,13.35,15h-6.69l-10-11.66v11.66Z"/><path d="M368.09,412.59v-30h6.66v12.25l10.78-12.25h5.91l-13.35,15,13.35,15h-6.69l-10-11.66v11.66Z"/><path d="M398.09,412.59v-30h16.66v3.34h-10v10h6.69v3.32h-6.69v10h10v3.34Z"/><path d="M434.55,412.59v-20H431.2v-3.34h3.35V389a6.4,6.4,0,0,1,6.36-6.36h6.95v3.34h-3.62a3.06,3.06,0,0,0-3,3v.3h3.35v3.34H441.2v20Z"/><path d="M457.86,389.25h6.69a6.39,6.39,0,0,1,4.69,2,6.45,6.45,0,0,1,2,4.71v10a6.73,6.73,0,0,1-6.65,6.66h-6.69a6.71,6.71,0,0,1-6.66-6.66v-10a6.71,6.71,0,0,1,6.66-6.68Zm0,6.68v10a3.35,3.35,0,0,0,6.69,0v-10a3.19,3.19,0,0,0-1-2.35,3.34,3.34,0,0,0-5.7,2.35Z"/><path d="M484.52,412.59h-6.66V389.25h6.66v6.68a8.19,8.19,0,0,1,2.06-5,6.22,6.22,0,0,1,4.62-1.67h3.32v6.68h-6.66a3.24,3.24,0,0,0-2.36,1,3.16,3.16,0,0,0-1,2.34Z"/><path d="M517.86,412.59H511.2V395.93a3.34,3.34,0,0,0-6.68,0v16.66h-6.66V389.25h6.66v3.34a4.08,4.08,0,0,1,1-2.51,3.08,3.08,0,0,1,2.3-.83h3.34a5.61,5.61,0,0,1,5,2.36,4.87,4.87,0,0,1,2-1.78,6.92,6.92,0,0,1,3-.58h3.32a6.71,6.71,0,0,1,6.68,6.68v16.66h-6.68V395.93a3.24,3.24,0,0,0-1-2.35,3.16,3.16,0,0,0-2.33-1,3.36,3.36,0,0,0-3.34,3.34Z"/><path d="M551.2,399.25v-3.32a3.38,3.38,0,0,0-3.34-3.34h-3.34c-2,0-3.08,1.12-3.32,3.34h-3.34q.76-6.68,6.66-6.68h6.68a6.71,6.71,0,0,1,6.66,6.68v16.66H551.2v-3.34q-.39,3.35-3.34,3.34h-3.34a6.69,6.69,0,0,1-6.66-6.66v0a6.71,6.71,0,0,1,6.66-6.65Zm-10-20a6.73,6.73,0,1,1,2,4.7A6.41,6.41,0,0,1,541.2,379.25Zm3.32,0a3.34,3.34,0,1,0,6.68,0,3.17,3.17,0,0,0-1-2.34,3.32,3.32,0,0,0-4.71,0A3.16,3.16,0,0,0,544.52,379.25Zm6.68,23.34h-3.34a3.24,3.24,0,0,0-2.36,1,3.15,3.15,0,0,0-1,2.33v0a3.34,3.34,0,0,0,6.68,0Z"/><path d="M584.52,402.59H571.17v3.34a3.36,3.36,0,0,0,3.35,3.32h3.34q3.32,0,3.31-3.32h3.35q-.78,6.66-6.66,6.66h-6.69a6.69,6.69,0,0,1-6.65-6.66v-10a6.71,6.71,0,0,1,6.65-6.68h6.69a6.42,6.42,0,0,1,4.7,2,6.49,6.49,0,0,1,2,4.71Zm-13.35-3.34h6.69v-3.32a3.19,3.19,0,0,0-1-2.35,3.3,3.3,0,0,0-4.71,0,3.19,3.19,0,0,0-1,2.35Z"/><path d="M594.52,382.59h6.65v6.66h3.35v3.34h-3.35v13.34a3,3,0,0,0,1.07,2.47,3.26,3.26,0,0,0,2,.85h.32v3.34h-3.35a6.67,6.67,0,0,1-6.65-6.66V392.59h-3.35v-3.34h3.35Z"/><path d="M634.28,399.25v-3.32a3.19,3.19,0,0,0-1-2.35,3.22,3.22,0,0,0-2.35-1h-3.35c-2,0-3.07,1.12-3.31,3.34h-3.34q.76-6.68,6.65-6.68h6.69a6.42,6.42,0,0,1,4.7,2,6.49,6.49,0,0,1,2,4.71v16.66h-6.66v-3.34q-.39,3.35-3.34,3.34h-3.35a6.69,6.69,0,0,1-6.65-6.66v0a6.71,6.71,0,0,1,6.65-6.65Zm0,3.34h-3.34a3.24,3.24,0,0,0-2.36,1,3.16,3.16,0,0,0-1,2.33v0a3.35,3.35,0,0,0,6.69,0Z"/><path d="M650.94,382.59h6.65v6.66h3.35v3.34h-3.35v13.34a3,3,0,0,0,1.07,2.47,3.29,3.29,0,0,0,2,.85h.31v3.34h-3.35a6.67,6.67,0,0,1-6.65-6.66V392.59h-3.35v-3.34h3.35Z"/><path d="M697.36,412.59H690.7v-3.34q-.39,3.35-3.34,3.34H684a6.69,6.69,0,0,1-6.66-6.66v-10a6.71,6.71,0,0,1,6.66-6.68h6.68v-6.66h6.66Zm-6.66-20h-3.34a3.36,3.36,0,0,0-3.34,3.34v10a3.34,3.34,0,0,0,6.68,0Z"/><path d="M710.67,412.59H704V389.25h6.65v6.68a8.2,8.2,0,0,1,2.07-5,6.21,6.21,0,0,1,4.62-1.67h3.31v6.68H714a3.22,3.22,0,0,0-2.36,1,3.17,3.17,0,0,0-1,2.34Z"/><path d="M724,385.93v-3.34h6.65v3.34Zm0,26.66V389.25h6.65v23.34Z"/><path d="M737.36,412.59v-30H744v15l10-8.34h6.68l-14,11.68,14,11.66H754l-10-8.34v8.34Z"/><path d="M764,412.59v-30h6.65v15l10-8.34h6.69l-14,11.68,14,11.66h-6.69l-10-8.34v8.34Z"/><path d="M810.67,402.59H797.33v3.34a3.15,3.15,0,0,0,1,2.33,3.2,3.2,0,0,0,2.36,1H804c2.2,0,3.31-1.11,3.31-3.32h3.34q-.78,6.66-6.65,6.66h-6.69a6.69,6.69,0,0,1-6.66-6.66v-10a6.71,6.71,0,0,1,6.66-6.68H804a6.71,6.71,0,0,1,6.65,6.68Zm-13.34-3.34H804v-3.32a3.16,3.16,0,0,0-1-2.35,3.34,3.34,0,0,0-5.69,2.35Z"/><path d="M827.09,412.59v-30h13.35a6.71,6.71,0,0,1,6.65,6.66v1.68a6.24,6.24,0,0,1-1.66,4.6,8.19,8.19,0,0,1-5,2.06,6.1,6.1,0,0,1,5,2,7.07,7.07,0,0,1,1.66,4.65v1.68a6.75,6.75,0,0,1-6.65,6.66Zm6.66-16.66h3.34a3.24,3.24,0,0,0,2.36-1,3.21,3.21,0,0,0,1-2.35v-3.34a3.17,3.17,0,0,0-1-2.34,3.27,3.27,0,0,0-2.36-1h-3.34Zm0,13.32h3.34a3.24,3.24,0,0,0,2.36-1,3.16,3.16,0,0,0,1-2.33v-3.34q0-3.34-3.35-3.34h-3.34Z"/><path d="M873.75,402.59H860.41v3.34a3.35,3.35,0,0,0,3.34,3.32h3.34q3.31,0,3.32-3.32h3.34q-.78,6.66-6.66,6.66h-6.68a6.69,6.69,0,0,1-6.66-6.66v-10a6.71,6.71,0,0,1,6.66-6.68h6.68a6.71,6.71,0,0,1,6.66,6.68Zm-13.34-3.34h6.68v-3.32a3.34,3.34,0,0,0-6.68,0Z"/><path d="M880.41,412.59V389.25h6.65v3.34a4.19,4.19,0,0,1,1-2.51,3.12,3.12,0,0,1,2.31-.83h3.34a6.42,6.42,0,0,1,4.7,2,6.49,6.49,0,0,1,2,4.71v16.66h-6.66V395.93a3.19,3.19,0,0,0-1-2.35,3.3,3.3,0,0,0-4.71,0,3.19,3.19,0,0,0-1,2.35v16.66Z"/><path d="M907.06,412.59V389.25h6.66v3.34a4.08,4.08,0,0,1,1-2.51,3.09,3.09,0,0,1,2.3-.83h3.35a6.39,6.39,0,0,1,4.69,2,6.45,6.45,0,0,1,2,4.71v16.66h-6.65V395.93a3.19,3.19,0,0,0-1-2.35,3.34,3.34,0,0,0-5.7,2.35v16.66Z"/><path d="M937.06,415.93c.16,2.21,1.26,3.32,3.32,3.32h3.34a3.23,3.23,0,0,0,2.35-1,3.17,3.17,0,0,0,1-2.34v-6.68q-.39,3.35-3.34,3.34h-3.34a6.69,6.69,0,0,1-6.66-6.66V389.25h6.66v16.68a3.34,3.34,0,0,0,6.68,0V389.25h6.66v26.68a6.74,6.74,0,0,1-6.66,6.66h-6.68q-5.89,0-6.66-6.66Z"/><path d="M970.14,412.59v-30h13.35a6.71,6.71,0,0,1,6.65,6.66v1.68a6.24,6.24,0,0,1-1.66,4.6,8.21,8.21,0,0,1-5,2.06,6.12,6.12,0,0,1,5,2,7.07,7.07,0,0,1,1.66,4.65v1.68a6.75,6.75,0,0,1-6.65,6.66Zm6.66-16.66h3.34a3.4,3.4,0,0,0,3.35-3.34v-3.34a3.18,3.18,0,0,0-1-2.34,3.23,3.23,0,0,0-2.35-1H976.8Zm0,13.32h3.34a3.21,3.21,0,0,0,2.35-1,3.17,3.17,0,0,0,1-2.33v-3.34q0-3.34-3.35-3.34H976.8Z"/><path d="M1010.14,399.25v-3.32a3.19,3.19,0,0,0-1-2.35,3.22,3.22,0,0,0-2.35-1h-3.35c-2,0-3.07,1.12-3.31,3.34H996.8q.76-6.68,6.65-6.68h6.69a6.42,6.42,0,0,1,4.7,2,6.49,6.49,0,0,1,2,4.71v16.66h-6.66v-3.34q-.39,3.35-3.34,3.34h-3.35a6.69,6.69,0,0,1-6.65-6.66v0a6.71,6.71,0,0,1,6.65-6.65Zm0,3.34h-3.34a3.22,3.22,0,0,0-2.36,1,3.16,3.16,0,0,0-1,2.33v0a3.36,3.36,0,0,0,3.35,3.32,3.23,3.23,0,0,0,2.37-1,3.18,3.18,0,0,0,1-2.33Z"/><path d="M1030.11,389.25h6.66v23.34a6.69,6.69,0,0,1-6.66,6.66h-3.34q-5.89,0-6.66-6.66h3.34q.3,3.35,3.32,3.34a3.35,3.35,0,0,0,3.34-3.34Zm0-3.32v-3.34h6.66v3.34Z"/><path d="M1063.45,402.59h-13.34v3.34a3.36,3.36,0,0,0,3.34,3.32h3.35q3.32,0,3.31-3.32h3.34q-.78,6.66-6.65,6.66h-6.69a6.71,6.71,0,0,1-6.66-6.66v-10a6.71,6.71,0,0,1,6.66-6.68h6.69a6.39,6.39,0,0,1,4.69,2,6.45,6.45,0,0,1,2,4.71Zm-13.34-3.34h6.69v-3.32a3.19,3.19,0,0,0-1-2.35,3.34,3.34,0,0,0-5.7,2.35Z"/><path d="M1076.77,412.59h-6.66V389.25h6.66v6.68a8.19,8.19,0,0,1,2.06-5,6.22,6.22,0,0,1,4.62-1.67h3.32v6.68h-6.66a3.24,3.24,0,0,0-2.36,1,3.16,3.16,0,0,0-1,2.34Z"/><path d="M258.36,437.25v23.34H251.7v-3.34q-.39,3.35-3.34,3.34H245a6.69,6.69,0,0,1-6.66-6.66V437.25H245v16.68a3.34,3.34,0,0,0,6.68,0V437.25Z"/><path d="M265,460.59V437.25h6.65v3.34a4.13,4.13,0,0,1,1-2.51,3.12,3.12,0,0,1,2.31-.83h3.34a6.42,6.42,0,0,1,4.7,2,6.49,6.49,0,0,1,2,4.71v16.66h-6.66V443.93a3.19,3.19,0,0,0-1-2.35,3.3,3.3,0,0,0-4.71,0,3.19,3.19,0,0,0-1,2.35v16.66Z"/><path d="M311.67,460.59H305v-3.34q-.39,3.35-3.35,3.34h-3.34a6.69,6.69,0,0,1-6.66-6.66v-10a6.71,6.71,0,0,1,6.66-6.68H305v-6.66h6.65Zm-6.65-20h-3.35a3.36,3.36,0,0,0-3.34,3.34v10a3.15,3.15,0,0,0,1,2.33,3.35,3.35,0,0,0,5.71-2.33Z"/><path d="M338.33,450.59H325v3.34a3.35,3.35,0,0,0,3.34,3.32h3.34q3.31,0,3.32-3.32h3.34q-.78,6.66-6.66,6.66H325a6.69,6.69,0,0,1-6.66-6.66v-10a6.71,6.71,0,0,1,6.66-6.68h6.68a6.71,6.71,0,0,1,6.66,6.68ZM325,447.25h6.68v-3.32a3.34,3.34,0,0,0-6.68,0Z"/><path d="M351.64,460.59H345V437.25h6.65v6.68a8.25,8.25,0,0,1,2.06-5,6.25,6.25,0,0,1,4.63-1.67h3.31v6.68H355a3.22,3.22,0,0,0-2.36,1,3.17,3.17,0,0,0-1,2.34Z"/><path d="M374.75,460.59v-30h6.66v10a4.08,4.08,0,0,1,1-2.51,3.08,3.08,0,0,1,2.3-.83h3.34a6.71,6.71,0,0,1,6.66,6.68v10a6.73,6.73,0,0,1-6.66,6.66Zm6.66-3.34h3.34a3.35,3.35,0,0,0,3.34-3.32v-10a3.34,3.34,0,0,0-6.68,0Z"/><path d="M408.06,437.25h6.69a6.42,6.42,0,0,1,4.7,2,6.49,6.49,0,0,1,2,4.71v10a6.73,6.73,0,0,1-6.66,6.66h-6.69a6.69,6.69,0,0,1-6.65-6.66v-10a6.71,6.71,0,0,1,6.65-6.68Zm0,6.68v10a3.34,3.34,0,0,0,5.71,2.33,3.15,3.15,0,0,0,1-2.33v-10a3.19,3.19,0,0,0-1-2.35,3.3,3.3,0,0,0-4.71,0A3.19,3.19,0,0,0,408.06,443.93Z"/><path d="M434.72,460.59h-6.66V437.25h6.66v6.68a8.25,8.25,0,0,1,2.06-5,6.25,6.25,0,0,1,4.63-1.67h3.31v6.68h-6.66a3.26,3.26,0,0,0-2.36,1,3.2,3.2,0,0,0-1,2.34Z"/><path d="M468.06,460.59h-6.65v-3.34q-.39,3.35-3.35,3.34h-3.34a6.69,6.69,0,0,1-6.66-6.66v-10a6.71,6.71,0,0,1,6.66-6.68h6.69v-6.66h6.65Zm-6.65-20h-3.35a3.36,3.36,0,0,0-3.34,3.34v10a3.35,3.35,0,0,0,6.69,0Z"/><path d="M494.72,450.59H481.38v3.34a3.35,3.35,0,0,0,3.34,3.32h3.34q3.31,0,3.32-3.32h3.34q-.78,6.66-6.66,6.66h-6.68a6.69,6.69,0,0,1-6.66-6.66v-10a6.71,6.71,0,0,1,6.66-6.68h6.68a6.71,6.71,0,0,1,6.66,6.68Zm-13.34-3.34h6.68v-3.32a3.34,3.34,0,0,0-6.68,0Z"/><path d="M504.72,430.59h6.66v6.66h3.34v3.34h-3.34v13.34a3,3,0,0,0,1.06,2.47,3.29,3.29,0,0,0,2,.85h.31v3.34h-3.34a6.67,6.67,0,0,1-6.66-6.66V440.59h-3.34v-3.34h3.34Z"/><path d="M521.38,460.59v-6.66H528v6.66Z"/><path d="M544.49,460.59v-30h13.34a6.73,6.73,0,0,1,6.66,6.66v16.68a6.74,6.74,0,0,1-6.66,6.66Zm6.65-3.34h3.35a3.36,3.36,0,0,0,3.34-3.32V437.25a3.17,3.17,0,0,0-1-2.34,3.25,3.25,0,0,0-2.35-1h-3.35Z"/><path d="M591.14,437.25v23.34h-6.65v-3.34c-.27,2.23-1.38,3.34-3.35,3.34H577.8a6.69,6.69,0,0,1-6.66-6.66V437.25h6.66v16.68a3.18,3.18,0,0,0,1,2.33,3.35,3.35,0,0,0,5.72-2.33V437.25Z"/><path d="M607.56,460.59v-30h6.66v10a4.08,4.08,0,0,1,1-2.51,3.09,3.09,0,0,1,2.3-.83h3.35a6.39,6.39,0,0,1,4.69,2,6.45,6.45,0,0,1,2,4.71v10a6.73,6.73,0,0,1-6.65,6.66Zm6.66-3.34h3.34a3.36,3.36,0,0,0,3.35-3.32v-10a3.19,3.19,0,0,0-1-2.35,3.34,3.34,0,0,0-5.7,2.35Z"/><path d="M654.22,437.25v23.34h-6.66v-3.34q-.39,3.35-3.34,3.34h-3.34a6.69,6.69,0,0,1-6.66-6.66V437.25h6.66v16.68a3.34,3.34,0,0,0,6.68,0V437.25Z"/><path d="M667.53,460.59h-6.65V437.25h6.65v6.68a8.25,8.25,0,0,1,2.06-5,6.25,6.25,0,0,1,4.63-1.67h3.31v6.68h-6.65a3.22,3.22,0,0,0-2.36,1,3.17,3.17,0,0,0-1,2.34Z"/><path d="M700.88,460.59h-6.66v-3.34c-.26,2.23-1.38,3.34-3.34,3.34h-3.35a6.69,6.69,0,0,1-6.65-6.66v-10a6.69,6.69,0,0,1,6.65-6.68h6.69v-6.66h6.66Zm-6.66-20h-3.34a3.38,3.38,0,0,0-3.35,3.34v10a3.35,3.35,0,0,0,6.69,0Z"/><path d="M727.53,450.59H714.19v3.34a3.36,3.36,0,0,0,3.34,3.32h3.35c2.2,0,3.31-1.11,3.31-3.32h3.34q-.78,6.66-6.65,6.66h-6.69a6.69,6.69,0,0,1-6.66-6.66v-10a6.71,6.71,0,0,1,6.66-6.68h6.69a6.71,6.71,0,0,1,6.65,6.68Zm-13.34-3.34h6.69v-3.32a3.16,3.16,0,0,0-1-2.35,3.34,3.34,0,0,0-5.69,2.35Z"/><path d="M760.61,443.93H757.3c-.29-2.22-1.35-3.34-3.16-3.34a4.19,4.19,0,0,0-2.65.7,2.44,2.44,0,0,0-.9,2.07q0,1.44,4.86,4c2.64,1.41,4.16,2.59,4.56,3.52a7.48,7.48,0,0,1,.6,3,6.69,6.69,0,0,1-6.66,6.7h-3.34q-6.66,0-6.66-6.66h3.35q.39,3.33,3.12,3.33a4.22,4.22,0,0,0,2.66-.7,2.5,2.5,0,0,0,.89-2.08c0-.94-1.62-2.28-4.84-4q-4-2.11-4.57-3.52a7.26,7.26,0,0,1-.61-3,6.71,6.71,0,0,1,6.66-6.72H754Q760.21,437.25,760.61,443.93Z"/><path d="M767.3,460.59v-30H774v15l10-8.34h6.69l-14,11.68,14,11.66H784l-10-8.34v8.34Z"/><path d="M807.3,447.25v-3.32a3.19,3.19,0,0,0-1-2.35,3.24,3.24,0,0,0-2.36-1h-3.34c-2,0-3.07,1.12-3.31,3.34H794q.76-6.68,6.66-6.68h6.69a6.39,6.39,0,0,1,4.69,2,6.45,6.45,0,0,1,2,4.71v16.66H807.3v-3.34q-.39,3.35-3.35,3.34h-3.34a6.71,6.71,0,0,1-6.66-6.66v0a6.71,6.71,0,0,1,6.66-6.65Zm0,3.34H804a3.26,3.26,0,0,0-2.36,1,3.19,3.19,0,0,0-1,2.33v0a3.35,3.35,0,0,0,6.69,0Z"/><path d="M840.61,460.59H834V443.93a3.34,3.34,0,0,0-6.68,0v16.66h-6.66V437.25h6.66v3.34a4.08,4.08,0,0,1,1-2.51,3.08,3.08,0,0,1,2.3-.83H834a5.61,5.61,0,0,1,5,2.36,4.87,4.87,0,0,1,2-1.78,6.92,6.92,0,0,1,3-.58h3.32a6.71,6.71,0,0,1,6.68,6.68v16.66h-6.68V443.93a3.24,3.24,0,0,0-1-2.35,3.16,3.16,0,0,0-2.33-1,3.36,3.36,0,0,0-3.34,3.34Z"/><path d="M880.61,460.59H874V443.93a3.34,3.34,0,0,0-6.68,0v16.66h-6.66V437.25h6.66v3.34a4.08,4.08,0,0,1,1-2.51,3.08,3.08,0,0,1,2.3-.83H874a5.61,5.61,0,0,1,5,2.36,4.87,4.87,0,0,1,2-1.78,6.92,6.92,0,0,1,3-.58h3.32a6.71,6.71,0,0,1,6.68,6.68v16.66h-6.68V443.93a3.24,3.24,0,0,0-1-2.35,3.16,3.16,0,0,0-2.33-1,3.36,3.36,0,0,0-3.34,3.34Z"/><path d="M920.61,450.59H907.27v3.34a3.35,3.35,0,0,0,3.34,3.32H914q3.31,0,3.32-3.32h3.34q-.78,6.66-6.66,6.66h-6.68a6.69,6.69,0,0,1-6.66-6.66v-10a6.71,6.71,0,0,1,6.66-6.68H914a6.71,6.71,0,0,1,6.66,6.68Zm-13.34-3.34H914v-3.32a3.34,3.34,0,0,0-6.68,0Z"/><path d="M957,460.59h-6.65v-3.34q-.39,3.35-3.35,3.34h-3.34a6.69,6.69,0,0,1-6.66-6.66v-10a6.71,6.71,0,0,1,6.66-6.68h6.69v-6.66H957Zm-6.65-20H947a3.36,3.36,0,0,0-3.34,3.34v10a3.36,3.36,0,0,0,3.34,3.32,3.36,3.36,0,0,0,3.35-3.32Z"/><path d="M963.69,433.93v-3.34h6.65v3.34Zm0,26.66V437.25h6.65v23.34Z"/><path d="M997,437.25v26.68a6.73,6.73,0,0,1-6.65,6.66h-6.69q-5.9,0-6.66-6.66h3.35c.15,2.21,1.26,3.32,3.31,3.32H987a3.23,3.23,0,0,0,2.35-1,3.14,3.14,0,0,0,1-2.34v-6.68q-.39,3.35-3.35,3.34h-3.34a6.69,6.69,0,0,1-6.66-6.66v-10a6.71,6.71,0,0,1,6.66-6.68Zm-6.65,3.34H987a3.36,3.36,0,0,0-3.34,3.34v10a3.36,3.36,0,0,0,3.34,3.32,3.36,3.36,0,0,0,3.35-3.32Z"/><path d="M1007,450.59v-20h6.67v20Zm0,10v-6.66h6.67v6.66Z"/><ellipse class="cls-3" cx="633.5" cy="271.02" rx="84" ry="108.63"/><path d="M579.08,337.2c7.69-.77,17.29-8.11,28.81-8.38a5.63,5.63,0,0,0,5.22-3.64l.22-.79c.64-2.2-1.15-4.3-3.77-4.18-13.75.74-25.58,9.19-35.49,8.87-1.91,0-2.09,1.41-.61,3.6l.53.78C575.46,335.62,577.67,337.41,579.08,337.2Z"/><path d="M662.25,336.39c-8.86-4.22-19.92-.87-33.2-5.67a12.11,12.11,0,0,1-6-6l-.26-.77c-.73-2.13,1.33-2.72,4.35-1.9,15.84,4.26,29.47-.37,40.9,5.11,2.2,1,2.41,3.94.7,6.07l-.61.8C666.43,336.16,663.89,337.11,662.25,336.39Z"/><path d="M639.3,351.64c-3.12,7.51-7.34,18.16-22.67,18.54-15.33-.37-19.54-11-22.66-18.54-1.55-4-3.12-8.39.4-12.54,3.19-4,11.48-7.81,22.26-7.7,10.78-.11,19.07,3.69,22.27,7.7C642.42,343.25,640.85,347.61,639.3,351.64Z"/><rect class="cls-4" x="620.39" y="331.34" width="4.3" height="6.23" rx="1.95"/><rect class="cls-5" x="616.1" y="331.12" width="4.3" height="6.23" rx="1.95"/><rect class="cls-4" x="611.8" y="331.12" width="4.3" height="6.23" rx="1.95"/><rect class="cls-4" x="603.21" y="332.41" width="4.3" height="6.23" rx="1.95"/><rect class="cls-4" x="628.77" y="333.7" width="4.3" height="6.23" rx="1.95"/><rect class="cls-4" x="624.48" y="332.41" width="4.3" height="6.23" rx="1.95"/><rect class="cls-4" x="598.91" y="333.7" width="4.3" height="6.23" rx="1.95"/><rect class="cls-4" x="594.61" y="336.06" width="4.3" height="6.23" rx="1.95"/><path class="cls-6" d="M596.11,374c1.77,8.12,7.78,14,13.43,10.38s11.67-11.41,13.43-20.14c1.76-9.29-4.25-16-13.43-10.37S594.35,366.41,596.11,374Z"/><path class="cls-7" d="M613.69,300C593,300,553,302.35,550,313.3c-4.46,16.37,64.14,18.71,82.84,9.76"/><path class="cls-8" d="M621.73,325.44a4.94,4.94,0,1,1,9.45-2.85"/><path class="cls-3" d="M554.85,315.51c-.75-1,.56-3.23,2.92-5.07s4.89-2.54,5.63-1.58-2.23.94-4.59,2.78S555.6,316.48,554.85,315.51Z"/><path d="M541.16,244.49h24c1.67,0,5.56-16,5.56-17.68l3.79-30.57c0-1.67,1.67,0,0,0l-11.62,3c-1.67,0-5.56,7.43-5.56,9.09l-14.4,28.8C542.93,238.83,539.5,244.49,541.16,244.49Z"/><path d="M716.49,250.55H686.17a3,3,0,0,1-3-3V202.3a3,3,0,0,1,3-3l12.89,6.06c1.67,0,9.85,6.42,9.85,8.09l5.81,29.81C714.72,244.89,718.16,250.55,716.49,250.55Z"/><path class="cls-7" d="M561.12,239.94c-1.52,11.66-6.72,24-11.62,24.51s-10.09-9.1-11.62-24.51c-1.52-11.66,3.68-24,11.62-24.5S562.65,224.54,561.12,239.94Z"/><path class="cls-7" d="M717.5,246c-1.52,11.66-6.73,24-11.62,24.5s-10.1-9.1-11.62-24.5c-1.52-11.66,3.68-24,11.62-24.51S719,230.6,717.5,246Z"/><path class="cls-3" d="M714.72,243.32c-1,7.86-4.53,16.17-7.83,16.52s-6.81-6.14-7.83-16.52c-1-7.86,2.48-16.18,7.83-16.51S715.75,232.94,714.72,243.32Z"/><path class="cls-3" d="M557.33,240c-1,7.86-4.53,16.17-7.83,16.51s-6.8-6.13-7.83-16.51c-1-7.86,2.48-16.18,7.83-16.52S558.36,229.66,557.33,240Z"/><path class="cls-9" d="M714.85,257.5c4.8,6.57,1.77,16.93-5.31,19.2-4.59,1.48-8.84-7.12-8.84-12.63"/><ellipse class="cls-10" cx="590.82" cy="268.51" rx="19.83" ry="31.45"/><ellipse class="cls-10" cx="628.46" cy="266.49" rx="19.83" ry="31.45"/><path class="cls-7" d="M610.65,268.51c0,17.37-13.3-2.15-24.25-2.15S571,285.88,571,268.51s8.88-31.46,19.83-31.46S610.65,251.14,610.65,268.51Z"/><path class="cls-7" d="M648.29,266.49c0,17.37-14.56-.13-25.51-.13s-14.15,17.5-14.15.13S617.51,235,628.46,235,648.29,249.11,648.29,266.49Z"/><circle class="cls-8" cx="586.65" cy="278.49" r="6.06"/><circle class="cls-8" cx="622.52" cy="278.49" r="6.06"/><path class="cls-11" d="M645,291.24c0,3.7-7.35,6.7-16.42,6.7s-16.42-3-16.42-6.7,7.1,1.9,16.17,1.9S645,287.55,645,291.24Z"/><path class="cls-11" d="M607.11,293.77c0,3.7-7.35,6.69-16.42,6.69s-16.42-3-16.42-6.69,7.1,1.89,16.17,1.89S607.11,290.07,607.11,293.77Z"/><circle class="cls-10" cx="583.37" cy="276.21" r="0.51"/><circle class="cls-10" cx="619.24" cy="276.21" r="0.51"/><path class="cls-3" d="M616.58,249.45c-1-1.22.71-4.1,3.71-6.43s6.2-3.23,7.15-2-2.83,1.2-5.83,3.53S617.53,250.68,616.58,249.45Z"/><path class="cls-3" d="M578.94,251.48c-1-1.23.71-4.11,3.71-6.44s6.2-3.23,7.15-2-2.84,1.19-5.83,3.52S579.89,252.7,578.94,251.48Z"/><polyline class="cls-12" points="607.9 170.47 594 162.9 610.42 160.62 605.12 150.77 621.03 157.59 623.81 149 631.9 157.59 641.5 150.26 645.54 161.88 658.68 156.07 657.41 175.53"/><path class="cls-13" d="M581.89,228.7c-7,1.67,16.78-10.83,34.51-11.46s27.21,7.07,32.55,11.95c5.11,4.66-14.44-10.24-32.16-9.61S590.22,226.72,581.89,228.7Z"/><path class="cls-13" d="M588.35,218c-6,1.42,14.18-9.15,29.17-9.68s23,6,27.52,10.1c4.31,3.94-12.21-8.66-27.19-8.13S595.39,216.35,588.35,218Z"/><path class="cls-13" d="M599.21,207.78c-4,.87,9.61-5.94,19.65-6.09s15.32,4.3,18.28,7.12-8-6-18.09-5.8S603.94,206.75,599.21,207.78Z"/></svg>
