<svg id="Layer_1" data-name="Layer 1" xmlns="http://www.w3.org/2000/svg" xmlns:xlink="http://www.w3.org/1999/xlink" width="1920" height="1080" viewBox="0 0 1920 1080"><defs><style>.cls-1{fill:url(#linear-gradient);}.cls-2{fill:url(#linear-gradient-2);}.cls-3{fill:url(#linear-gradient-3);}.cls-4{fill:url(#linear-gradient-4);}.cls-5{fill:#ddbc9b;}</style><linearGradient id="linear-gradient" x1="365.16" y1="918.95" x2="368.99" y2="1140.67" gradientUnits="userSpaceOnUse"><stop offset="0"/><stop offset="0.63" stop-color="#513820"/><stop offset="1" stop-color="#543a21"/></linearGradient><linearGradient id="linear-gradient-2" x1="1451.84" y1="900.21" x2="1455.66" y2="1121.93" xlink:href="#linear-gradient"/><linearGradient id="linear-gradient-3" x1="878.17" y1="1123.93" x2="1013.88" y2="317.33" gradientUnits="userSpaceOnUse"><stop offset="0" stop-color="#a87f56"/><stop offset="0.7" stop-color="#543a21"/></linearGradient><linearGradient id="linear-gradient-4" x1="241.41" y1="967.5" x2="1621.59" y2="976.5" gradientUnits="userSpaceOnUse"><stop offset="0" stop-color="#8c6239"/><stop offset="0.7" stop-color="#543a21"/></linearGradient></defs><title>forgrund</title><rect class="cls-1" x="347.5" y="972" width="39" height="107"/><rect class="cls-2" x="1434.5" y="972" width="39" height="107"/><polygon class="cls-3" points="1621.5 953 241.5 953 301.22 306 1561.78 306 1621.5 953"/><rect class="cls-4" x="241.5" y="953" width="1380" height="38"/><circle class="cls-5" cx="367" cy="828.5" r="69.5"/><circle class="cls-5" cx="1227" cy="810.5" r="69.5"/><circle class="cls-5" cx="953" cy="715.5" r="69.5"/><circle class="cls-5" cx="782" cy="454.5" r="69.5"/><circle class="cls-5" cx="1425" cy="469.5" r="69.5"/><circle class="cls-5" cx="1148" cy="446.5" r="69.5"/><circle class="cls-5" cx="1470" cy="810.5" r="69.5"/><circle class="cls-5" cx="506" cy="446.5" r="69.5"/><circle class="cls-5" cx="676" cy="829.5" r="69.5"/></svg>
