<svg id="Layer_1" data-name="Layer 1" xmlns="http://www.w3.org/2000/svg" xmlns:xlink="http://www.w3.org/1999/xlink" width="520" height="1030" viewBox="0 0 520 1030"><defs><style>.cls-1{fill:url(#linear-gradient);}.cls-2{fill:url(#linear-gradient-2);}.cls-3{fill:url(#linear-gradient-3);}.cls-4{fill:url(#linear-gradient-4);}.cls-5{fill:url(#linear-gradient-5);}.cls-6{fill:#fffefd;}.cls-7{fill:#020202;}.cls-8{fill:#664420;}.cls-9{fill:#050200;}.cls-10,.cls-9{stroke:#000;stroke-miterlimit:10;stroke-width:2px;}.cls-10{fill:#020100;}.cls-11{fill:#cecece;}.cls-12{fill:url(#linear-gradient-6);}.cls-13{fill:url(#linear-gradient-7);}.cls-14{fill:url(#linear-gradient-8);}.cls-15{fill:#fcfcfc;}.cls-16{fill:url(#linear-gradient-9);}</style><linearGradient id="linear-gradient" x1="48.61" y1="275" x2="388.61" y2="275" gradientUnits="userSpaceOnUse"><stop offset="0.01" stop-color="#fff"/><stop offset="1" stop-color="#b5b5b5"/><stop offset="1" stop-color="#b3b3b3"/></linearGradient><linearGradient id="linear-gradient-2" x1="-2863.61" y1="568" x2="-2803.39" y2="568" gradientTransform="matrix(-1, 0, 0, 1, -2799, 0)" gradientUnits="userSpaceOnUse"><stop offset="0" stop-color="#a67c52"/><stop offset="1" stop-color="#42210b"/></linearGradient><linearGradient id="linear-gradient-3" x1="48.61" y1="550" x2="388.61" y2="550" gradientUnits="userSpaceOnUse"><stop offset="0" stop-color="#fff"/><stop offset="1" stop-color="#ccc"/></linearGradient><linearGradient id="linear-gradient-4" x1="388.61" y1="424.5" x2="515.61" y2="424.5" gradientUnits="userSpaceOnUse"><stop offset="0" stop-color="#b3b3b3"/><stop offset="1" stop-color="#4d4d4d"/></linearGradient><linearGradient id="linear-gradient-5" x1="388.61" y1="446.5" x2="515.61" y2="446.5" xlink:href="#linear-gradient-3"/><linearGradient id="linear-gradient-6" x1="250.39" y1="614" x2="310.61" y2="614" gradientTransform="matrix(1, 0, 0, 1, 0, 0)" xlink:href="#linear-gradient-2"/><linearGradient id="linear-gradient-7" x1="228.5" y1="679" x2="256.72" y2="679" gradientTransform="matrix(0.59, 0.81, -0.81, 0.59, 648.93, 83.34)" xlink:href="#linear-gradient-2"/><linearGradient id="linear-gradient-8" x1="228.76" y1="697.32" x2="278.82" y2="697.32" gradientTransform="translate(567.41 24.78) rotate(45)" xlink:href="#linear-gradient-2"/><linearGradient id="linear-gradient-9" x1="71.61" y1="280.28" x2="366.61" y2="280.28" gradientTransform="matrix(1, 0, 0, 1, 0, 0)" xlink:href="#linear-gradient-2"/></defs><title>kaffe</title><ellipse class="cls-1" cx="218.61" cy="275" rx="170" ry="70"/><path class="cls-2" d="M4.39,568c0,35.9,23.28,65,52,65s-27-29.1-27-65,55.72-65,27-65S4.39,532.1,4.39,568Z"/><path class="cls-3" d="M388.61,287a12,12,0,0,0-12-12h-316a12,12,0,0,0-12,12V760a11.88,11.88,0,0,0,.35,2.81,20.77,20.77,0,0,0-.35,3.69c0,32.31,76.11,58.5,170,58.5s170-26.19,170-58.5a19.88,19.88,0,0,0-.35-3.69,11.88,11.88,0,0,0,.35-2.81Z"/><path class="cls-4" d="M503.61,303h-103a12,12,0,0,0-12,12V534a12,12,0,0,0,12,12h103a12,12,0,0,0,12-12V315A12,12,0,0,0,503.61,303Zm-51,187a12,12,0,0,1-12,12h-19a12,12,0,0,1-12-12V388a12,12,0,0,1,12-12h19a12,12,0,0,1,12,12Z"/><path class="cls-5" d="M503.61,325h-103a12,12,0,0,0-12,12V556a12,12,0,0,0,12,12h103a12,12,0,0,0,12-12V337A12,12,0,0,0,503.61,325Zm-51,187a12,12,0,0,1-12,12h-19a12,12,0,0,1-12-12V410a12,12,0,0,1,12-12h19a12,12,0,0,1,12,12Z"/><ellipse class="cls-6" cx="180.11" cy="523" rx="38.5" ry="66" transform="translate(-90.25 40.43) rotate(-10.26)"/><ellipse class="cls-6" cx="105.11" cy="506.5" rx="63.5" ry="35.5" transform="translate(-404.14 415.67) rotate(-68.16)"/><polyline class="cls-7" points="85.51 405.76 116.88 388.11 150.72 448.24"/><polyline class="cls-7" points="224.61 416 224.61 452 155.61 452"/><path class="cls-8" d="M218,516.14c6.49,35.87-19.61-13-44.39-18.14-34-7-31.66,68.44-31,32,1-55,4.83-68.16,25.75-71.95S211.51,480.28,218,516.14Z"/><path class="cls-8" d="M138.06,519.7c-13,32.56-12.25-45.41-30.45-52.7s-48.5,58.85-35.45,26.3,38.37-53,56.57-45.74S151.11,487.15,138.06,519.7Z"/><ellipse class="cls-9" cx="93.61" cy="507.5" rx="20.5" ry="12" transform="translate(-412.29 405.62) rotate(-68.16)"/><ellipse class="cls-10" cx="169.61" cy="524.5" rx="20.5" ry="12" transform="translate(-376.99 595.89) rotate(-79.52)"/><path class="cls-11" d="M131.2,567c-21.09,3.36-59.4,30-57.61,41.22s50.75,3.66,71.84.3"/><path class="cls-7" d="M155.61,647.5c0,10.22-3.87-7.5-29-7.5s-62,17.72-62,7.5,20.87-18.5,46-18.5S155.61,637.28,155.61,647.5Z"/><path class="cls-12" d="M310.61,614c0,35.9-23.28,65-52,65s27-29.1,27-65-55.72-65-27-65S310.61,578.1,310.61,614Z"/><ellipse class="cls-13" cx="242.61" cy="679" rx="16" ry="13" transform="translate(-449.18 475.71) rotate(-53.96)"/><ellipse class="cls-14" cx="253.79" cy="697.32" rx="29.09" ry="20.15" transform="translate(-418.75 383.7) rotate(-45)"/><circle class="cls-15" cx="90.11" cy="500.5" r="2.5"/><circle class="cls-15" cx="165.11" cy="518.5" r="2.5"/><path class="cls-16" d="M366.61,275.35c0,17.48-66,31.65-147.5,31.65s-147.5-14.17-147.5-31.65,65-28.35,148-17.35C343,274.36,366.61,257.87,366.61,275.35Z"/></svg>
