<svg id="Layer_1" data-name="Layer 1" xmlns="http://www.w3.org/2000/svg" width="350" height="290" viewBox="0 0 350 290"><defs><style>.cls-1{fill:#020202;}.cls-2{fill:#fcfcfc;}</style></defs><title>livsort</title><path class="cls-1" d="M349,93.54A85.36,85.36,0,0,0,183.83,63.3,85.36,85.36,0,1,0,69.67,171.69L183.46,285.48,296.69,172.25A85.36,85.36,0,0,0,349,93.54Z"/><path class="cls-1" d="M331.34,89.86A85.36,85.36,0,0,0,166.17,59.62,85.36,85.36,0,1,0,52,168L165.8,281.8,279,168.57A85.36,85.36,0,0,0,331.34,89.86Z"/><path class="cls-2" d="M81.19,39.1c8.44,3.51-16.68,2.45-23.88,10.69s-5.83,32.37-9.22,23.88c-3-7.35-1.39-18.62,5.81-26.86S72.37,35.42,81.19,39.1Z"/></svg>
