<svg id="Layer_1" data-name="Layer 1" xmlns="http://www.w3.org/2000/svg" width="520" height="1030" viewBox="0 0 520 1030"><defs><style>.cls-1{fill:#38682b;}.cls-2{opacity:0.8;}.cls-3{opacity:0.47;}.cls-4{fill:#fcfcfc;}.cls-5{fill:#134403;}.cls-6{fill:#898507;opacity:0.5;}.cls-7{fill:#020202;}.cls-8{fill:#8c061d;}.cls-9{fill:#d6af85;}.cls-10{fill:#be765f;}.cls-11{fill:#050505;}.cls-12{fill:#f7f5f5;}.cls-13{fill:#e2ba96;}.cls-14{fill:#235114;}.cls-15{fill:#ede71b;}</style></defs><title>oel</title><path class="cls-1" d="M360.59,950.38q-11.11,3.17-21.18,6.14c-45.07-39.29,6.2-77.31-27.06-114.07,7.59-2.94,14.79-6,21.51-9C379.64,871.14,327,910.13,360.59,950.38Z"/><path class="cls-1" d="M216.76,980.61q-15.25-3.18-30.14-6.21c-15.67-37.94,40.69-76.8,19.89-116.58q15.24.88,30.29,1.93C253.22,901,195.06,941.24,216.76,980.61Z"/><g class="cls-2"><path class="cls-1" d="M355.26,843.33c-63.81,29.13-126.52,41.8-187.95,34.81-5.85-.68-11.78-7.26-13.16-14.38-27.42-144.31-46-287-46.7-425.44,0-6.81,6-14.4,13.3-16.6,76.5-22.84,152.53-24.81,228.12-2,7.22,2.2,13.76,9.76,14.51,16.45,14.92,136.17,19.16,266.38,4.36,390.81C367,833.05,361.34,840.52,355.26,843.33Z"/></g><g class="cls-2"><path class="cls-1" d="M270.61,429.43q-44.58-.58-89.71-5.49c-12.25-1.24-23.37-16.31-23.9-33.15-4.36-130.44,29.39-252.37,89.46-352.47,7.78-13,21.9-16.48,31.1-8.67A881.4,881.4,0,0,0,348,82.81a23.19,23.19,0,0,1,6.69,30.54C308,194.93,282.59,295.66,290.12,404.12,291.08,418,282.73,429.51,270.61,429.43Z"/></g><ellipse class="cls-1" cx="316.32" cy="57.03" rx="24.35" ry="63.54" transform="translate(93.85 289.01) rotate(-56.42)"/><ellipse class="cls-1" cx="331.32" cy="45.03" rx="24.35" ry="63.54" transform="translate(110.55 296.14) rotate(-56.42)"/><ellipse class="cls-3" cx="330.66" cy="44.22" rx="14.95" ry="43.25" transform="translate(110.92 295.24) rotate(-56.42)"/><ellipse class="cls-4" cx="276.55" cy="306.5" rx="28.4" ry="47.44" transform="translate(-29.78 29.76) rotate(-5.85)"/><ellipse class="cls-4" cx="220.55" cy="312.5" rx="28.4" ry="47.44" transform="translate(-30.68 24.09) rotate(-5.85)"/><path class="cls-5" d="M252.12,345.46c20.93,9.16,63.84,27.49,58.53,39.62s-47.34,5.79-68.27-3.37"/><path class="cls-6" d="M313.64,451.8c0,9.5-15,19-16,7-1.36-16.24-30.27,1.91-31-12-1-19,8.7-29,25-29S313.64,436.61,313.64,451.8Z"/><ellipse class="cls-7" cx="246.14" cy="416.3" rx="43.5" ry="28.5"/><path class="cls-8" d="M263.57,419c12.15,3.66,11.48,8.2,10.77,12.88-1.18,4.68-2.4,9.5-2.17,13.88.86,8.77,5.13,15.85-1.75,17.35,1.21.73-7.84-.15-13.55-2.19-6.32-2.05-9.31-5.25-10.06-9.11.49-7.66,2.46-18-5.58-25.85"/><rect class="cls-4" x="224.64" y="384.8" width="13" height="18" rx="6.5"/><rect class="cls-4" x="268.64" y="391.8" width="12" height="20" rx="6"/><rect class="cls-4" x="222.64" y="428.8" width="13" height="18" rx="6.5"/><path class="cls-9" d="M192.3,315.39c2.67,26.06,12.73-22,28.34-23.59s30.83,43.87,28.16,17.81-17.47-45.9-33.08-44.3S189.63,289.33,192.3,315.39Z"/><path class="cls-10" d="M193.35,323.92c-2.35-26.71,16.57,19.71,32.06,18.34s21.69-50,24-23.27-8.3,49.48-23.79,50.84S195.7,350.64,193.35,323.92Z"/><path class="cls-9" d="M248.3,309.39c2.67,26.06,16.73-27,32.34-28.59s26.83,48.87,24.16,22.81-17.47-45.9-33.08-44.3S245.63,283.33,248.3,309.39Z"/><path class="cls-10" d="M249.22,315.54c2.5,24.4,17.07,42.9,32.54,41.31s26-22.65,23.49-47.05-4.73,34.31-20.2,35.89S246.73,291.13,249.22,315.54Z"/><circle class="cls-11" cx="221.26" cy="317.23" r="9.62"/><circle class="cls-11" cx="291.01" cy="312.42" r="9.62"/><path class="cls-12" d="M306.35,539.19q.51-20.85,1.52-41.78c.29-6.08-4.78-11.8-11.32-12.7q-44.55-6-88.88-11.37c-6.5-.81-11.85,4.2-11.83,11.1q0,23.65.62,47.15c-30,29.66-45.88,90.73-37.31,158.41,13.72,104.41,71.1,171.9,118.1,156.3,47.29-15.71,79.06-92.58,78.46-173.8C354.65,618.42,336.5,570.24,306.35,539.19Z"/><path class="cls-13" d="M302.19,545.13q.48-18.68,1.37-37.43c.26-5.44-4.28-10.57-10.14-11.37Q253.51,491,213.8,486.14c-5.83-.72-10.62,3.76-10.6,9.94q0,21.19.56,42.24c-26.83,26.58-41.11,81.28-33.43,141.92,12.29,93.53,63.69,154,105.8,140,42.36-14.07,70.82-82.94,70.28-155.71C345.47,616.11,329.21,573,302.19,545.13Z"/><circle class="cls-4" cx="226.14" cy="315.3" r="1.5"/><circle class="cls-4" cx="295.14" cy="312.3" r="1.5"/><path class="cls-14" d="M292.41,992.79c-32.05,13.24-68,21.1-106.48,22.62-7.74.21-13.5-5.33-13.07-11.81.46-8,.51-15.84.2-23.55-.18-6.28,4.73-12.95,11-15.24,31.85-11.06,59.68-27.29,82.33-47.49,4.42-4.08,12.2.46,16.93,10.83a345,345,0,0,1,14.79,39C301.7,978.35,298.89,990.24,292.41,992.79Z"/><path class="cls-14" d="M420.11,1024.22c-34.12-20.15-67.56-35.16-99.34-45.55-6.38-2.17-8.61-8.57-5.74-14.95A130.66,130.66,0,0,0,323.09,939c1.63-7,6.72-12.95,12.29-12.67,28.07,1.74,59,7.11,92.1,16.85,6.56,1.85,13,13.33,13.06,25.24A249.38,249.38,0,0,1,437,1011C435,1022.64,426.91,1028.35,420.11,1024.22Z"/><path class="cls-13" d="M312.73,210.31c1-6.21,3.49-11.89,5.93-17.65,2.35-5.52,4-11.2,5.88-16.88,3.17-9.35,6.73-20.05,12.76-28.24a4.57,4.57,0,0,1,1.43-2,5.45,5.45,0,0,1,.29-1.65l-.79.13L187.15,168.62l-17.3,65.63,141.25-23,1.56-.25A5.72,5.72,0,0,1,312.73,210.31Z"/><path d="M252.2,188.82c2.08,11.64-4.65,20-12.89,21.5s-17.43-3.58-19.59-15.71c-2.08-11.64,4.76-20,12.95-21.51S250,176.7,252.2,188.82Zm-26.67,24.23L223,211.69l22.92-41.22,2.54,1.35Zm13.3-5.39c7.5-1.34,9.21-9.87,7.79-17.85s-6-15.39-13.48-14.05-9.26,9.88-7.84,17.86S231.34,209,238.83,207.66Z"/><path d="M253,172.49l-.38-2.13,14.88-2.65.38,2.12-6.77,2-1.06.19Zm4.51-3,5.1-.91c.82,5.5,1.8,11,2.78,16.51l.67,3.72c.8,4.52,1.79,10.05,2.91,15.39l-5.11.91c-.81-5.51-1.8-11-2.78-16.51l-.47-2.66C259.63,180.36,258.64,174.83,257.53,169.49Zm8.38,32.24.53,2.92L259,206l-.38-2.13,6.77-2Zm18.25-10.56,1.25,10.09-19,3.39L266,202l17.12-3.05-2.45,3.18.34-10.38Z"/><path class="cls-15" d="M294.49,547.8h-81.7c-1.48-16.67-2.83-33.33-4.3-50h90.3A81.66,81.66,0,0,0,294.49,547.8Z"/><polygon class="cls-13" points="224.64 505.98 240.47 497.8 258.64 507.8 273.85 497.8 285.64 508.8 296.64 497.8 210.64 497.8 224.64 505.98"/><path class="cls-1" d="M230.27,644.2c-22.22,43.4,13.94,109-17.09,93.08s-38.18-63.95-16-107.35,65.39-65.71,96.42-49.82S252.49,600.8,230.27,644.2Z"/><path class="cls-1" d="M303.1,693.19c-20.69,38-86.82,44.31-59.65,59.1s66-4,86.64-42,15.43-80.79-11.74-95.58S323.78,655.19,303.1,693.19Z"/><path d="M245.64,261.3c-17,9.5-12.54-2.5-28-2.5s-28,7.74-28,2.5,12.53-9.5,28-9.5S250.22,258.74,245.64,261.3Z"/><path d="M248.39,254.3c17,9.5,12.54-2.5,28-2.5s28,7.74,28,2.5-12.53-9.5-28-9.5S243.81,251.74,248.39,254.3Z"/></svg>
