<svg id="Layer_1" data-name="Layer 1" xmlns="http://www.w3.org/2000/svg" width="400" height="190" viewBox="0 0 400 190"><defs><style>.cls-1{fill:#2b2a05;}.cls-2{fill:#ff0;}.cls-3{fill:#fcfcfc;}</style></defs><title>play</title><rect class="cls-1" x="11.5" y="16.5" width="385" height="172" rx="12"/><rect class="cls-2" x="3.5" y="1.5" width="385" height="172" rx="12"/><path d="M116.87,112.85v-51h22.69a11.4,11.4,0,0,1,11.31,11.32v5.68a11.39,11.39,0,0,1-11.31,11.32H128.19v22.68Zm11.32-28.31h5.68a5.77,5.77,0,0,0,5.69-5.69V73.17a5.37,5.37,0,0,0-1.69-4,5.49,5.49,0,0,0-4-1.66h-5.68Z"/><path d="M162.19,112.85v-51H173.5v45.32h17v5.68Z"/><path d="M201.87,112.85V73.17a11.37,11.37,0,0,1,11.32-11.32h11.37a11.4,11.4,0,0,1,11.31,11.32v39.68H224.56V90.17H213.19v22.68Zm11.32-28.31h11.37V73.17a5.37,5.37,0,0,0-1.69-4,5.66,5.66,0,0,0-8,0,5.35,5.35,0,0,0-1.67,4Z"/><path d="M258.5,112.85V90.17q-11.31-1.31-11.31-11.32v-17H258.5v17a5.69,5.69,0,0,0,11.37,0v-17h11.32v17q0,10-11.32,11.32v22.68Z"/><path class="cls-3" d="M66.05,19.5c9.34,8.17-20.23-1.66-30,9.54s3.91,39.18-5.44,31-9-23.87.8-35.07S56.7,11.33,66.05,19.5Z"/></svg>
