<svg id="Layer_1" data-name="Layer 1" xmlns="http://www.w3.org/2000/svg" width="350" height="380" viewBox="0 0 350 380"><defs><style>.cls-1{fill:#2b2a05;}.cls-2{fill:#ff0;}.cls-3{fill:#fcfcfc;}</style></defs><title>playagain</title><circle class="cls-1" cx="175.89" cy="203.39" r="174.11"/><circle class="cls-2" cx="174.11" cy="176.61" r="174.11"/><path class="cls-3" d="M123.21,54.29c20.47,8.52-40.49,6-58,25.95s-14.16,78.56-22.39,58C35.71,120.36,39.48,93,57,73S101.79,45.36,123.21,54.29Z"/><path d="M175.75,284.5A85.34,85.34,0,0,1,90.5,199.25h20A65.27,65.27,0,1,0,175.75,134V114a85.26,85.26,0,1,1,0,170.51Z"/><polygon points="175.75 95.23 175.75 153.15 134.15 124.19 175.75 95.23"/><path d="M185.75,172.29l-69.1-48.1,69.1-48.09Zm-34.11-48.1L165.76,134V114.36Z"/></svg>
