<svg id="Layer_1" data-name="Layer 1" xmlns="http://www.w3.org/2000/svg" width="160" height="650" viewBox="0 0 160 650"><defs><style>.cls-1{fill:#37662c;stroke:#000;stroke-miterlimit:10;stroke-width:8px;}.cls-2{fill:#f9f906;}.cls-3{fill:#ffff06;}.cls-4{fill:#fcfcfc;}</style></defs><title>point</title><path d="M144.5,245.59H105.56a12,12,0,0,0,12-12V38.5a12,12,0,0,0-12-12H69.72a12,12,0,0,0-12,12V233.59a12,12,0,0,0,12,12H31.5a12,12,0,0,0-12,12V634.5a12,12,0,0,0,12,12h113a12,12,0,0,0,12-12V257.59A12,12,0,0,0,144.5,245.59Z"/><path class="cls-1" d="M132.5,226.59H93.56a12,12,0,0,0,12-12V19.5a12,12,0,0,0-12-12H57.72a12,12,0,0,0-12,12V214.59a12,12,0,0,0,12,12H19.5a12,12,0,0,0-12,12V615.5a12,12,0,0,0,12,12h113a12,12,0,0,0,12-12V238.59A12,12,0,0,0,132.5,226.59Z"/><path class="cls-2" d="M68.6,338.52V279.58H60.15v-8.37L77,262.77h8.4v75.75Z"/><path class="cls-3" d="M30.1,382.87h9.65v4.84A4.91,4.91,0,0,1,41,384.07a5,5,0,0,1,3.63-1.2h4.85a9.27,9.27,0,0,1,6.81,2.86,9.38,9.38,0,0,1,2.84,6.83v14.5a9.7,9.7,0,0,1-9.65,9.65h-9.7v9.66H30.1Zm9.65,29H44.6A4.73,4.73,0,0,0,48,410.45a4.57,4.57,0,0,0,1.44-3.39v-14.5A4.62,4.62,0,0,0,48,389.15a4.72,4.72,0,0,0-3.41-1.41,4.57,4.57,0,0,0-3.42,1.4,4.67,4.67,0,0,0-1.43,3.42Z"/><path class="cls-3" d="M73.6,373.21h9.65v9.66H88.1v4.84H83.25v19.35a4.29,4.29,0,0,0,1.54,3.57,4.69,4.69,0,0,0,2.86,1.24h.45v4.84H83.25a9.68,9.68,0,0,1-9.65-9.65V387.71H68.75v-4.84H73.6Z"/><path class="cls-3" d="M121.9,392.56h-4.8c-.43-3.23-1.95-4.85-4.58-4.85a6.19,6.19,0,0,0-3.85,1,3.59,3.59,0,0,0-1.29,3c0,1.4,2.35,3.34,7,5.85,3.83,2.05,6,3.76,6.61,5.11a10.83,10.83,0,0,1,.87,4.32,9.7,9.7,0,0,1-9.65,9.71H107.4q-9.65,0-9.65-9.65h4.85q.57,4.83,4.53,4.83a6.12,6.12,0,0,0,3.85-1,3.6,3.6,0,0,0,1.29-3q0-2-7-5.85-5.76-3.06-6.63-5.1a10.84,10.84,0,0,1-.87-4.3,9.4,9.4,0,0,1,2.85-6.9,9.29,9.29,0,0,1,6.8-2.84h4.85Q121.31,382.87,121.9,392.56Z"/><path class="cls-4" d="M62.05,244.5c9.34,8.17-20.23-1.66-30,9.54s3.91,39.18-5.44,31-9-23.87.8-35.07S52.7,236.33,62.05,244.5Z"/></svg>
