<svg id="Layer_1" data-name="Layer 1" xmlns="http://www.w3.org/2000/svg" width="166.99" height="703" viewBox="0 0 166.99 703"><defs><style>.cls-1{fill:#37662c;stroke:#000;stroke-miterlimit:10;stroke-width:8px;}.cls-2{fill:#ffff06;}.cls-3{fill:#fcfcfc;}</style></defs><title>pts</title><path d="M153.86,264.45H111.27a13.17,13.17,0,0,0,13.13-13.13V37.91a13.17,13.17,0,0,0-13.13-13.13H72.06A13.17,13.17,0,0,0,58.93,37.91V251.32a13.17,13.17,0,0,0,13.13,13.13H30.25a13.15,13.15,0,0,0-13.12,13.12v412.3A13.16,13.16,0,0,0,30.25,703H153.86A13.17,13.17,0,0,0,167,689.87V277.57A13.16,13.16,0,0,0,153.86,264.45Z"/><path class="cls-1" d="M140.74,243.66H98.14a13.16,13.16,0,0,0,13.13-13.12V17.13A13.17,13.17,0,0,0,98.14,4H58.93A13.17,13.17,0,0,0,45.8,17.13V230.54a13.16,13.16,0,0,0,13.13,13.12H17.13A13.17,13.17,0,0,0,4,256.79v412.3a13.17,13.17,0,0,0,13.13,13.13H140.74a13.16,13.16,0,0,0,13.12-13.13V256.79A13.16,13.16,0,0,0,140.74,243.66Z"/><path class="cls-2" d="M28.72,516.61H39.28v5.31a5.36,5.36,0,0,1,1.34-4,5.41,5.41,0,0,1,4-1.32h5.31a10.11,10.11,0,0,1,7.44,3.14,10.21,10.21,0,0,1,3.11,7.47v15.86a10.62,10.62,0,0,1-10.55,10.56H39.28V564.2H28.72Zm10.56,31.73h5.3a5.15,5.15,0,0,0,3.73-1.55,5,5,0,0,0,1.58-3.71V527.22a5,5,0,0,0-1.58-3.73,5.15,5.15,0,0,0-3.73-1.55,5,5,0,0,0-3.74,1.54,5.11,5.11,0,0,0-1.56,3.74Z"/><path class="cls-2" d="M76.31,506.06H86.86v10.55h5.31v5.31H86.86v21.16A4.7,4.7,0,0,0,88.55,547a5.14,5.14,0,0,0,3.12,1.35h.5v5.3H86.86a10.58,10.58,0,0,1-10.55-10.56V521.92H71v-5.31h5.31Z"/><path class="cls-2" d="M129.14,527.22h-5.25q-.69-5.29-5-5.3a6.8,6.8,0,0,0-4.21,1.1,3.92,3.92,0,0,0-1.41,3.28q0,2.28,7.71,6.4,6.27,3.38,7.22,5.59a11.74,11.74,0,0,1,.95,4.72,10.62,10.62,0,0,1-10.55,10.63h-5.31q-10.56,0-10.55-10.56H108q.61,5.28,5,5.28a6.74,6.74,0,0,0,4.21-1.11,4,4,0,0,0,1.41-3.3q0-2.24-7.68-6.39-6.3-3.34-7.25-5.58a11.8,11.8,0,0,1-1-4.71,10.64,10.64,0,0,1,10.55-10.66h5.31Q128.49,516.61,129.14,527.22Z"/><path class="cls-3" d="M63.67,263.25c10.22,8.94-22.12-1.82-32.83,10.44s4.28,42.86-5.94,33.92-9.84-26.11.87-38.36S53.44,254.31,63.67,263.25Z"/></svg>
