<svg id="Layer_1" data-name="Layer 1" xmlns="http://www.w3.org/2000/svg" width="520" height="1030" viewBox="0 0 520 1030"><defs><style>.cls-1,.cls-4,.cls-5{fill:#348c62;}.cls-1,.cls-7,.cls-8,.cls-9{opacity:0.84;}.cls-2,.cls-3,.cls-7{fill:#f9f9f9;}.cls-3,.cls-4{opacity:0.73;}.cls-6{fill:#177244;}.cls-10,.cls-13,.cls-8{fill:#fff;}.cls-9{fill:#be765f;}.cls-10{opacity:0.5;}.cls-11{fill:#f23663;}.cls-12{fill:#724f2f;}.cls-14{fill:#020202;}.cls-15{fill:#000502;opacity:0.43;}</style></defs><title>saft</title><rect class="cls-1" x="260.26" y="43.3" width="104.81" height="407.91" rx="12" transform="translate(13.21 -15.84) rotate(2.96)"/><line class="cls-2" x1="371.17" y1="78" x2="379.83" y2="74.86"/><path class="cls-3" d="M267.33,115.57a6.09,6.09,0,0,1,.12,1.79c-1.18,17.18-3.22,34.33-2.53,51.56l106.25-38.14V78Z"/><line class="cls-2" x1="378.55" y1="128.13" x2="371.17" y2="130.78"/><ellipse class="cls-4" cx="323.8" cy="43.44" rx="60.77" ry="12.03"/><ellipse class="cls-1" cx="321.39" cy="32.61" rx="63.17" ry="10.83"/><path class="cls-1" d="M237.75,444.12H337.2a70,70,0,0,1,70,70V859a15,15,0,0,1-15,15H186.32a15,15,0,0,1-15-15V510.55A66.42,66.42,0,0,1,237.75,444.12Z" transform="translate(34.48 -14.08) rotate(2.96)"/><ellipse class="cls-5" cx="278.67" cy="862.87" rx="25.27" ry="117.92" transform="translate(-597.45 1096.54) rotate(-87.04)"/><rect class="cls-6" x="201.66" y="862.87" width="19.25" height="60.16"/><rect class="cls-6" x="297.93" y="868.89" width="21.66" height="54.15"/><circle class="cls-5" cx="210.69" cy="922.43" r="18.65"/><circle class="cls-5" cx="305.75" cy="922.43" r="18.65"/><ellipse class="cls-7" cx="278.67" cy="240.78" rx="33.69" ry="50.54"/><ellipse class="cls-8" cx="345.46" cy="240.17" rx="33.09" ry="53.55"/><path class="cls-9" d="M312.37,237.17c0,27.91-15.09-4.82-33.7-4.82S245,261.23,245,240.78c0-27.92,15.09-50.54,33.69-50.54S312.37,209.25,312.37,237.17Z"/><path class="cls-9" d="M378.55,240.17c0,29.58-13-5.41-31.29-5.41s-34.89,35-34.89,5.41,14.81-53.54,33.09-53.54S378.55,210.6,378.55,240.17Z"/><ellipse class="cls-10" cx="287.16" cy="658.61" rx="154.02" ry="104.76" transform="translate(-389.61 899.87) rotate(-86.06)"/><path class="cls-11" d="M352.07,665.53c0,43.86-31.51,79.42-70.39,79.42s-70.39-35.56-70.39-79.42c0-14.46,10.83-90.24,51.74-78.21,23.8,7,22.86,2.41,44.52-2.41C328.61,580.23,352.07,650.83,352.07,665.53Z"/><rect class="cls-12" x="278.67" y="550.02" width="21.66" height="48.13" rx="9" transform="matrix(0.85, 0.53, -0.53, 0.85, 350.66, -65.95)"/><path class="cls-1" d="M316,307c0,11.62-3.08,31.28-15.65,31.28-10.83,0-15.64-20.86-15.64-32.49"/><path class="cls-13" d="M270.25,356.89c0,6.31,13.9,13.75,30.68,11.43,17.45-2.4,30.69-5.12,30.69-11.43"/><circle cx="344.25" cy="259.43" r="12.63"/><circle cx="278.07" cy="252.21" r="12.63"/><path class="cls-6" d="M319.58,940.48c0-12.29-9.15-22.26-20.45-22.26s-20.46,10-20.46,22.26c0,.52,0,1,.07,1.53a70.88,70.88,0,0,0-26.18,6.32c-24.17,10.77-38.42,31.48-31.83,46.27s31.52,18,55.69,7.27c22-9.82,35.82-27.91,33.09-42.23A22.66,22.66,0,0,0,319.58,940.48Z"/><path class="cls-6" d="M223.32,941.08a24,24,0,0,0-44.55-12.57,95.35,95.35,0,0,0-21.1-1.06c-29.77,1.72-53.16,16-52.25,31.93s25.8,27.43,55.57,25.72c24.18-1.39,44.16-11.09,50.31-23.21A24,24,0,0,0,223.32,941.08Z"/><path d="M286.45,143.21c-1-2.42-3.12-2.82-7.46-2.55l-1.9.11c-5.09.31-9-.62-10.57-4.43-1.71-4.29,1.51-8.61,7.11-10.85a14,14,0,0,1,8-.9l1.68,5-2.64,1-3.49-5.14,3.31.11.75,1.86a9.3,9.3,0,0,0-7.1,0c-3.43,1.37-5.45,3.87-4.33,6.67.94,2.35,3.3,3,6.93,2.76l2-.13c6.57-.42,9.69.84,11.09,4.35,1.76,4.4-1.52,8.84-7.56,11.25a20.63,20.63,0,0,1-9.34,1.45L271,148.48l2.64-1.06,3.44,5.29-3.28.1-.71-1.79c3.4.58,5.2.73,8.19-.47C285.5,148.88,287.62,146.12,286.45,143.21Z"/><path d="M292.87,145.71l4.18-2.32.88-.36,5.07-1.38.6,1.5-10.14,4Zm3.64-28.95,2.64-1.06,20.22,21.13-4.1,1.64-17.8-18.8,1-.41,0,26-2.07.83Zm1,17.36,11.89-4.76,1.4,1.44-13.31,5.32Zm12,4.92,5.33-2.78.88-.35,5.68-1.63.6,1.49-11.89,4.77Z"/><path d="M314.58,111.48,314,110l6.17-2.47.82,2.06-.44.17Zm8.22,8.4c-1.54-3.85-3.09-7.73-4.76-11.52l4.23-1.69c1.37,3.82,2.93,7.7,4.49,11.62l.57,1.42c1.72,4.29,3.27,8.17,4.94,12L328,133.36c-1.37-3.82-2.93-7.7-4.49-11.62Zm9.55-17.25,2.74,1.07-14.19,5.68-.75-1.87,15.73-6.29,3,6.52-2.47,1Zm-2.57,27.65,6-1.73.6,1.5L324,135l-.6-1.49,5.51-2.85Zm5.92-13.8-10.31,4.13-.68-1.72L335,114.77Zm-1.94-.77-.93-4.22,2-.8,3.69,9.22-2,.79-2.32-3.88Z"/><path d="M341.47,101.14l1.23-2.65,1.25,7.2-2.46,1-2.31-6.78,24.06-9.63,3,6.5-2.47,1-4.07-6.08,2.73,1.07Zm12.39,6.3c-1.54-3.84-3.1-7.72-4.77-11.51l4.23-1.69c1.38,3.82,2.93,7.7,4.5,11.62l.75,1.86c1.54,3.85,3.09,7.73,4.76,11.52l-4.23,1.69c-1.38-3.82-2.93-7.7-4.5-11.62Zm7,10.41,6.4-1.9.59,1.49-13.21,5.29-.6-1.49,5.94-3Z"/><path class="cls-14" d="M372.53,197.38c0,14.57-12.79-18.72-29.24-18.72S313,212,313,197.38,326.3,171,342.75,171,372.53,182.8,372.53,197.38Z"/><path class="cls-14" d="M308.15,198.58c0,14.57-12.79-18.71-29.24-18.71s-30.32,33.28-30.32,18.71,13.34-26.39,29.78-26.39S308.15,184,308.15,198.58Z"/><ellipse class="cls-15" cx="321.39" cy="32.79" rx="33.09" ry="4.63"/></svg>
