<svg id="Layer_1" data-name="Layer 1" xmlns="http://www.w3.org/2000/svg" width="200" height="210" viewBox="0 0 200 210"><defs><style>.cls-1{fill:#2b2a05;}.cls-2{fill:#ff0;}.cls-3{fill:#020202;}.cls-4{fill:#fcfcfc;}</style></defs><title>settings</title><circle class="cls-1" cx="100.5" cy="112.5" r="97.5"/><circle class="cls-2" cx="99.5" cy="97.5" r="97.5"/><path class="cls-3" d="M143.29,98.37q0-2.06-.18-4.05l11.74-6.79L137.92,58.21l-10.44,6a44.87,44.87,0,0,0-9.88-6.37V45.43H83.74V56.11a44.56,44.56,0,0,0-11.12,5.74L60.33,55.41l-15.72,30,9.83,5.15a44.58,44.58,0,0,0-.38,12.92l-9.91,5.72,16.93,29.32,9.29-5.36a44.29,44.29,0,0,0,13.37,7.46v9.9H117.6V138.87a44.82,44.82,0,0,0,8.55-5.28l6.36,4.62,19.9-27.4L143,103.93A46.37,46.37,0,0,0,143.29,98.37Zm-42.43-21.8a21.8,21.8,0,1,1-21.8,21.8A21.8,21.8,0,0,1,100.86,76.57Z"/><path class="cls-4" d="M71,29c11.46,4.78-22.68,3.34-32.46,14.54S30.61,87.53,26,76c-4-10-1.89-25.32,7.9-36.52S59,24,71,29Z"/></svg>
