<svg id="Layer_1" data-name="Layer 1" xmlns="http://www.w3.org/2000/svg" width="1230" height="680" viewBox="0 0 1230 680"><defs><style>.cls-1{fill:#38682b;opacity:0.8;}</style></defs><title>settings_1</title><rect class="cls-1" x="4.5" y="1" width="1221" height="678" rx="12"/><path d="M275.09,277V247h1.52l14.25,14.22L305.09,247h3.34v30h-6.68V258.7L290,270.4l-11.61-11.7V277Z"/><path d="M335.09,253.7V277h-6.66V273.7Q328,277,325.09,277h-3.34a6.69,6.69,0,0,1-6.66-6.66V253.7h6.66v16.68a3.34,3.34,0,0,0,6.68,0V253.7Z"/><path d="M358.4,260.38h-3.31c-.29-2.22-1.34-3.34-3.16-3.34a4.21,4.21,0,0,0-2.65.7,2.44,2.44,0,0,0-.89,2.07q0,1.44,4.86,4,3.94,2.13,4.55,3.52a7.48,7.48,0,0,1,.6,3,6.69,6.69,0,0,1-6.65,6.7H348.4q-6.64,0-6.65-6.66h3.34q.39,3.33,3.13,3.33a4.21,4.21,0,0,0,2.65-.7,2.47,2.47,0,0,0,.89-2.08q0-1.41-4.84-4-4-2.11-4.57-3.52a7.42,7.42,0,0,1-.6-3,6.71,6.71,0,0,1,6.65-6.72h3.35Q358,253.7,358.4,260.38Z"/><path d="M365.09,250.38V247h6.66v3.34Zm0,26.66V253.7h6.66V277Z"/><path d="M378.43,277V247h6.66v15l10-8.34h6.69l-14,11.68,14,11.66h-6.69l-10-8.34V277Z"/><path d="M405.09,260.38V253.7h6.66v6.68Zm0,16.66v-6.66h6.66V277Z"/><path d="M291.75,364.25h-3.32q-.44-3.35-3.15-3.35a3.66,3.66,0,0,0-2.64.85,3.27,3.27,0,0,0-.89,2.51,3.43,3.43,0,0,0,1,2.35l7.06,7.93a6.93,6.93,0,0,1,2,4.71v1.68a6.73,6.73,0,0,1-6.66,6.66h-3.34a5.9,5.9,0,0,1-6.66-6.66h3.34c0,.23,0,.42,0,.55a2.32,2.32,0,0,0,1.05,2.06,4,4,0,0,0,2.3.71,3.33,3.33,0,0,0,2.56-.86,3.62,3.62,0,0,0,.78-2.5,3.44,3.44,0,0,0-1-2.35l-7.07-7.9a6.93,6.93,0,0,1-2-4.71v-1.68a6.69,6.69,0,0,1,6.66-6.66h3.34Q291.35,357.59,291.75,364.25Z"/><path d="M305.09,364.25h6.69a6.39,6.39,0,0,1,4.69,2,6.45,6.45,0,0,1,2,4.71v10a6.73,6.73,0,0,1-6.65,6.66h-6.69a6.71,6.71,0,0,1-6.66-6.66v-10a6.71,6.71,0,0,1,6.66-6.68Zm0,6.68v10a3.35,3.35,0,0,0,6.69,0v-10a3.23,3.23,0,0,0-1-2.36,3.34,3.34,0,0,0-5.7,2.36Z"/><path d="M345.09,364.25v23.34h-6.66v-3.34q-.39,3.35-3.34,3.34h-3.34a6.69,6.69,0,0,1-6.66-6.66V364.25h6.66v16.68a3.34,3.34,0,0,0,6.68,0V364.25Z"/><path d="M351.75,387.59V364.25h6.65v3.34a4.16,4.16,0,0,1,1-2.52,3.15,3.15,0,0,1,2.31-.82h3.34a6.42,6.42,0,0,1,4.7,2,6.49,6.49,0,0,1,2,4.71v16.66h-6.66V370.93a3.35,3.35,0,0,0-6.69,0v16.66Z"/><path d="M398.4,387.59h-6.65v-3.34q-.39,3.35-3.35,3.34h-3.34a6.69,6.69,0,0,1-6.66-6.66v-10a6.71,6.71,0,0,1,6.66-6.68h6.69v-6.66h6.65Zm-6.65-20H388.4a3.35,3.35,0,0,0-3.34,3.34v10a3.15,3.15,0,0,0,1,2.33,3.35,3.35,0,0,0,5.71-2.33Z"/><path d="M414.82,387.59v-30h16.66v3.34h-10v10h6.69v3.32h-6.69v10h10v3.34Z"/><path d="M441.51,387.59v-20h-3.34v-3.34h3.34V364a6.4,6.4,0,0,1,6.36-6.36h6.95v3.34H451.2a2.9,2.9,0,0,0-2.14.9,2.94,2.94,0,0,0-.89,2.12v.3h3.34v3.34h-3.34v20Z"/><path d="M461.51,387.59v-20h-3.34v-3.34h3.34V364a6.4,6.4,0,0,1,6.36-6.36h6.95v3.34H471.2a2.9,2.9,0,0,0-2.14.9,2.94,2.94,0,0,0-.89,2.12v.3h3.34v3.34h-3.34v20Z"/><path d="M498.17,377.59H484.82v3.34a3.36,3.36,0,0,0,3.35,3.32h3.34q3.32,0,3.31-3.32h3.35q-.78,6.66-6.66,6.66h-6.69a6.69,6.69,0,0,1-6.65-6.66v-10a6.71,6.71,0,0,1,6.65-6.68h6.69a6.42,6.42,0,0,1,4.7,2,6.49,6.49,0,0,1,2,4.71Zm-13.35-3.34h6.69v-3.32a3.35,3.35,0,0,0-6.69,0Z"/><path d="M521.48,370.93h-3.31c-.26-2.22-1.38-3.34-3.35-3.34a3.36,3.36,0,0,0-3.34,3.34v10a3.36,3.36,0,0,0,3.34,3.32q3,0,3.35-3.32h3.31q-.4,6.66-6.66,6.66h-3.34a6.71,6.71,0,0,1-6.66-6.66v-10a6.71,6.71,0,0,1,6.66-6.68h3.34Q521.11,364.25,521.48,370.93Z"/><path d="M531.51,357.59h6.66v6.66h3.34v3.34h-3.34v13.34a2.94,2.94,0,0,0,1.06,2.46,3.27,3.27,0,0,0,2,.86h.31v3.34h-3.34a6.69,6.69,0,0,1-6.66-6.66V367.59h-3.34v-3.34h3.34Z"/><path d="M564.82,370.93h-3.31c-.29-2.22-1.34-3.34-3.15-3.34a4.22,4.22,0,0,0-2.66.7,2.47,2.47,0,0,0-.89,2.07c0,.95,1.62,2.3,4.86,4,2.63,1.41,4.15,2.59,4.55,3.52a7.45,7.45,0,0,1,.6,3,6.45,6.45,0,0,1-2,4.74,6.38,6.38,0,0,1-4.69,2h-3.35q-6.65,0-6.65-6.66h3.34q.39,3.33,3.13,3.33a4.21,4.21,0,0,0,2.65-.7,2.47,2.47,0,0,0,.89-2.08q0-1.41-4.84-4-4-2.11-4.57-3.52a7.44,7.44,0,0,1-.6-3,6.71,6.71,0,0,1,6.65-6.71h3.35Q564.41,364.25,564.82,370.93Z"/><path d="M571.51,370.93v-6.68h6.66v6.68Zm0,16.66v-6.66h6.66v6.66Z"/><path d="M756.8,172.35h6.69a6.71,6.71,0,0,1,6.66,6.65v16.69a6.73,6.73,0,0,1-6.66,6.66H756.8a6.69,6.69,0,0,1-6.65-6.66V179a6.69,6.69,0,0,1,6.65-6.65Zm0,6.65v16.69a3.35,3.35,0,0,0,6.69,0V179a3.16,3.16,0,0,0-1-2.33,3.32,3.32,0,0,0-4.71,0A3.16,3.16,0,0,0,756.8,179Z"/><path d="M780.15,202.35v-20H776.8V179h3.35v-.29a6.38,6.38,0,0,1,6.36-6.36h7v3.34h-3.62a3.07,3.07,0,0,0-3,3V179h3.35v3.35H786.8v20Z"/><path d="M800.15,202.35v-20H796.8V179h3.35v-.29a6.38,6.38,0,0,1,6.36-6.36h7v3.34h-3.62a3.07,3.07,0,0,0-3,3V179h3.35v3.35H806.8v20Z"/><path d="M862.52,172.35h6.69a6.71,6.71,0,0,1,6.66,6.65v16.69a6.73,6.73,0,0,1-6.66,6.66h-6.69a6.69,6.69,0,0,1-6.65-6.66V179a6.69,6.69,0,0,1,6.65-6.65Zm0,6.65v16.69a3.35,3.35,0,0,0,6.69,0V179a3.16,3.16,0,0,0-1-2.33,3.32,3.32,0,0,0-4.71,0A3.16,3.16,0,0,0,862.52,179Z"/><path d="M882.52,202.35V179h6.66v3.35a4.08,4.08,0,0,1,1-2.52,3.13,3.13,0,0,1,2.3-.83h3.35a6.36,6.36,0,0,1,4.69,2,6.45,6.45,0,0,1,2,4.71v16.66h-6.65V185.69a3.21,3.21,0,0,0-1-2.36,3.33,3.33,0,0,0-4.72,0,3.24,3.24,0,0,0-1,2.36v16.66Z"/><path d="M761.29,309.79H768a6.69,6.69,0,0,1,6.66,6.65v16.69a6.73,6.73,0,0,1-6.66,6.66h-6.68a6.71,6.71,0,0,1-6.66-6.66V316.44a6.69,6.69,0,0,1,6.66-6.65Zm0,6.65v16.69a3.2,3.2,0,0,0,1,2.33,3.36,3.36,0,0,0,4.74,0,3.2,3.2,0,0,0,1-2.33V316.44a3.16,3.16,0,0,0-1-2.33,3.32,3.32,0,0,0-4.71,0A3.15,3.15,0,0,0,761.29,316.44Z"/><path d="M784.63,339.79v-20h-3.34v-3.35h3.34v-.3a6.4,6.4,0,0,1,6.36-6.35h7v3.34h-3.62a3.06,3.06,0,0,0-3,3v.3h3.34v3.35h-3.34v20Z"/><path d="M804.63,339.79v-20h-3.34v-3.35h3.34v-.3a6.4,6.4,0,0,1,6.36-6.35h7v3.34h-3.62a3.06,3.06,0,0,0-3,3v.3h3.34v3.35h-3.34v20Z"/><path d="M867,309.79h6.68a6.69,6.69,0,0,1,6.66,6.65v16.69a6.73,6.73,0,0,1-6.66,6.66H867a6.71,6.71,0,0,1-6.66-6.66V316.44a6.69,6.69,0,0,1,6.66-6.65Zm0,6.65v16.69a3.2,3.2,0,0,0,1,2.33,3.36,3.36,0,0,0,4.74,0,3.2,3.2,0,0,0,1-2.33V316.44a3.16,3.16,0,0,0-1-2.33,3.32,3.32,0,0,0-4.71,0A3.15,3.15,0,0,0,867,316.44Z"/><path d="M887,339.79V316.44h6.65v3.35a4.14,4.14,0,0,1,1-2.52,3.16,3.16,0,0,1,2.31-.83h3.34a6.36,6.36,0,0,1,4.69,2,6.46,6.46,0,0,1,2,4.71v16.66h-6.66V323.13a3.35,3.35,0,0,0-6.69,0v16.66Z"/></svg>
