<svg id="Layer_1" data-name="Layer 1" xmlns="http://www.w3.org/2000/svg" width="1230" height="680" viewBox="0 0 1230 680"><defs><style>.cls-1{fill:#38682b;opacity:0.8;}.cls-2{fill:#d6af85;}.cls-3{fill:#f9f9f9;}.cls-4{fill:#c19613;}.cls-5{fill:#8c061d;}.cls-6{fill:#be765f;}.cls-7{fill:#141611;}.cls-8{fill:none;stroke:#fcee21;stroke-linecap:round;stroke-miterlimit:10;stroke-width:15px;}.cls-9{fill:#fcfcfc;}.cls-10{fill:#132459;}.cls-11{fill:#0f0e0e;}.cls-12{fill:#020202;opacity:0.1;}</style></defs><title>Artboard 25</title><rect class="cls-1" x="1.56" y="1" width="1221" height="678" rx="12"/><ellipse class="cls-2" cx="594.68" cy="226.67" rx="129.89" ry="167.97"/><path d="M508.94,329.25c12.75-.51,28.86-13.8,48.32-13.27a5.28,5.28,0,0,0,5.19-3.53c.52-1.86,1-3.71,1.47-5.57.56-2.19-1.22-4.28-3.84-4.29-23.06.2-42.77,15.48-59.13,13.9-1.87-.14-2.1,1.33-.63,3.51q1.85,2.75,3.6,5.46C505.32,327.59,507.52,329.38,508.94,329.25Z"/><path d="M641,328.44c-14.7-7.95-33.26-1.18-55.69-10.33a12.59,12.59,0,0,1-6-6.14q-.9-2.73-1.7-5.45c-.65-2.13,1.41-2.74,4.43-1.77,26.58,8.32,49.3-.76,68.15,9.61,2.15,1.13,2.41,4,.72,6.17-1.41,1.84-2.8,3.7-4.14,5.58C645.14,328.3,642.6,329.27,641,328.44Z"/><path d="M603.64,351.34c-4.82,11.61-11.34,28.09-35,28.67-23.71-.58-30.22-17.06-35.05-28.67-2.4-6.23-4.83-13,.61-19.39,5-6.21,17.77-12.08,34.44-11.9,16.67-.18,29.48,5.69,34.43,11.9C608.47,338.37,606,345.11,603.64,351.34Z"/><rect class="cls-3" x="574.41" y="319.95" width="6.64" height="9.63" rx="1.95"/><rect class="cls-4" x="567.77" y="319.61" width="6.64" height="9.63" rx="1.95"/><rect class="cls-3" x="561.12" y="319.61" width="6.64" height="9.63" rx="1.95"/><rect class="cls-3" x="547.83" y="321.61" width="6.64" height="9.63" rx="1.95"/><rect class="cls-3" x="587.37" y="323.6" width="6.64" height="9.63" rx="1.95"/><rect class="cls-3" x="580.72" y="321.61" width="6.64" height="9.63" rx="1.95"/><rect class="cls-3" x="541.19" y="323.6" width="6.64" height="9.63" rx="1.95"/><rect class="cls-3" x="534.54" y="327.26" width="6.64" height="9.63" rx="1.95"/><path class="cls-5" d="M536.87,385.87c2.72,12.55,12,21.62,20.76,16s18-17.63,20.77-31.13c2.72-14.36-6.57-24.75-20.77-16S534.15,374.18,536.87,385.87Z"/><path class="cls-6" d="M564.05,271.43c-32,0-93.91,3.7-98.53,20.63-6.9,25.3,99.18,28.93,128.09,15.09"/><path class="cls-7" d="M576.47,310.83a7.64,7.64,0,0,1,14.63-4.41"/><path class="cls-2" d="M473.06,295.48c-1.16-1.49.86-5,4.51-7.85s7.56-3.93,8.72-2.44-3.46,1.46-7.11,4.3S474.21,297,473.06,295.48Z"/><path d="M451.9,185.66H489c2.58,0,8.59-24.77,8.59-27.35L503.46,111c0-2.57,2.58,0,0,0l-18,4.69c-2.57,0-8.59,11.49-8.59,14.06l-22.27,44.54C454.63,176.91,449.32,185.66,451.9,185.66Z"/><path d="M723,195H676.13a4.7,4.7,0,0,1-4.69-4.69V120.42a4.7,4.7,0,0,1,4.69-4.69l19.92,9.38c2.58,0,15.23,9.92,15.23,12.5l9,46.09C720.27,186.28,725.58,195,723,195Z"/><path class="cls-6" d="M482.76,178.62a79.2,79.2,0,0,1-7.06,25.24c-3.27,6.95-7,13.36-10.91,12.66s-7.63-2.78-10.91-9.55c-3.23-6.42-6.05-17.53-7.06-28.35-1-10.11.19-17.94,3.47-25.23,3.22-6.95,8.52-13.36,14.5-12.66s11.28,2.78,14.5,9.55C482.57,156.7,483.77,167.81,482.76,178.62Z"/><path class="cls-6" d="M724.56,188a79.35,79.35,0,0,1-7.06,25.24c-3.27,6.95-7,13.36-10.9,12.65s-7.64-2.78-10.92-9.54c-3.22-6.42-6-17.54-7-28.35-1-10.11.19-17.95,3.47-25.24,3.22-6.95,8.52-13.36,14.5-12.65s11.27,2.78,14.5,9.54C724.37,166.07,725.58,177.19,724.56,188Z"/><path class="cls-2" d="M720.27,183.85c-1.59,12.15-7,25-12.11,25.53s-10.53-9.48-12.11-25.53c-1.59-12.16,3.83-25,12.11-25.54S721.86,167.8,720.27,183.85Z"/><path class="cls-2" d="M476.9,178.77c-1.59,12.15-7,25-12.11,25.53s-10.52-9.48-12.11-25.53c-1.59-12.16,3.83-25,12.11-25.54S478.49,162.72,476.9,178.77Z"/><path class="cls-8" d="M720.46,205.77c7.42,10.16,2.74,26.18-8.2,29.69-7.11,2.29-13.67-11-13.67-19.53"/><ellipse class="cls-9" cx="528.68" cy="222.79" rx="30.67" ry="48.63"/><ellipse class="cls-9" cx="586.89" cy="219.67" rx="30.67" ry="48.63"/><path class="cls-6" d="M559.35,222.79c0,26.86-20.57-3.32-37.51-3.32S498,249.65,498,222.79s13.72-48.63,30.66-48.63S559.35,195.93,559.35,222.79Z"/><path class="cls-6" d="M617.55,219.67c0,26.86-22.52-.2-39.45-.2s-21.88,27.06-21.88.2S570,171,586.89,171,617.55,192.81,617.55,219.67Z"/><circle class="cls-7" cx="522.23" cy="238.22" r="9.38"/><circle class="cls-7" cx="577.71" cy="238.22" r="9.38"/><path class="cls-10" d="M612.47,258c0,5.72-11.37,10.35-25.39,10.35s-25.39-4.63-25.39-10.35,11,2.93,25,2.93S612.47,252.23,612.47,258Z"/><path class="cls-10" d="M553.88,261.86c0,5.71-11.37,10.35-25.4,10.35s-25.39-4.64-25.39-10.35,11,2.92,25,2.92S553.88,256.14,553.88,261.86Z"/><circle class="cls-9" cx="517.16" cy="234.71" r="0.78"/><circle class="cls-9" cx="572.63" cy="234.71" r="0.78"/><path class="cls-2" d="M568.52,193.33c-1.47-1.89,1.1-6.34,5.73-10s9.59-5,11.06-3.1-4.39,1.85-9,5.46S570,195.22,568.52,193.33Z"/><path class="cls-2" d="M510.31,196.46c-1.47-1.89,1.1-6.35,5.74-10s9.58-5,11.05-3.1-4.38,1.85-9,5.45S511.78,198.35,510.31,196.46Z"/><polyline class="cls-11" points="555.09 71.2 533.6 59.48 558.99 55.97 550.79 40.73 575.4 51.28 579.7 38 592.2 51.28 607.04 39.95 613.29 57.92 633.61 48.94 631.65 79.02"/><path class="cls-12" d="M514.88,161.24c-10.88,2.59,25.94-16.75,53.35-17.72s42.08,10.94,50.34,18.48c7.9,7.21-22.33-15.83-49.74-14.86S527.75,158.17,514.88,161.24Z"/><path class="cls-12" d="M524.86,144.73c-9.19,2.19,21.93-14.15,45.1-15s35.58,9.24,42.56,15.61c6.67,6.1-18.88-13.38-42-12.56S535.74,142.14,524.86,144.73Z"/><path class="cls-12" d="M541.66,128.89c-6.19,1.35,14.86-9.18,30.38-9.42s23.68,6.65,28.27,11c4.38,4.17-12.46-9.2-28-9S549,127.3,541.66,128.89Z"/><path d="M80.45,445.63V426.88h8.34A4.22,4.22,0,0,1,93,431v1.06a3.9,3.9,0,0,1-1,2.87,5.11,5.11,0,0,1-3.12,1.29,3.85,3.85,0,0,1,3.12,1.25,4.46,4.46,0,0,1,1,2.91v1.05a4.22,4.22,0,0,1-4.16,4.16Zm4.16-10.41H86.7a2.12,2.12,0,0,0,2.09-2.09V431a2,2,0,0,0-.62-1.46A2.07,2.07,0,0,0,86.7,429H84.61Zm0,8.32H86.7a2,2,0,0,0,1.47-.61,2,2,0,0,0,.62-1.46v-2.09a1.85,1.85,0,0,0-2.09-2.09H84.61Z"/><path d="M109.61,439.38h-8.34v2.09a2.08,2.08,0,0,0,2.09,2.07h2.09a1.83,1.83,0,0,0,2.07-2.07h2.09c-.33,2.78-1.71,4.16-4.16,4.16h-4.18a4.17,4.17,0,0,1-4.16-4.16v-6.25a4.2,4.2,0,0,1,4.16-4.18h4.18a4.22,4.22,0,0,1,4.16,4.18Zm-8.34-2.09h4.18v-2.07a2,2,0,0,0-.62-1.47,2,2,0,0,0-1.47-.62,2.1,2.1,0,0,0-2.09,2.09Z"/><path d="M113.77,445.63V431h4.16v2.09a2.56,2.56,0,0,1,.65-1.57A2,2,0,0,1,120,431h2.09a4.22,4.22,0,0,1,4.16,4.18v10.41h-4.16V435.22a2,2,0,0,0-.62-1.47,2,2,0,0,0-1.47-.62,2.1,2.1,0,0,0-2.09,2.09v10.41Z"/><path d="M130.43,445.63V431h4.16v2.09a2.56,2.56,0,0,1,.65-1.57,2,2,0,0,1,1.44-.52h2.09a4.22,4.22,0,0,1,4.16,4.18v10.41h-4.16V435.22a2,2,0,0,0-.62-1.47,2,2,0,0,0-1.47-.62,2.1,2.1,0,0,0-2.09,2.09v10.41Z"/><path d="M149.18,447.72q.15,2.07,2.07,2.07h2.09a2,2,0,0,0,1.47-.61,2,2,0,0,0,.62-1.46v-4.18c-.17,1.4-.86,2.09-2.09,2.09h-2.09a4.17,4.17,0,0,1-4.16-4.16V431h4.16v10.43a2.09,2.09,0,0,0,3.57,1.46,2,2,0,0,0,.61-1.46V431h4.16v16.68a4.22,4.22,0,0,1-4.16,4.16h-4.18c-2.46,0-3.84-1.38-4.16-4.16Z"/><path d="M169.85,445.63V426.88h8.34a4.2,4.2,0,0,1,4.16,4.16v1.06a3.9,3.9,0,0,1-1,2.87,5.06,5.06,0,0,1-3.12,1.29,3.83,3.83,0,0,1,3.12,1.25,4.46,4.46,0,0,1,1,2.91v1.05a4.2,4.2,0,0,1-4.16,4.16ZM174,435.22h2.09a2,2,0,0,0,1.47-.62,2,2,0,0,0,.62-1.47V431a2,2,0,0,0-.62-1.46,2,2,0,0,0-1.47-.61H174Zm0,8.32h2.09a2.1,2.1,0,0,0,2.09-2.07v-2.09a1.85,1.85,0,0,0-2.09-2.09H174Z"/><path d="M194.85,437.29v-2.07a2.12,2.12,0,0,0-2.09-2.09h-2.09c-1.23,0-1.92.7-2.07,2.09h-2.09c.32-2.78,1.71-4.18,4.16-4.18h4.18a4.2,4.2,0,0,1,4.16,4.18v10.41h-4.16v-2.09c-.16,1.4-.86,2.09-2.09,2.09h-2.09a4,4,0,0,1-2.93-1.22,4,4,0,0,1-1.23-2.94h0a4.2,4.2,0,0,1,4.16-4.17Zm0,2.09h-2.09a2,2,0,0,0-1.47.62,2,2,0,0,0-.62,1.46h0a2,2,0,0,0,.61,1.46,2.09,2.09,0,0,0,3.57-1.46Z"/><path d="M207.33,431h4.16v14.59a4.17,4.17,0,0,1-4.16,4.16h-2.09c-2.45,0-3.84-1.38-4.16-4.16h2.09c.13,1.4.82,2.09,2.07,2.09a2.08,2.08,0,0,0,2.09-2.09Zm0-2.07v-2.09h4.16V429Z"/><path d="M228.17,439.38h-8.34v2.09a2,2,0,0,0,.61,1.46,2,2,0,0,0,1.48.61H224a1.83,1.83,0,0,0,2.07-2.07h2.09c-.32,2.78-1.71,4.16-4.16,4.16h-4.18a4,4,0,0,1-2.93-1.22,4,4,0,0,1-1.23-2.94v-6.25a4.2,4.2,0,0,1,4.16-4.18H224a4.2,4.2,0,0,1,4.16,4.18Zm-8.34-2.09H224v-2.07a2.09,2.09,0,0,0-4.18,0Z"/><path d="M236.49,445.63h-4.16V431h4.16v4.18a5.23,5.23,0,0,1,1.29-3.13,3.9,3.9,0,0,1,2.89-1h2.07v4.18h-4.16a2,2,0,0,0-1.47.61,2,2,0,0,0-.62,1.46Z"/><path d="M263.44,439.38H255.1v2.09a2.08,2.08,0,0,0,2.09,2.07h2.09a1.83,1.83,0,0,0,2.07-2.07h2.09c-.33,2.78-1.72,4.16-4.16,4.16H255.1a4.17,4.17,0,0,1-4.16-4.16v-6.25A4.2,4.2,0,0,1,255.1,431h4.18a4.22,4.22,0,0,1,4.16,4.18Zm-8.34-2.09h4.18v-2.07a2,2,0,0,0-.62-1.47,2,2,0,0,0-1.47-.62,2.1,2.1,0,0,0-2.09,2.09Z"/><path d="M271.76,445.63H267.6V431h4.16v4.18a5.11,5.11,0,0,1,1.29-3.13,3.88,3.88,0,0,1,2.89-1H278v4.18h-4.16a2,2,0,0,0-1.48.61,2,2,0,0,0-.61,1.46Z"/><path d="M286.2,445.63V431h4.16v2.09a2.56,2.56,0,0,1,.65-1.57,2,2,0,0,1,1.44-.52h2.09a4.22,4.22,0,0,1,4.16,4.18v10.41h-4.16V435.22a2.12,2.12,0,0,0-2.09-2.09,2,2,0,0,0-1.48.62,2,2,0,0,0-.61,1.47v10.41Z"/><path d="M315.36,439.38H307v2.09a2.08,2.08,0,0,0,2.09,2.07h2.09a1.83,1.83,0,0,0,2.07-2.07h2.09c-.33,2.78-1.71,4.16-4.16,4.16H307a4,4,0,0,1-2.93-1.22,4,4,0,0,1-1.23-2.94v-6.25A4.2,4.2,0,0,1,307,431h4.18a4.22,4.22,0,0,1,4.16,4.18ZM307,437.29h4.18v-2.07a2.12,2.12,0,0,0-2.09-2.09,2,2,0,0,0-1.48.62,2,2,0,0,0-.61,1.47Z"/><path d="M332,445.63h-4.16v-2.09c-.16,1.4-.86,2.09-2.09,2.09h-2.09a4,4,0,0,1-2.93-1.22,4,4,0,0,1-1.23-2.94v-6.25a4.2,4.2,0,0,1,4.16-4.18h4.18v-4.16H332Zm-4.16-12.5h-2.09a2,2,0,0,0-1.47.62,2,2,0,0,0-.62,1.47v6.25a2.09,2.09,0,0,0,4.18,0Z"/><path d="M348.68,439.38h-8.34v2.09a2.08,2.08,0,0,0,2.09,2.07h2.09a1.83,1.83,0,0,0,2.07-2.07h2.09c-.33,2.78-1.71,4.16-4.16,4.16h-4.18a4,4,0,0,1-2.93-1.22,4,4,0,0,1-1.23-2.94v-6.25a4.2,4.2,0,0,1,4.16-4.18h4.18a4.22,4.22,0,0,1,4.16,4.18Zm-8.34-2.09h4.18v-2.07a2.09,2.09,0,0,0-4.18,0Z"/><path d="M358.94,431h4.16v2.09a2.13,2.13,0,0,1,.53-1.57,2.16,2.16,0,0,1,1.56-.52h2.09a4.2,4.2,0,0,1,4.16,4.18v6.25a4.17,4.17,0,0,1-4.16,4.16H363.1v4.16h-4.16Zm4.16,12.5h2.09a2,2,0,0,0,1.47-.61,1.94,1.94,0,0,0,.62-1.46v-6.25a2,2,0,0,0-.62-1.47,2,2,0,0,0-1.47-.61,2.1,2.1,0,0,0-2.09,2.08Z"/><path d="M383.94,437.29v-2.07a2,2,0,0,0-.62-1.47,2,2,0,0,0-1.47-.62h-2.09c-1.23,0-1.92.7-2.07,2.09H375.6c.32-2.78,1.71-4.18,4.16-4.18h4.18a4.2,4.2,0,0,1,4.16,4.18v10.41h-4.16v-2.09c-.16,1.4-.86,2.09-2.09,2.09h-2.09a4.18,4.18,0,0,1-4.16-4.16h0a4.2,4.2,0,0,1,4.16-4.17Zm-6.25-12.5a4.16,4.16,0,1,1,7.1,2.94,4.11,4.11,0,0,1-5.88,0A4,4,0,0,1,377.69,424.79Zm2.07,0a2,2,0,0,0,.61,1.48,2.09,2.09,0,0,0,3.57-1.48,2,2,0,0,0-.62-1.46,2.08,2.08,0,0,0-2.94,0A2,2,0,0,0,379.76,424.79Zm4.18,14.59h-2.09a2,2,0,0,0-1.47.62,2,2,0,0,0-.62,1.46h0a2,2,0,0,0,.61,1.46,2.09,2.09,0,0,0,3.57-1.46Z"/><path d="M410.87,445.63h-4.16v-2.09c-.17,1.4-.86,2.09-2.09,2.09h-2.09a4.17,4.17,0,0,1-4.16-4.16v-6.25a4.2,4.2,0,0,1,4.16-4.18h4.18v-4.16h4.16Zm-4.16-12.5h-2.09a2.1,2.1,0,0,0-2.09,2.09v6.25a2.09,2.09,0,0,0,3.57,1.46,2,2,0,0,0,.61-1.46Z"/><path d="M427.53,439.38h-8.34v2.09a2.08,2.08,0,0,0,2.09,2.07h2.09a1.83,1.83,0,0,0,2.07-2.07h2.09c-.33,2.78-1.71,4.16-4.16,4.16h-4.18a4.17,4.17,0,0,1-4.16-4.16v-6.25a4.2,4.2,0,0,1,4.16-4.18h4.18a4.22,4.22,0,0,1,4.16,4.18Zm-8.34-2.09h4.18v-2.07a2,2,0,0,0-.62-1.47,2,2,0,0,0-1.47-.62,2.1,2.1,0,0,0-2.09,2.09Z"/><path d="M431.69,445.63V431h4.16v2.09a2.56,2.56,0,0,1,.65-1.57,2,2,0,0,1,1.44-.52H440a4.22,4.22,0,0,1,4.16,4.18v10.41H440V435.22a2,2,0,0,0-.62-1.47,2,2,0,0,0-1.47-.62,2.1,2.1,0,0,0-2.09,2.09v10.41Z"/><path d="M454.45,445.63V426.88h4.16v18.75Z"/><path d="M467,431h4.18a4.2,4.2,0,0,1,4.16,4.18v6.25a4.18,4.18,0,0,1-4.16,4.16H467a4,4,0,0,1-2.93-1.22,4,4,0,0,1-1.23-2.94v-6.25A4.2,4.2,0,0,1,467,431Zm0,4.18v6.25a2.09,2.09,0,0,0,4.18,0v-6.25a2.09,2.09,0,0,0-4.18,0Z"/><path d="M479.45,445.63V426.88h4.16v9.38l6.25-5.22H494l-8.73,7.31,8.73,7.28h-4.18l-6.25-5.21v5.21Z"/><path d="M504.45,437.29v-2.07a2.12,2.12,0,0,0-2.09-2.09h-2.09c-1.23,0-1.92.7-2.07,2.09h-2.09c.32-2.78,1.71-4.18,4.16-4.18h4.18a4.2,4.2,0,0,1,4.16,4.18v10.41h-4.16v-2.09c-.16,1.4-.86,2.09-2.09,2.09h-2.09a4,4,0,0,1-2.93-1.22,4,4,0,0,1-1.23-2.94h0a4.2,4.2,0,0,1,4.16-4.17Zm0,2.09h-2.09a2,2,0,0,0-1.47.62,2,2,0,0,0-.62,1.46h0a2.09,2.09,0,0,0,4.18,0Z"/><path d="M512.77,445.63V426.88h4.16v18.75Z"/><path d="M533.61,439.38h-8.34v2.09a2.08,2.08,0,0,0,2.09,2.07h2.09a1.83,1.83,0,0,0,2.07-2.07h2.09c-.32,2.78-1.71,4.16-4.16,4.16h-4.18a4,4,0,0,1-2.93-1.22,4,4,0,0,1-1.23-2.94v-6.25a4.2,4.2,0,0,1,4.16-4.18h4.18a4.2,4.2,0,0,1,4.16,4.18Zm-8.34-2.09h4.18v-2.07a2.09,2.09,0,0,0-4.18,0Z"/><path d="M543.88,445.63V426.88H548v6.25a2.62,2.62,0,0,1,.64-1.57,2,2,0,0,1,1.45-.52h2.08a4.22,4.22,0,0,1,4.17,4.18v6.25a4.2,4.2,0,0,1-4.17,4.16Zm4.16-2.09h2.09a2.08,2.08,0,0,0,2.08-2.07v-6.25a2,2,0,0,0-.62-1.47,2.08,2.08,0,0,0-3.55,1.47Z"/><path d="M564.7,431h4.18a4.22,4.22,0,0,1,4.16,4.18v6.25a4.2,4.2,0,0,1-4.16,4.16H564.7a4.17,4.17,0,0,1-4.16-4.16v-6.25A4.2,4.2,0,0,1,564.7,431Zm0,4.18v6.25a2.09,2.09,0,0,0,4.18,0v-6.25a2,2,0,0,0-.63-1.47,2.08,2.08,0,0,0-3.55,1.47Z"/><path d="M589.7,445.63h-4.16v-2.09c-.17,1.4-.86,2.09-2.09,2.09h-2.09a4.17,4.17,0,0,1-4.16-4.16v-6.25a4.2,4.2,0,0,1,4.16-4.18h4.18v-4.16h4.16Zm-4.16-12.5h-2.09a2.1,2.1,0,0,0-2.09,2.09v6.25a2.09,2.09,0,0,0,4.18,0Z"/><path d="M606.36,439.38H598v2.09a2.08,2.08,0,0,0,2.09,2.07h2.09a1.83,1.83,0,0,0,2.07-2.07h2.09c-.33,2.78-1.72,4.16-4.16,4.16H598a4.17,4.17,0,0,1-4.16-4.16v-6.25A4.2,4.2,0,0,1,598,431h4.18a4.22,4.22,0,0,1,4.16,4.18ZM598,437.29h4.18v-2.07a2,2,0,0,0-.62-1.47,2,2,0,0,0-1.47-.62,2.1,2.1,0,0,0-2.09,2.09Z"/><path d="M623,431v16.68a4.22,4.22,0,0,1-4.16,4.16h-4.18c-2.46,0-3.84-1.38-4.16-4.16h2.09q.14,2.07,2.07,2.07h2.09a2,2,0,0,0,1.47-.61,2,2,0,0,0,.62-1.46v-4.18c-.17,1.4-.86,2.09-2.09,2.09h-2.09a4.17,4.17,0,0,1-4.16-4.16v-6.25a4.2,4.2,0,0,1,4.16-4.18Zm-4.16,2.09h-2.09a2.1,2.1,0,0,0-2.09,2.09v6.25a2.08,2.08,0,0,0,2.09,2.07,2.08,2.08,0,0,0,2.09-2.07Z"/><path d="M635.52,437.29v-2.07a2,2,0,0,0-.62-1.47,2,2,0,0,0-1.47-.62h-2.09c-1.23,0-1.92.7-2.07,2.09h-2.09c.32-2.78,1.7-4.18,4.16-4.18h4.18a4.22,4.22,0,0,1,4.16,4.18v10.41h-4.16v-2.09c-.17,1.4-.86,2.09-2.09,2.09h-2.09a4.17,4.17,0,0,1-4.16-4.16h0a4.2,4.2,0,0,1,4.16-4.17Zm0,2.09h-2.09A2,2,0,0,0,632,440a2,2,0,0,0-.61,1.46h0a2.08,2.08,0,0,0,2.09,2.07,2.08,2.08,0,0,0,2.09-2.07Z"/><path d="M643.84,445.63v-4.16H648v4.16Z"/><path d="M658.28,445.63V426.88h8.34a4.22,4.22,0,0,1,4.16,4.16v10.43a4.2,4.2,0,0,1-4.16,4.16Zm4.16-2.09h2.09a2.08,2.08,0,0,0,2.09-2.07V431a2,2,0,0,0-.62-1.46,2,2,0,0,0-1.47-.61h-2.09Z"/><path d="M687.44,439.38H679.1v2.09a2.08,2.08,0,0,0,2.09,2.07h2.09a1.83,1.83,0,0,0,2.07-2.07h2.09c-.33,2.78-1.71,4.16-4.16,4.16H679.1a4,4,0,0,1-2.93-1.22,4,4,0,0,1-1.23-2.94v-6.25A4.2,4.2,0,0,1,679.1,431h4.18a4.22,4.22,0,0,1,4.16,4.18Zm-8.34-2.09h4.18v-2.07a2.12,2.12,0,0,0-2.09-2.09,2,2,0,0,0-1.48.62,2,2,0,0,0-.61,1.47Z"/><path d="M697.7,445.63V426.88h4.16v6.25a2.62,2.62,0,0,1,.65-1.57A2,2,0,0,1,704,431H706a4.2,4.2,0,0,1,4.16,4.18v10.41H706V435.22a2,2,0,0,0-.62-1.47,2.09,2.09,0,0,0-3.56,1.47v10.41Z"/><path d="M722.7,437.29v-2.07a2,2,0,0,0-.62-1.47,2,2,0,0,0-1.47-.62h-2.09c-1.23,0-1.92.7-2.07,2.09h-2.09c.32-2.78,1.71-4.18,4.16-4.18h4.18a4.2,4.2,0,0,1,4.16,4.18v10.41H722.7v-2.09c-.16,1.4-.86,2.09-2.09,2.09h-2.09a4.18,4.18,0,0,1-4.16-4.16h0a4.2,4.2,0,0,1,4.16-4.17Zm0,2.09h-2.09a2,2,0,0,0-1.47.62,2,2,0,0,0-.62,1.46h0a2,2,0,0,0,.61,1.46,2.09,2.09,0,0,0,3.57-1.46Z"/><path d="M735.18,445.63H731V431h4.16v4.18a5.23,5.23,0,0,1,1.29-3.13,3.9,3.9,0,0,1,2.89-1h2.07v4.18h-4.16a2,2,0,0,0-1.47.61,2,2,0,0,0-.62,1.46Z"/><path d="M749.63,445.63V426.88h4.16v18.75Z"/><path d="M758,429v-2.09h4.16V429Zm0,16.66V431h4.16v14.59Z"/><path d="M778.81,431v16.68a4.22,4.22,0,0,1-4.16,4.16h-4.18c-2.46,0-3.84-1.38-4.16-4.16h2.09q.14,2.07,2.07,2.07h2.09a2,2,0,0,0,1.47-.61,2,2,0,0,0,.62-1.46v-4.18c-.17,1.4-.86,2.09-2.09,2.09h-2.09a4.17,4.17,0,0,1-4.16-4.16v-6.25a4.2,4.2,0,0,1,4.16-4.18Zm-4.16,2.09h-2.09a2.1,2.1,0,0,0-2.09,2.09v6.25a2.09,2.09,0,0,0,3.57,1.46,2,2,0,0,0,.61-1.46Z"/><path d="M795.47,439.38h-8.34v2.09a2.08,2.08,0,0,0,2.09,2.07h2.09a1.83,1.83,0,0,0,2.07-2.07h2.09c-.33,2.78-1.72,4.16-4.16,4.16h-4.18a4.17,4.17,0,0,1-4.16-4.16v-6.25a4.2,4.2,0,0,1,4.16-4.18h4.18a4.22,4.22,0,0,1,4.16,4.18Zm-8.34-2.09h4.18v-2.07a2,2,0,0,0-.62-1.47,2,2,0,0,0-1.47-.62,2.1,2.1,0,0,0-2.09,2.09Z"/><path d="M805.73,445.63V426.88h4.16v9.38l6.25-5.22h4.18l-8.73,7.31,8.73,7.28h-4.18l-6.25-5.21v5.21Z"/><path d="M830.73,437.29v-2.07a2.12,2.12,0,0,0-2.09-2.09h-2.09c-1.23,0-1.92.7-2.07,2.09h-2.09c.32-2.78,1.71-4.18,4.16-4.18h4.18a4.2,4.2,0,0,1,4.16,4.18v10.41h-4.16v-2.09c-.16,1.4-.86,2.09-2.09,2.09h-2.09a4,4,0,0,1-2.93-1.22,4,4,0,0,1-1.23-2.94h0a4.2,4.2,0,0,1,4.16-4.17Zm0,2.09h-2.09a2,2,0,0,0-1.47.62,2,2,0,0,0-.62,1.46h0a2.09,2.09,0,0,0,4.18,0Z"/><path d="M839.05,445.63V426.88h4.16v18.75Z"/><path d="M859.89,445.63h-4.16v-2.09c-.16,1.4-.86,2.09-2.09,2.09h-2.09a4,4,0,0,1-2.93-1.22,4,4,0,0,1-1.23-2.94v-6.25a4.2,4.2,0,0,1,4.16-4.18h4.18v-4.16h4.16Zm-4.16-12.5h-2.09a2.12,2.12,0,0,0-2.09,2.09v6.25a2.09,2.09,0,0,0,4.18,0Z"/><path d="M866.14,426.88h4.16V431h2.09v2.09H870.3v8.34A1.85,1.85,0,0,0,871,443a2,2,0,0,0,1.24.53h.19v2.09H870.3a4,4,0,0,1-2.94-1.22,4,4,0,0,1-1.22-2.94v-8.34h-2.09V431h2.09Z"/><path d="M893.06,435.22H891c-.18-1.39-.84-2.09-2-2.09a2.67,2.67,0,0,0-1.66.44,1.54,1.54,0,0,0-.56,1.29c0,.6,1,1.44,3,2.52,1.65.89,2.6,1.62,2.85,2.2a4.73,4.73,0,0,1,.37,1.87,4.17,4.17,0,0,1-4.16,4.18h-2.09c-2.77,0-4.16-1.38-4.16-4.16h2.09c.17,1.39.82,2.08,2,2.08a2.68,2.68,0,0,0,1.66-.43,1.57,1.57,0,0,0,.55-1.3c0-.59-1-1.43-3-2.52-1.66-.88-2.61-1.61-2.86-2.2a4.69,4.69,0,0,1-.38-1.86,4.2,4.2,0,0,1,4.16-4.2h2.09C891.51,431,892.9,432.44,893.06,435.22Z"/><path d="M897.24,429v-2.09h4.16V429Zm0,16.66V431h4.16v14.59Z"/><path d="M918.08,445.63h-4.16v-2.09c-.16,1.4-.86,2.09-2.09,2.09h-2.09a4.18,4.18,0,0,1-4.16-4.16v-6.25a4.2,4.2,0,0,1,4.16-4.18h4.18v-4.16h4.16Zm-4.16-12.5h-2.09a2.12,2.12,0,0,0-2.09,2.09v6.25a2,2,0,0,0,.61,1.46,2.09,2.09,0,0,0,3.57-1.46Z"/><path d="M932.65,435.22h-2.07c-.18-1.39-.84-2.09-2-2.09a2.67,2.67,0,0,0-1.66.44,1.54,1.54,0,0,0-.56,1.29c0,.6,1,1.44,3,2.52,1.65.89,2.6,1.62,2.85,2.2a4.73,4.73,0,0,1,.37,1.87,4.17,4.17,0,0,1-4.16,4.18H926.4c-2.77,0-4.16-1.38-4.16-4.16h2.09c.17,1.39.82,2.08,2,2.08a2.68,2.68,0,0,0,1.66-.43,1.57,1.57,0,0,0,.55-1.3c0-.59-1-1.43-3-2.52-1.66-.88-2.61-1.61-2.86-2.2a4.69,4.69,0,0,1-.38-1.86,4.2,4.2,0,0,1,4.16-4.2h2.09C931.1,431,932.49,432.44,932.65,435.22Z"/><path d="M938.92,426.88h4.16V431h2.09v2.09h-2.09v8.34a1.85,1.85,0,0,0,.67,1.54,2,2,0,0,0,1.23.53h.19v2.09h-2.09a4.17,4.17,0,0,1-4.16-4.16v-8.34h-2.09V431h2.09Z"/><path d="M961.83,439.38h-8.34v2.09a2,2,0,0,0,.61,1.46,2,2,0,0,0,1.48.61h2.09a1.83,1.83,0,0,0,2.07-2.07h2.09c-.32,2.78-1.71,4.16-4.16,4.16h-4.18a4.18,4.18,0,0,1-4.16-4.16v-6.25a4.2,4.2,0,0,1,4.16-4.18h4.18a4.2,4.2,0,0,1,4.16,4.18Zm-8.34-2.09h4.18v-2.07a2,2,0,0,0-.62-1.47,2.09,2.09,0,0,0-3.56,1.47Z"/><path d="M984.6,431v14.59h-4.16v-2.09c-.17,1.4-.86,2.09-2.09,2.09h-2.09a4.17,4.17,0,0,1-4.16-4.16V431h4.16v10.43a2.09,2.09,0,0,0,3.57,1.46,2,2,0,0,0,.61-1.46V431Z"/><path d="M1001.26,445.63H997.1v-2.09c-.17,1.4-.86,2.09-2.09,2.09h-2.09a4.17,4.17,0,0,1-4.16-4.16v-6.25a4.2,4.2,0,0,1,4.16-4.18h4.18v-4.16h4.16Zm-4.16-12.5H995a2.1,2.1,0,0,0-2.09,2.09v6.25a2.09,2.09,0,0,0,3.57,1.46,2,2,0,0,0,.61-1.46Z"/><path d="M1015.83,435.22h-2.07c-.18-1.39-.84-2.09-2-2.09a2.65,2.65,0,0,0-1.66.44,1.52,1.52,0,0,0-.56,1.29c0,.6,1,1.44,3,2.52,1.64.89,2.59,1.62,2.84,2.2a4.74,4.74,0,0,1,.38,1.87,4,4,0,0,1-1.23,3,4,4,0,0,1-2.93,1.22h-2.09c-2.78,0-4.16-1.38-4.16-4.16h2.09c.16,1.39.81,2.08,2,2.08a2.66,2.66,0,0,0,1.66-.43,1.58,1.58,0,0,0,.56-1.3q0-.88-3-2.52c-1.65-.88-2.6-1.61-2.86-2.2a4.68,4.68,0,0,1-.37-1.86,4,4,0,0,1,1.23-3,4,4,0,0,1,2.93-1.23h2.09C1014.27,431,1015.66,432.44,1015.83,435.22Z"/><path d="M1020,445.63V426.88h4.16v9.38l6.25-5.22h4.18l-8.73,7.31,8.73,7.28h-4.18l-6.25-5.21v5.21Z"/><path d="M1038.76,435.22h-2.09c.32-2.78,1.7-4.18,4.16-4.18H1045a4.08,4.08,0,0,0,4.16,0h4.16a4.23,4.23,0,0,1,4.18,4.18v4.16h-8.34v2.09a2.08,2.08,0,0,0,2.09,2.07h2.07a1.84,1.84,0,0,0,2.09-2.07h2.09c-.33,2.78-1.72,4.16-4.18,4.16h-4.16a4.14,4.14,0,0,0-4.16,0h-4.18a4.17,4.17,0,0,1-4.16-4.16h0a4.2,4.2,0,0,1,4.16-4.17H1045v-2.07a2,2,0,0,0-.62-1.47,2,2,0,0,0-1.47-.62h-2.09C1039.6,433.13,1038.91,433.83,1038.76,435.22Zm6.25,4.16h-2.09a2,2,0,0,0-1.48.62,2,2,0,0,0-.61,1.46h0a2.09,2.09,0,0,0,3.57,1.46,2,2,0,0,0,.61-1.46Zm4.16-2.09h4.16v-2.07a2,2,0,0,0-.62-1.47,2,2,0,0,0-1.45-.62,2.1,2.1,0,0,0-2.09,2.09Z"/><path d="M1061.67,445.63V431h4.16v2.09a2.56,2.56,0,0,1,.65-1.57,2,2,0,0,1,1.44-.52H1070a4.22,4.22,0,0,1,4.16,4.18v10.41H1070V435.22a2,2,0,0,0-.62-1.47,2,2,0,0,0-1.47-.62,2.1,2.1,0,0,0-2.09,2.09v10.41Z"/><path d="M1078.33,445.63V426.88h4.16v9.38l6.25-5.22h4.18l-8.73,7.31,8.73,7.28h-4.18l-6.25-5.21v5.21Z"/><path d="M1095,445.63V431h4.16v2.09a2.56,2.56,0,0,1,.65-1.57,2,2,0,0,1,1.44-.52h2.09a4.22,4.22,0,0,1,4.16,4.18v10.41h-4.16V435.22a2.12,2.12,0,0,0-2.09-2.09,2,2,0,0,0-1.48.62,2,2,0,0,0-.61,1.47v10.41Z"/><path d="M1111.65,429v-2.09h4.16V429Zm0,16.66V431h4.16v14.59Z"/><path d="M1120,445.63V431h4.16v2.09a2.56,2.56,0,0,1,.65-1.57,2,2,0,0,1,1.44-.52h2.09a4.22,4.22,0,0,1,4.16,4.18v10.41h-4.16V435.22a2.12,2.12,0,0,0-2.09-2.09,2,2,0,0,0-1.48.62,2,2,0,0,0-.61,1.47v10.41Z"/><path d="M1149.15,431v16.68a4.22,4.22,0,0,1-4.16,4.16h-4.18c-2.46,0-3.84-1.38-4.16-4.16h2.09q.15,2.07,2.07,2.07h2.09a2,2,0,0,0,1.47-.61,2,2,0,0,0,.62-1.46v-4.18c-.16,1.4-.86,2.09-2.09,2.09h-2.09a4.17,4.17,0,0,1-4.16-4.16v-6.25a4.2,4.2,0,0,1,4.16-4.18Zm-4.16,2.09h-2.09a2,2,0,0,0-1.48.62,2,2,0,0,0-.61,1.47v6.25a2.09,2.09,0,0,0,4.18,0Z"/><path d="M1153.31,441.47h4.16v4.16q0,3.71-4.16,4.16v-2.07a1.93,1.93,0,0,0,2.09-2.09h-2.09Z"/><path d="M90.86,465.22H88.79c-.19-1.39-.84-2.09-2-2.09a2.69,2.69,0,0,0-1.66.44,1.54,1.54,0,0,0-.55,1.29q0,.9,3,2.52c1.65.89,2.6,1.62,2.85,2.2a4.74,4.74,0,0,1,.38,1.87,4,4,0,0,1-1.23,3,4,4,0,0,1-2.93,1.22H84.61c-2.78,0-4.16-1.38-4.16-4.16h2.09c.16,1.39.81,2.08,1.95,2.08a2.66,2.66,0,0,0,1.66-.43,1.58,1.58,0,0,0,.56-1.3q0-.88-3-2.52c-1.65-.88-2.61-1.61-2.86-2.2a4.68,4.68,0,0,1-.37-1.86,4,4,0,0,1,1.23-3A4,4,0,0,1,84.61,461H86.7C89.3,461,90.69,462.44,90.86,465.22Z"/><path d="M103.38,467.29v-2.07a2,2,0,0,0-.62-1.47,2,2,0,0,0-1.47-.62H99.2c-1.23,0-1.92.7-2.07,2.09H95c.32-2.78,1.7-4.18,4.16-4.18h4.18a4.22,4.22,0,0,1,4.16,4.18v10.41h-4.16v-2.09c-.17,1.4-.86,2.09-2.09,2.09H99.2A4.17,4.17,0,0,1,95,471.47h0a4.2,4.2,0,0,1,4.16-4.17Zm-6.25-12.5a4.18,4.18,0,0,1,4.16-4.16,4.2,4.2,0,0,1,4.16,4.17,4,4,0,0,1-1.22,2.93,4.16,4.16,0,0,1-7.1-2.94Zm2.07,0a2.09,2.09,0,0,0,3.57,1.48,2,2,0,0,0,.61-1.48,2,2,0,0,0-.62-1.46,2.07,2.07,0,0,0-1.47-.61,2,2,0,0,0-1.48.61A2,2,0,0,0,99.2,454.79Zm4.18,14.59h-2.09a2,2,0,0,0-1.48.62,2,2,0,0,0-.61,1.46h0a2.09,2.09,0,0,0,3.57,1.46,2,2,0,0,0,.61-1.46Z"/><path d="M119.89,456.88h4.16V461h2.09v2.09h-2.09v8.34a1.85,1.85,0,0,0,.66,1.54,2,2,0,0,0,1.24.53h.19v2.09h-2.09a4,4,0,0,1-2.94-1.22,4,4,0,0,1-1.22-2.94v-8.34H117.8V461h2.09Z"/><path d="M130.3,459v-2.09h4.16V459Zm0,16.66V461h4.16v14.59Z"/><path d="M151.14,475.63H147v-2.09c-.16,1.4-.86,2.09-2.09,2.09H142.8a4,4,0,0,1-2.93-1.22,4,4,0,0,1-1.23-2.94v-6.25A4.2,4.2,0,0,1,142.8,461H147v-4.16h4.16ZM147,463.13h-2.09a2.12,2.12,0,0,0-2.09,2.09v6.25a2.09,2.09,0,0,0,4.18,0Z"/><path d="M167.8,469.38h-8.34v2.09a2.08,2.08,0,0,0,2.09,2.07h2.09a1.83,1.83,0,0,0,2.07-2.07h2.09c-.32,2.78-1.71,4.16-4.16,4.16h-4.18a4,4,0,0,1-2.93-1.22,4,4,0,0,1-1.23-2.94v-6.25a4.2,4.2,0,0,1,4.16-4.18h4.18a4.2,4.2,0,0,1,4.16,4.18Zm-8.34-2.09h4.18v-2.07a2.09,2.09,0,0,0-4.18,0Z"/><path d="M172,475.63V461h4.16v2.09a2.62,2.62,0,0,1,.65-1.57,2,2,0,0,1,1.44-.52h2.09a4.2,4.2,0,0,1,4.16,4.18v10.41H180.3V465.22a2.09,2.09,0,0,0-4.18,0v10.41Z"/><path d="M207.22,469.38h-8.34v2.09a2.1,2.1,0,0,0,2.09,2.07h2.09a1.83,1.83,0,0,0,2.07-2.07h2.09c-.32,2.78-1.71,4.16-4.16,4.16h-4.18a4.18,4.18,0,0,1-4.16-4.16v-6.25a4.22,4.22,0,0,1,4.16-4.18h4.18a4.2,4.2,0,0,1,4.16,4.18Zm-8.34-2.09h4.18v-2.07a2,2,0,0,0-.62-1.47,2.09,2.09,0,0,0-3.56,1.47Z"/><path d="M215.55,475.63h-4.17V461h4.17v4.18a5.17,5.17,0,0,1,1.28-3.13,3.9,3.9,0,0,1,2.89-1h2.08v4.18h-4.17a2,2,0,0,0-1.47.61,2,2,0,0,0-.61,1.46Z"/><path d="M230,475.63V456.88h4.16v9.38L240.4,461h4.18l-8.73,7.31,8.73,7.28H240.4l-6.25-5.21v5.21Z"/><path d="M246.65,475.63V461h4.16v2.09a2.56,2.56,0,0,1,.65-1.57,2,2,0,0,1,1.44-.52H255a4.22,4.22,0,0,1,4.16,4.18v10.41H255V465.22a2.12,2.12,0,0,0-2.09-2.09,2,2,0,0,0-1.48.62,2,2,0,0,0-.61,1.47v10.41Z"/><path d="M271.65,467.29v-2.07a2.12,2.12,0,0,0-2.09-2.09h-2.09c-1.23,0-1.92.7-2.07,2.09h-2.09c.32-2.78,1.7-4.18,4.16-4.18h4.18a4.22,4.22,0,0,1,4.16,4.18v10.41h-4.16v-2.09c-.16,1.4-.86,2.09-2.09,2.09h-2.09a4.17,4.17,0,0,1-4.16-4.16h0a4.2,4.2,0,0,1,4.16-4.17Zm0,2.09h-2.09a2,2,0,0,0-1.48.62,2,2,0,0,0-.61,1.46h0a2.09,2.09,0,0,0,4.18,0Z"/><path d="M280,461h4.16v2.09a2.09,2.09,0,0,1,.53-1.57,2.16,2.16,0,0,1,1.56-.52h2.09a4.22,4.22,0,0,1,4.16,4.18v6.25a4,4,0,0,1-1.23,2.94,4,4,0,0,1-2.93,1.22h-4.18v4.16H280Zm4.16,12.5h2.09a2,2,0,0,0,1.47-.61,2,2,0,0,0,.62-1.46v-6.25a2,2,0,0,0-.62-1.47,2.09,2.09,0,0,0-2.95,0,2,2,0,0,0-.61,1.47Z"/><path d="M304.82,475.63v-12.5h-2.09V461h2.09v-.18a3.82,3.82,0,0,1,1.17-2.8,3.86,3.86,0,0,1,2.81-1.18h4.34V459h-2.26a1.93,1.93,0,0,0-1.9,1.89V461h2.09v2.09H309v12.5Z"/><path d="M319.39,461h4.18a4.2,4.2,0,0,1,4.16,4.18v6.25a4.18,4.18,0,0,1-4.16,4.16h-4.18a4.18,4.18,0,0,1-4.16-4.16v-6.25a4.2,4.2,0,0,1,4.16-4.18Zm0,4.18v6.25a2,2,0,0,0,.61,1.46,2.09,2.09,0,0,0,3.57-1.46v-6.25a2,2,0,0,0-.62-1.47,2.09,2.09,0,0,0-3.56,1.47Z"/><path d="M336.05,475.63h-4.16V461h4.16v4.18a5.23,5.23,0,0,1,1.29-3.13,3.9,3.9,0,0,1,2.89-1h2.07v4.18h-4.16a2,2,0,0,0-1.47.61,2,2,0,0,0-.62,1.46Z"/><path d="M350.5,475.63V456.88h8.34A4.22,4.22,0,0,1,363,461v1.06a3.9,3.9,0,0,1-1,2.87,5.11,5.11,0,0,1-3.12,1.29,3.85,3.85,0,0,1,3.12,1.25,4.46,4.46,0,0,1,1,2.91v1.05a4.22,4.22,0,0,1-4.16,4.16Zm4.16-10.41h2.09a2.12,2.12,0,0,0,2.09-2.09V461a2,2,0,0,0-.62-1.46,2.07,2.07,0,0,0-1.47-.61h-2.09Zm0,8.32h2.09a2,2,0,0,0,1.47-.61,2,2,0,0,0,.62-1.46v-2.09a1.85,1.85,0,0,0-2.09-2.09h-2.09Z"/><path d="M379.66,469.38h-8.34v2.09a2.08,2.08,0,0,0,2.09,2.07h2.09a1.83,1.83,0,0,0,2.07-2.07h2.09c-.33,2.78-1.72,4.16-4.16,4.16h-4.18a4.17,4.17,0,0,1-4.16-4.16v-6.25a4.2,4.2,0,0,1,4.16-4.18h4.18a4.22,4.22,0,0,1,4.16,4.18Zm-8.34-2.09h4.18v-2.07a2,2,0,0,0-.62-1.47,2,2,0,0,0-1.47-.62,2.1,2.1,0,0,0-2.09,2.09Z"/><path d="M383.82,475.63V461H388v2.09a2.56,2.56,0,0,1,.65-1.57,2,2,0,0,1,1.44-.52h2.09a4.22,4.22,0,0,1,4.16,4.18v10.41h-4.16V465.22a2,2,0,0,0-.62-1.47,2,2,0,0,0-1.47-.62,2.1,2.1,0,0,0-2.09,2.09v10.41Z"/><path d="M400.48,475.63V461h4.16v2.09a2.56,2.56,0,0,1,.65-1.57,2,2,0,0,1,1.44-.52h2.09a4.22,4.22,0,0,1,4.16,4.18v10.41h-4.16V465.22a2,2,0,0,0-.62-1.47,2,2,0,0,0-1.47-.62,2.1,2.1,0,0,0-2.09,2.09v10.41Z"/><path d="M419.23,477.72q.13,2.07,2.07,2.07h2.09a2,2,0,0,0,1.47-.61,2,2,0,0,0,.62-1.46v-4.18c-.17,1.4-.86,2.09-2.09,2.09H421.3a4.17,4.17,0,0,1-4.16-4.16V461h4.16v10.43a2.09,2.09,0,0,0,3.57,1.46,2,2,0,0,0,.61-1.46V461h4.16v16.68a4.22,4.22,0,0,1-4.16,4.16H421.3c-2.46,0-3.84-1.38-4.16-4.16Z"/><path d="M442,456.88h4.16V461h2.09v2.09h-2.09v8.34a1.85,1.85,0,0,0,.66,1.54,2,2,0,0,0,1.24.53h.19v2.09h-2.09a4,4,0,0,1-2.94-1.22,4,4,0,0,1-1.22-2.94v-8.34H439.9V461H442Z"/><path d="M452.4,459v-2.09h4.16V459Zm0,16.66V461h4.16v14.59Z"/><path d="M460.74,475.63V456.88h4.16v18.75Z"/><path d="M483.52,467.29v-2.07a2,2,0,0,0-.62-1.47,2,2,0,0,0-1.47-.62h-2.09c-1.23,0-1.92.7-2.07,2.09h-2.09c.32-2.78,1.71-4.18,4.16-4.18h4.18a4.2,4.2,0,0,1,4.16,4.18v10.41h-4.16v-2.09c-.16,1.4-.86,2.09-2.09,2.09h-2.09a4.18,4.18,0,0,1-4.16-4.16h0a4.2,4.2,0,0,1,4.16-4.17Zm0,2.09h-2.09A2,2,0,0,0,480,470a2,2,0,0,0-.62,1.46h0a2,2,0,0,0,.61,1.46,2.09,2.09,0,0,0,3.57-1.46Z"/><path d="M493.93,456.88h4.16V461h2.09v2.09h-2.09v8.34a1.85,1.85,0,0,0,.67,1.54,2,2,0,0,0,1.23.53h.19v2.09h-2.09a4.17,4.17,0,0,1-4.16-4.16v-8.34h-2.09V461h2.09Z"/><path d="M512.54,475.63v-12.5h-2.09V461h2.09v-.18a4,4,0,0,1,4-4h4.35V459h-2.27a1.82,1.82,0,0,0-1.34.57,1.8,1.8,0,0,0-.55,1.32V461h2.09v2.09H516.7v12.5Z"/><path d="M531.29,467.29v-2.07a2,2,0,0,0-.62-1.47,2,2,0,0,0-1.47-.62h-2.09c-1.23,0-1.92.7-2.07,2.09H523c.32-2.78,1.7-4.18,4.16-4.18h4.18a4.22,4.22,0,0,1,4.16,4.18v10.41h-4.16v-2.09c-.17,1.4-.86,2.09-2.09,2.09h-2.09a4.17,4.17,0,0,1-4.16-4.16h0a4.2,4.2,0,0,1,4.16-4.17ZM525,454.79a4.18,4.18,0,0,1,4.16-4.16,4.2,4.2,0,0,1,4.16,4.17,4,4,0,0,1-1.22,2.93,4.16,4.16,0,0,1-7.1-2.94Zm2.07,0a2.09,2.09,0,0,0,3.57,1.48,2,2,0,0,0,.61-1.48,2,2,0,0,0-.62-1.46,2.07,2.07,0,0,0-1.47-.61,2,2,0,0,0-1.48.61A2,2,0,0,0,527.11,454.79Zm4.18,14.59H529.2a2,2,0,0,0-1.48.62,2,2,0,0,0-.61,1.46h0a2.09,2.09,0,0,0,3.57,1.46,2,2,0,0,0,.61-1.46Z"/><path d="M558.21,469.38h-8.34v2.09a2.08,2.08,0,0,0,2.09,2.07h2.09a1.83,1.83,0,0,0,2.07-2.07h2.09c-.32,2.78-1.71,4.16-4.16,4.16h-4.18a4,4,0,0,1-2.93-1.22,4,4,0,0,1-1.23-2.94v-6.25a4.2,4.2,0,0,1,4.16-4.18h4.18a4.2,4.2,0,0,1,4.16,4.18Zm-8.34-2.09h4.18v-2.07a2.09,2.09,0,0,0-4.18,0Z"/><path d="M562.37,475.63V461h4.16v2.09a2.62,2.62,0,0,1,.65-1.57,2,2,0,0,1,1.44-.52h2.09a4.2,4.2,0,0,1,4.16,4.18v10.41h-4.16V465.22a2.09,2.09,0,0,0-4.18,0v10.41Z"/><path d="M589.3,461h4.17a4.2,4.2,0,0,1,4.16,4.18v6.25a4.18,4.18,0,0,1-4.16,4.16H589.3a4.18,4.18,0,0,1-4.17-4.16v-6.25A4.22,4.22,0,0,1,589.3,461Zm0,4.18v6.25a2.09,2.09,0,0,0,4.17,0v-6.25a2,2,0,0,0-.62-1.47,2.08,2.08,0,0,0-3.55,1.47Z"/><path d="M606,475.63H601.8V461H606v4.18a5.17,5.17,0,0,1,1.28-3.13,3.9,3.9,0,0,1,2.89-1h2.08v4.18h-4.16a2,2,0,0,0-1.48.61,2,2,0,0,0-.61,1.46Z"/><path d="M626.8,475.63h-4.17v-2.09c-.16,1.4-.85,2.09-2.08,2.09h-2.09a4.17,4.17,0,0,1-4.16-4.16v-6.25a4.2,4.2,0,0,1,4.16-4.18h4.17v-4.16h4.17Zm-4.17-12.5h-2.08a2.1,2.1,0,0,0-2.09,2.09v6.25a2.09,2.09,0,0,0,4.17,0Z"/><path d="M643.46,469.38h-8.34v2.09a2.08,2.08,0,0,0,2.09,2.07h2.09a1.83,1.83,0,0,0,2.07-2.07h2.09c-.33,2.78-1.72,4.16-4.16,4.16h-4.18a4.17,4.17,0,0,1-4.16-4.16v-6.25a4.2,4.2,0,0,1,4.16-4.18h4.18a4.22,4.22,0,0,1,4.16,4.18Zm-8.34-2.09h4.18v-2.07a2,2,0,0,0-.63-1.47,2.08,2.08,0,0,0-3.55,1.47Z"/><path d="M647.62,475.63V461h4.16v2.09a2.62,2.62,0,0,1,.64-1.57,2,2,0,0,1,1.45-.52H656a4.22,4.22,0,0,1,4.16,4.18v10.41H656V465.22a2,2,0,0,0-.62-1.47,2,2,0,0,0-1.47-.62,2.1,2.1,0,0,0-2.09,2.09v10.41Z"/><path d="M666.37,456.88h4.16V461h2.09v2.09h-2.09v8.34a1.85,1.85,0,0,0,.66,1.54,2,2,0,0,0,1.23.53h.2v2.09h-2.09a4.17,4.17,0,0,1-4.16-4.16v-8.34h-2.09V461h2.09Z"/><path d="M676.78,475.63V456.88h4.16v18.75Z"/><path d="M685.12,459v-2.09h4.16V459Zm0,16.66V461h4.16v14.59Z"/><path d="M706,461v16.68a4.22,4.22,0,0,1-4.16,4.16h-4.18c-2.46,0-3.85-1.38-4.16-4.16h2.09q.13,2.07,2.07,2.07h2.09a2,2,0,0,0,1.46-.61,2,2,0,0,0,.63-1.46v-4.18c-.17,1.4-.86,2.09-2.09,2.09h-2.09a4.17,4.17,0,0,1-4.16-4.16v-6.25a4.2,4.2,0,0,1,4.16-4.18Zm-4.16,2.09h-2.09a2.1,2.1,0,0,0-2.09,2.09v6.25a2.09,2.09,0,0,0,4.18,0Z"/><path d="M716.22,475.63V456.88h4.16v6.25a2.56,2.56,0,0,1,.65-1.57,2,2,0,0,1,1.44-.52h2.09a4.22,4.22,0,0,1,4.16,4.18v6.25a4.2,4.2,0,0,1-4.16,4.16Zm4.16-2.09h2.09a2.08,2.08,0,0,0,2.09-2.07v-6.25a2.12,2.12,0,0,0-2.09-2.09,2,2,0,0,0-1.48.62,2,2,0,0,0-.61,1.47Z"/><path d="M737,475.63h-4.16V461H737v4.18a5.11,5.11,0,0,1,1.29-3.13,3.88,3.88,0,0,1,2.89-1h2.07v4.18h-4.16a2.06,2.06,0,0,0-1.48.61,2,2,0,0,0-.61,1.46Z"/><path d="M753.72,467.29v-2.07a2.12,2.12,0,0,0-2.09-2.09h-2.09c-1.23,0-1.92.7-2.07,2.09h-2.09c.32-2.78,1.71-4.18,4.16-4.18h4.18a4.22,4.22,0,0,1,4.16,4.18v10.41h-4.16v-2.09c-.16,1.4-.86,2.09-2.09,2.09h-2.09a4.17,4.17,0,0,1-4.16-4.16h0a4.2,4.2,0,0,1,4.16-4.17Zm0,2.09h-2.09a2,2,0,0,0-1.48.62,2,2,0,0,0-.61,1.46h0a2.09,2.09,0,0,0,4.18,0Z"/><path d="M762,475.63V461h4.16v2.09a2.56,2.56,0,0,1,.65-1.57,2,2,0,0,1,1.44-.52h2.09a4.22,4.22,0,0,1,4.16,4.18v10.41h-4.16V465.22a2.12,2.12,0,0,0-2.09-2.09,2,2,0,0,0-1.48.62,2,2,0,0,0-.61,1.47v10.41Z"/><path d="M791.2,475.63H787v-2.09c-.16,1.4-.86,2.09-2.09,2.09h-2.09a4.17,4.17,0,0,1-4.16-4.16v-6.25a4.2,4.2,0,0,1,4.16-4.18H787v-4.16h4.16ZM787,463.13H785a2,2,0,0,0-1.48.62,2,2,0,0,0-.61,1.47v6.25a2.09,2.09,0,0,0,4.18,0Z"/><path d="M807.86,469.38h-8.34v2.09a2.08,2.08,0,0,0,2.09,2.07h2.09a1.83,1.83,0,0,0,2.07-2.07h2.09c-.33,2.78-1.71,4.16-4.16,4.16h-4.18a4,4,0,0,1-2.93-1.22,4,4,0,0,1-1.23-2.94v-6.25a4.2,4.2,0,0,1,4.16-4.18h4.18a4.22,4.22,0,0,1,4.16,4.18Zm-8.34-2.09h4.18v-2.07a2.12,2.12,0,0,0-2.09-2.09,2,2,0,0,0-1.48.62,2,2,0,0,0-.61,1.47Z"/><path d="M816.18,475.63H812V461h4.16v4.18a5.11,5.11,0,0,1,1.29-3.13,3.9,3.9,0,0,1,2.89-1h2.07v4.18h-4.16a2,2,0,0,0-1.47.61,2,2,0,0,0-.62,1.46Z"/><path d="M826.61,456.88h4.16V461h2.09v2.09h-2.09v8.34a1.85,1.85,0,0,0,.66,1.54,2,2,0,0,0,1.23.53h.2v2.09h-2.09a4,4,0,0,1-2.94-1.22,4,4,0,0,1-1.22-2.94v-8.34h-2.09V461h2.09Z"/><path d="M855.62,461v14.59h-4.16v-2.09c-.16,1.4-.86,2.09-2.09,2.09h-2.09a4.18,4.18,0,0,1-4.16-4.16V461h4.16v10.43a2,2,0,0,0,.61,1.46,2.09,2.09,0,0,0,3.57-1.46V461Z"/><path d="M872.28,475.63h-4.16v-2.09c-.16,1.4-.86,2.09-2.09,2.09h-2.09a4.18,4.18,0,0,1-4.16-4.16v-6.25a4.2,4.2,0,0,1,4.16-4.18h4.18v-4.16h4.16Zm-4.16-12.5H866a2.12,2.12,0,0,0-2.09,2.09v6.25a2,2,0,0,0,.61,1.46,2.09,2.09,0,0,0,3.57-1.46Z"/><path d="M890.89,467.29v-2.07a2,2,0,0,0-.62-1.47,2,2,0,0,0-1.47-.62h-2.09c-1.23,0-1.92.7-2.07,2.09h-2.09c.32-2.78,1.7-4.18,4.16-4.18h4.18a4.22,4.22,0,0,1,4.16,4.18v10.41h-4.16v-2.09c-.17,1.4-.86,2.09-2.09,2.09h-2.09a4.17,4.17,0,0,1-4.16-4.16h0a4.2,4.2,0,0,1,4.16-4.17Zm0,2.09H888.8a2,2,0,0,0-1.48.62,2,2,0,0,0-.61,1.46h0a2.09,2.09,0,0,0,3.57,1.46,2,2,0,0,0,.61-1.46Z"/><path d="M901.3,475.63v-12.5h-2.09V461h2.09v-.18a4,4,0,0,1,4-4h4.35V459h-2.27a1.91,1.91,0,0,0-1.89,1.89V461h2.09v2.09h-2.09v12.5Z"/><path d="M926.15,467.29v-2.07a2.12,2.12,0,0,0-2.09-2.09H922c-1.23,0-1.92.7-2.07,2.09h-2.09c.32-2.78,1.71-4.18,4.16-4.18h4.18a4.2,4.2,0,0,1,4.16,4.18v10.41h-4.16v-2.09c-.16,1.4-.86,2.09-2.09,2.09H922a4,4,0,0,1-2.93-1.22,4,4,0,0,1-1.23-2.94h0a4.2,4.2,0,0,1,4.16-4.17Zm0,2.09h-2.09a2,2,0,0,0-1.47.62,2,2,0,0,0-.62,1.46h0a2.09,2.09,0,0,0,4.18,0Z"/><path d="M936.56,475.63v-12.5h-2.09V461h2.09v-.18a4,4,0,0,1,4-4h4.34V459h-2.26a1.93,1.93,0,0,0-1.9,1.89V461h2.09v2.09h-2.09v12.5Z"/><path d="M949.06,456.88h4.16V461h2.09v2.09h-2.09v8.34a1.85,1.85,0,0,0,.66,1.54,2,2,0,0,0,1.24.53h.19v2.09h-2.09a4,4,0,0,1-2.94-1.22,4,4,0,0,1-1.22-2.94v-8.34H947V461h2.09Z"/><path d="M972,469.38h-8.34v2.09a2.08,2.08,0,0,0,2.09,2.07h2.09a1.83,1.83,0,0,0,2.07-2.07H972c-.32,2.78-1.71,4.16-4.16,4.16h-4.18a4,4,0,0,1-2.93-1.22,4,4,0,0,1-1.23-2.94v-6.25a4.2,4.2,0,0,1,4.16-4.18h4.18a4.2,4.2,0,0,1,4.16,4.18Zm-8.34-2.09h4.18v-2.07a2.09,2.09,0,0,0-4.18,0Z"/><path d="M976.13,475.63V461h4.16v2.09a2.62,2.62,0,0,1,.65-1.57,2,2,0,0,1,1.44-.52h2.09a4.2,4.2,0,0,1,4.16,4.18v10.41h-4.16V465.22a2.09,2.09,0,0,0-4.18,0v10.41Z"/><path d="M1005.29,469.38H997v2.09a2.08,2.08,0,0,0,2.09,2.07h2.09a1.83,1.83,0,0,0,2.07-2.07h2.09c-.32,2.78-1.71,4.16-4.16,4.16H997a4,4,0,0,1-2.93-1.22,4,4,0,0,1-1.23-2.94v-6.25A4.2,4.2,0,0,1,997,461h4.18a4.2,4.2,0,0,1,4.16,4.18ZM997,467.29h4.18v-2.07a2.09,2.09,0,0,0-4.18,0Z"/><path d="M1009.45,475.63V461h4.16v2.09a2.62,2.62,0,0,1,.65-1.57,2,2,0,0,1,1.44-.52h2.09a4.2,4.2,0,0,1,4.16,4.18v10.41h-4.16V465.22a2.09,2.09,0,0,0-4.18,0v10.41Z"/><path d="M1026.11,475.63v-4.16h4.16v4.16Z"/><path d="M1040.55,475.63V456.88h4.16v8.34h4.18v-8.34h4.16v18.75h-4.16v-8.34h-4.18v8.34Z"/><path d="M1061.38,461h4.16v14.59a4.18,4.18,0,0,1-4.16,4.16h-2.09c-2.46,0-3.85-1.38-4.16-4.16h2.08c.13,1.4.82,2.09,2.08,2.09a2.1,2.1,0,0,0,2.09-2.09Zm0-2.07v-2.09h4.16V459Z"/><path d="M1071.8,465.22h-2.09c.32-2.78,1.71-4.18,4.17-4.18h4.17a4.08,4.08,0,0,0,4.16,0h4.17a4.22,4.22,0,0,1,4.17,4.18v4.16h-8.34v2.09a2.1,2.1,0,0,0,2.09,2.07h2.08a1.83,1.83,0,0,0,2.08-2.07h2.09c-.32,2.78-1.71,4.16-4.17,4.16h-4.17a4.14,4.14,0,0,0-4.16,0h-4.17a4.18,4.18,0,0,1-4.17-4.16h0a4.22,4.22,0,0,1,4.17-4.17h4.17v-2.07a2,2,0,0,0-.62-1.47,2,2,0,0,0-1.47-.62h-2.08C1072.64,463.13,1072,463.83,1071.8,465.22Zm6.25,4.16H1076a2,2,0,0,0-1.47.62,2,2,0,0,0-.61,1.46h0a2.09,2.09,0,0,0,4.17,0Zm4.16-2.09h4.17v-2.07a2,2,0,0,0-.62-1.47,2.09,2.09,0,0,0-3.55,1.47Z"/><path d="M1094.71,475.63V456.88h4.17v18.75Z"/><path d="M1103.05,461h4.16v2.09a2.13,2.13,0,0,1,.53-1.57,2.16,2.16,0,0,1,1.56-.52h2.09a4.2,4.2,0,0,1,4.16,4.18v6.25a4.17,4.17,0,0,1-4.16,4.16h-4.18v4.16h-4.16Zm4.16,12.5h2.09a2,2,0,0,0,1.47-.61,1.94,1.94,0,0,0,.62-1.46v-6.25a2,2,0,0,0-.62-1.47,2,2,0,0,0-1.47-.61,2.1,2.1,0,0,0-2.09,2.08Z"/><path d="M80.45,505.63V486.88h8.34A4.22,4.22,0,0,1,93,491v1.06a3.9,3.9,0,0,1-1,2.87,5.11,5.11,0,0,1-3.12,1.29,3.85,3.85,0,0,1,3.12,1.25,4.46,4.46,0,0,1,1,2.91v1.05a4.22,4.22,0,0,1-4.16,4.16Zm4.16-10.41H86.7a2.12,2.12,0,0,0,2.09-2.09V491a2,2,0,0,0-.62-1.46A2.07,2.07,0,0,0,86.7,489H84.61Zm0,8.32H86.7a2,2,0,0,0,1.47-.61,2,2,0,0,0,.62-1.46v-2.09a1.85,1.85,0,0,0-2.09-2.09H84.61Z"/><path d="M109.61,499.38h-8.34v2.09a2.08,2.08,0,0,0,2.09,2.07h2.09a1.83,1.83,0,0,0,2.07-2.07h2.09c-.33,2.78-1.71,4.16-4.16,4.16h-4.18a4.17,4.17,0,0,1-4.16-4.16v-6.25a4.2,4.2,0,0,1,4.16-4.18h4.18a4.22,4.22,0,0,1,4.16,4.18Zm-8.34-2.09h4.18v-2.07a2,2,0,0,0-.62-1.47,2,2,0,0,0-1.47-.62,2.1,2.1,0,0,0-2.09,2.09Z"/><path d="M113.77,505.63V491h4.16v2.09a2.56,2.56,0,0,1,.65-1.57A2,2,0,0,1,120,491h2.09a4.22,4.22,0,0,1,4.16,4.18v10.41h-4.16V495.22a2,2,0,0,0-.62-1.47,2,2,0,0,0-1.47-.62,2.1,2.1,0,0,0-2.09,2.09v10.41Z"/><path d="M130.43,505.63V491h4.16v2.09a2.56,2.56,0,0,1,.65-1.57,2,2,0,0,1,1.44-.52h2.09a4.22,4.22,0,0,1,4.16,4.18v10.41h-4.16V495.22a2,2,0,0,0-.62-1.47,2,2,0,0,0-1.47-.62,2.1,2.1,0,0,0-2.09,2.09v10.41Z"/><path d="M149.18,507.72q.15,2.07,2.07,2.07h2.09a2,2,0,0,0,1.47-.61,2,2,0,0,0,.62-1.46v-4.18c-.17,1.4-.86,2.09-2.09,2.09h-2.09a4.17,4.17,0,0,1-4.16-4.16V491h4.16v10.43a2.09,2.09,0,0,0,3.57,1.46,2,2,0,0,0,.61-1.46V491h4.16v16.68a4.22,4.22,0,0,1-4.16,4.16h-4.18c-2.46,0-3.84-1.38-4.16-4.16Z"/><path d="M169.85,505.63V486.88h8.34a4.2,4.2,0,0,1,4.16,4.16v1.06a3.9,3.9,0,0,1-1,2.87,5.06,5.06,0,0,1-3.12,1.29,3.83,3.83,0,0,1,3.12,1.25,4.46,4.46,0,0,1,1,2.91v1.05a4.2,4.2,0,0,1-4.16,4.16ZM174,495.22h2.09a2,2,0,0,0,1.47-.62,2,2,0,0,0,.62-1.47V491a2,2,0,0,0-.62-1.46,2,2,0,0,0-1.47-.61H174Zm0,8.32h2.09a2.1,2.1,0,0,0,2.09-2.07v-2.09a1.85,1.85,0,0,0-2.09-2.09H174Z"/><path d="M194.85,497.29v-2.07a2.12,2.12,0,0,0-2.09-2.09h-2.09c-1.23,0-1.92.7-2.07,2.09h-2.09c.32-2.78,1.71-4.18,4.16-4.18h4.18a4.2,4.2,0,0,1,4.16,4.18v10.41h-4.16v-2.09c-.16,1.4-.86,2.09-2.09,2.09h-2.09a4,4,0,0,1-2.93-1.22,4,4,0,0,1-1.23-2.94h0a4.2,4.2,0,0,1,4.16-4.17Zm0,2.09h-2.09a2,2,0,0,0-1.47.62,2,2,0,0,0-.62,1.46h0a2,2,0,0,0,.61,1.46,2.09,2.09,0,0,0,3.57-1.46Z"/><path d="M207.33,491h4.16v14.59a4.17,4.17,0,0,1-4.16,4.16h-2.09c-2.45,0-3.84-1.38-4.16-4.16h2.09c.13,1.4.82,2.09,2.07,2.09a2.08,2.08,0,0,0,2.09-2.09Zm0-2.07v-2.09h4.16V489Z"/><path d="M228.17,499.38h-8.34v2.09a2,2,0,0,0,.61,1.46,2,2,0,0,0,1.48.61H224a1.83,1.83,0,0,0,2.07-2.07h2.09c-.32,2.78-1.71,4.16-4.16,4.16h-4.18a4,4,0,0,1-2.93-1.22,4,4,0,0,1-1.23-2.94v-6.25a4.2,4.2,0,0,1,4.16-4.18H224a4.2,4.2,0,0,1,4.16,4.18Zm-8.34-2.09H224v-2.07a2.09,2.09,0,0,0-4.18,0Z"/><path d="M236.49,505.63h-4.16V491h4.16v4.18a5.23,5.23,0,0,1,1.29-3.13,3.9,3.9,0,0,1,2.89-1h2.07v4.18h-4.16a2,2,0,0,0-1.47.61,2,2,0,0,0-.62,1.46Z"/><path d="M263.44,505.63h-4.16V495.22a2,2,0,0,0-.62-1.47,2,2,0,0,0-1.47-.62,2.1,2.1,0,0,0-2.09,2.09v10.41h-4.16V491h4.16v2.09a2.56,2.56,0,0,1,.65-1.57,2,2,0,0,1,1.44-.52h2.09a3.52,3.52,0,0,1,3.12,1.48,3.09,3.09,0,0,1,1.27-1.11,4.41,4.41,0,0,1,1.86-.37h2.07a4.22,4.22,0,0,1,4.18,4.18v10.41H267.6V495.22a2,2,0,0,0-.62-1.47,2,2,0,0,0-1.45-.62,2.1,2.1,0,0,0-2.09,2.09Z"/><path d="M288.44,499.38H280.1v2.09a2.08,2.08,0,0,0,2.09,2.07h2.09a1.83,1.83,0,0,0,2.07-2.07h2.09c-.33,2.78-1.72,4.16-4.16,4.16H280.1a4.17,4.17,0,0,1-4.16-4.16v-6.25A4.2,4.2,0,0,1,280.1,491h4.18a4.22,4.22,0,0,1,4.16,4.18Zm-8.34-2.09h4.18v-2.07a2,2,0,0,0-.62-1.47,2,2,0,0,0-1.47-.62,2.1,2.1,0,0,0-2.09,2.09Z"/><path d="M305.1,505.63h-4.16v-2.09c-.17,1.4-.86,2.09-2.09,2.09h-2.09a4.17,4.17,0,0,1-4.16-4.16v-6.25a4.2,4.2,0,0,1,4.16-4.18h4.18v-4.16h4.16Zm-4.16-12.5h-2.09a2.1,2.1,0,0,0-2.09,2.09v6.25a2.08,2.08,0,0,0,2.09,2.07,2.08,2.08,0,0,0,2.09-2.07Z"/><path d="M323.7,497.29v-2.07a2.12,2.12,0,0,0-2.09-2.09h-2.09c-1.23,0-1.92.7-2.07,2.09h-2.09c.32-2.78,1.71-4.18,4.16-4.18h4.18a4.22,4.22,0,0,1,4.16,4.18v10.41H323.7v-2.09c-.16,1.4-.86,2.09-2.09,2.09h-2.09a4,4,0,0,1-2.93-1.22,4,4,0,0,1-1.23-2.94h0a4.2,4.2,0,0,1,4.16-4.17Zm0,2.09h-2.09a2,2,0,0,0-1.48.62,2,2,0,0,0-.61,1.46h0a2.09,2.09,0,0,0,4.18,0Z"/><path d="M334.11,486.88h4.16V491h2.09v2.09h-2.09v8.34a1.85,1.85,0,0,0,.66,1.54,2,2,0,0,0,1.23.53h.2v2.09h-2.09a4,4,0,0,1-2.94-1.22,4,4,0,0,1-1.22-2.94v-8.34H332V491h2.09Z"/><path d="M352.71,505.63v-12.5h-2.09V491h2.09v-.18a3.82,3.82,0,0,1,1.17-2.8,3.86,3.86,0,0,1,2.81-1.18H361V489h-2.26a1.93,1.93,0,0,0-1.9,1.89V491H359v2.09h-2.09v12.5Z"/><path d="M371.46,497.29v-2.07a2,2,0,0,0-.62-1.47,2,2,0,0,0-1.47-.62h-2.09c-1.23,0-1.92.7-2.07,2.09h-2.09c.32-2.78,1.71-4.18,4.16-4.18h4.18a4.2,4.2,0,0,1,4.16,4.18v10.41h-4.16v-2.09c-.16,1.4-.86,2.09-2.09,2.09h-2.09a4.18,4.18,0,0,1-4.16-4.16h0a4.2,4.2,0,0,1,4.16-4.17Zm-6.25-12.5a4.16,4.16,0,1,1,7.1,2.94,4.11,4.11,0,0,1-5.88,0A4,4,0,0,1,365.21,484.79Zm2.07,0a2,2,0,0,0,.61,1.48,2.09,2.09,0,0,0,3.57-1.48,2,2,0,0,0-.62-1.46,2.08,2.08,0,0,0-2.94,0A2,2,0,0,0,367.28,484.79Zm4.18,14.59h-2.09a2,2,0,0,0-1.47.62,2,2,0,0,0-.62,1.46h0a2,2,0,0,0,.61,1.46,2.09,2.09,0,0,0,3.57-1.46Z"/><path d="M390.05,505.63V491H388V489l4.17-2.09h2.08v18.75Z"/><path d="M406.71,486.88h4.18a4.22,4.22,0,0,1,4.16,4.16v10.43a4.2,4.2,0,0,1-4.16,4.16h-4.18a4.17,4.17,0,0,1-4.16-4.16V491a4.18,4.18,0,0,1,4.16-4.16Zm4.14,3.81A2,2,0,0,0,408.8,489a2,2,0,0,0-1.48.61,2,2,0,0,0-.61,1.46v7.09Zm-4.09,11.11a2.16,2.16,0,0,0,.66,1.31,2.07,2.07,0,0,0,1.38.43,2,2,0,0,0,1.48-.61,2,2,0,0,0,.61-1.46v-7.08Z"/><path d="M437.81,491l-1,1.45a4.73,4.73,0,0,1,1,2.73v6.25a4.18,4.18,0,0,1-4.16,4.16h-4.18a4.42,4.42,0,0,1-1.8-.4l-.27.4h-2.09l1-1.42a4.73,4.73,0,0,1-1-2.74v-6.25a4.2,4.2,0,0,1,4.16-4.18h4.18a4.22,4.22,0,0,1,1.79.42l.28-.42Zm-8.34,8.77,3.95-5.53a2.15,2.15,0,0,0-1.86-1.15,2.12,2.12,0,0,0-2.09,2.09Zm4.18-2.93-3.95,5.53a2.14,2.14,0,0,0,1.86,1.13,2.1,2.1,0,0,0,2.09-2.07Z"/><path d="M442,505.63V486.88h4.16v18.75Z"/><path d="M456.41,491h4.16v2.09a2.13,2.13,0,0,1,.53-1.57,2.16,2.16,0,0,1,1.56-.52h2.09a4.2,4.2,0,0,1,4.16,4.18v6.25a4.17,4.17,0,0,1-4.16,4.16h-4.18v4.16h-4.16Zm4.16,12.5h2.09a2,2,0,0,0,1.47-.61,1.94,1.94,0,0,0,.62-1.46v-6.25a2,2,0,0,0-.62-1.47,2,2,0,0,0-1.47-.61,2.1,2.1,0,0,0-2.09,2.08Z"/><path d="M477.23,491h4.18a4.2,4.2,0,0,1,4.16,4.18v6.25a4.18,4.18,0,0,1-4.16,4.16h-4.18a4.18,4.18,0,0,1-4.16-4.16v-6.25a4.2,4.2,0,0,1,4.16-4.18Zm0,4.18v6.25a2.08,2.08,0,0,0,2.09,2.07,2.08,2.08,0,0,0,2.09-2.07v-6.25a2,2,0,0,0-.62-1.47,2.09,2.09,0,0,0-3.56,1.47Z"/><path d="M489.73,489v-2.09h4.16V489Zm0,16.66V491h4.16v14.59Z"/><path d="M498.07,505.63V491h4.16v2.09a2.68,2.68,0,0,1,.65-1.57,2,2,0,0,1,1.44-.52h2.09a4.2,4.2,0,0,1,4.16,4.18v10.41h-4.16V495.22a2,2,0,0,0-.62-1.47,2.09,2.09,0,0,0-3.56,1.47v10.41Z"/><path d="M516.82,486.88H521V491h2.09v2.09H521v8.34a1.85,1.85,0,0,0,.67,1.54,2,2,0,0,0,1.23.53h.19v2.09H521a4,4,0,0,1-2.93-1.22,4,4,0,0,1-1.23-2.94v-8.34h-2.09V491h2.09Z"/><path d="M537.64,495.22h-2.07c-.18-1.39-.84-2.09-2-2.09a2.67,2.67,0,0,0-1.66.44,1.54,1.54,0,0,0-.56,1.29c0,.6,1,1.44,3,2.52,1.65.89,2.6,1.62,2.85,2.2a4.73,4.73,0,0,1,.37,1.87,4.17,4.17,0,0,1-4.16,4.18h-2.09c-2.77,0-4.16-1.38-4.16-4.16h2.09c.17,1.39.82,2.08,2,2.08a2.68,2.68,0,0,0,1.66-.43,1.57,1.57,0,0,0,.55-1.3c0-.59-1-1.43-3-2.52-1.66-.88-2.61-1.61-2.86-2.2a4.69,4.69,0,0,1-.38-1.86,4.2,4.2,0,0,1,4.16-4.2h2.09C536.09,491,537.48,492.44,537.64,495.22Z"/><path d="M541.82,501.47H546v4.16c0,2.47-1.38,3.86-4.16,4.16v-2.07a1.93,1.93,0,0,0,2.09-2.09h-2.09Z"/><path d="M562.66,505.63H558.5V495.22a2,2,0,0,0-.62-1.47,2.09,2.09,0,0,0-3.56,1.47v10.41h-4.16V491h4.16v2.09a2.68,2.68,0,0,1,.65-1.57,2,2,0,0,1,1.44-.52h2.09a3.53,3.53,0,0,1,3.13,1.48,3,3,0,0,1,1.27-1.11,4.39,4.39,0,0,1,1.85-.37h2.07a4.2,4.2,0,0,1,4.18,4.18v10.41h-4.18V495.22a2,2,0,0,0-.61-1.47,2.09,2.09,0,0,0-3.55,1.47Z"/><path d="M587.66,499.38h-8.34v2.09a2.08,2.08,0,0,0,2.09,2.07h2.09a1.83,1.83,0,0,0,2.07-2.07h2.09c-.32,2.78-1.71,4.16-4.16,4.16h-4.18a4.18,4.18,0,0,1-4.16-4.16v-6.25a4.2,4.2,0,0,1,4.16-4.18h4.18a4.2,4.2,0,0,1,4.16,4.18Zm-8.34-2.09h4.18v-2.07a2,2,0,0,0-.62-1.47,2.09,2.09,0,0,0-3.56,1.47Z"/><path d="M591.82,505.63V491H596v2.09a2.68,2.68,0,0,1,.65-1.57,2,2,0,0,1,1.44-.52h2.09a4.2,4.2,0,0,1,4.16,4.18v10.41h-4.16V495.22a2,2,0,0,0-.62-1.47,2.09,2.09,0,0,0-3.56,1.47v10.41Z"/><path d="M614.59,491h4.16v2.09a2.09,2.09,0,0,1,.53-1.57,2.16,2.16,0,0,1,1.56-.52h2.09a4.22,4.22,0,0,1,4.16,4.18v6.25a4,4,0,0,1-1.23,2.94,4,4,0,0,1-2.93,1.22h-4.18v4.16h-4.16Zm4.16,12.5h2.09a2,2,0,0,0,1.47-.61,2,2,0,0,0,.62-1.46v-6.25a2,2,0,0,0-.62-1.47,2.07,2.07,0,0,0-1.47-.61,2.08,2.08,0,0,0-2.09,2.08Z"/><path d="M639.59,497.29v-2.07a2,2,0,0,0-.62-1.47,2,2,0,0,0-1.47-.62h-2.09c-1.23,0-1.92.7-2.07,2.09h-2.09c.32-2.78,1.7-4.18,4.16-4.18h4.18a4.22,4.22,0,0,1,4.16,4.18v10.41h-4.16v-2.09c-.17,1.4-.86,2.09-2.09,2.09h-2.09a4.17,4.17,0,0,1-4.16-4.16h0a4.2,4.2,0,0,1,4.16-4.17Zm0,2.09H637.5A2,2,0,0,0,636,500a2,2,0,0,0-.61,1.46h0a2.09,2.09,0,0,0,3.57,1.46,2,2,0,0,0,.61-1.46Z"/><path d="M658.32,495.22h-2.07c-.18-1.39-.84-2.09-2-2.09a2.65,2.65,0,0,0-1.66.44,1.52,1.52,0,0,0-.56,1.29c0,.6,1,1.44,3,2.52,1.64.89,2.59,1.62,2.84,2.2a4.74,4.74,0,0,1,.38,1.87,4,4,0,0,1-1.23,3,4,4,0,0,1-2.93,1.22h-2.09c-2.77,0-4.16-1.38-4.16-4.16H650c.16,1.39.81,2.08,2,2.08a2.66,2.66,0,0,0,1.66-.43,1.58,1.58,0,0,0,.56-1.3q0-.88-3-2.52c-1.65-.88-2.6-1.61-2.86-2.2a4.68,4.68,0,0,1-.37-1.86,4,4,0,0,1,1.23-3,4,4,0,0,1,2.93-1.23h2.09C656.76,491,658.15,492.44,658.32,495.22Z"/><path d="M668.6,491h4.16v2.09a2.13,2.13,0,0,1,.53-1.57,2.16,2.16,0,0,1,1.56-.52h2.09a4.2,4.2,0,0,1,4.16,4.18v6.25a4.17,4.17,0,0,1-4.16,4.16h-4.18v4.16H668.6Zm4.16,12.5h2.09a2,2,0,0,0,1.47-.61,2,2,0,0,0,.62-1.46v-6.25a2,2,0,0,0-.62-1.47,2,2,0,0,0-1.47-.61,2.1,2.1,0,0,0-2.09,2.08Z"/><path d="M693.6,497.29v-2.07a2.12,2.12,0,0,0-2.09-2.09h-2.09c-1.23,0-1.92.7-2.07,2.09h-2.09c.32-2.78,1.71-4.18,4.16-4.18h4.18a4.2,4.2,0,0,1,4.16,4.18v10.41H693.6v-2.09c-.16,1.4-.86,2.09-2.09,2.09h-2.09a4,4,0,0,1-2.93-1.22,4,4,0,0,1-1.23-2.94h0a4.2,4.2,0,0,1,4.16-4.17Zm-6.25-12.5a4.16,4.16,0,1,1,7.1,2.94,4.11,4.11,0,0,1-5.88,0A4,4,0,0,1,687.35,484.79Zm2.07,0a2,2,0,0,0,.61,1.48,2.08,2.08,0,1,0,3-2.94,2.08,2.08,0,0,0-2.94,0A2,2,0,0,0,689.42,484.79Zm4.18,14.59h-2.09A2,2,0,0,0,690,500a2,2,0,0,0-.62,1.46h0a2,2,0,0,0,.61,1.46,2.09,2.09,0,0,0,3.57-1.46Z"/><path d="M718.44,495.22h-2.07c-.19-1.39-.84-2.09-2-2.09a2.67,2.67,0,0,0-1.66.44,1.54,1.54,0,0,0-.55,1.29q0,.9,3,2.52c1.65.89,2.6,1.62,2.85,2.2a4.74,4.74,0,0,1,.38,1.87,4,4,0,0,1-1.23,3,4,4,0,0,1-2.93,1.22h-2.09c-2.78,0-4.16-1.38-4.16-4.16h2.09c.16,1.39.81,2.08,2,2.08a2.68,2.68,0,0,0,1.66-.43,1.58,1.58,0,0,0,.56-1.3q0-.88-3-2.52c-1.66-.88-2.61-1.61-2.86-2.2a4.68,4.68,0,0,1-.37-1.86,4,4,0,0,1,1.23-3,4,4,0,0,1,2.93-1.23h2.09C716.88,491,718.27,492.44,718.44,495.22Z"/><path d="M731,497.29v-2.07a2,2,0,0,0-.62-1.47,2,2,0,0,0-1.47-.62h-2.09c-1.23,0-1.93.7-2.07,2.09h-2.09c.31-2.78,1.7-4.18,4.16-4.18H731a4.22,4.22,0,0,1,4.16,4.18v10.41H731v-2.09c-.17,1.4-.86,2.09-2.09,2.09h-2.09a4.17,4.17,0,0,1-4.16-4.16h0a4.2,4.2,0,0,1,4.16-4.17Zm0,2.09h-2.09a2,2,0,0,0-1.48.62,2,2,0,0,0-.61,1.46h0a2.09,2.09,0,0,0,4.18,0Z"/><path d="M741.37,505.63v-12.5h-2.09V491h2.09v-.18a4,4,0,0,1,4-4h4.35V489h-2.27a1.91,1.91,0,0,0-1.89,1.89V491h2.09v2.09h-2.09v12.5Z"/><path d="M753.87,486.88H758V491h2.09v2.09H758v8.34a1.85,1.85,0,0,0,.66,1.54,2,2,0,0,0,1.23.53h.2v2.09H758a4.17,4.17,0,0,1-4.16-4.16v-8.34h-2.09V491h2.09Z"/><path d="M776.78,499.38h-8.34v2.09a2.08,2.08,0,0,0,2.09,2.07h2.09a1.83,1.83,0,0,0,2.07-2.07h2.09c-.33,2.78-1.72,4.16-4.16,4.16h-4.18a4.17,4.17,0,0,1-4.16-4.16v-6.25a4.2,4.2,0,0,1,4.16-4.18h4.18a4.22,4.22,0,0,1,4.16,4.18Zm-8.34-2.09h4.18v-2.07a2,2,0,0,0-.62-1.47,2,2,0,0,0-1.47-.62,2.1,2.1,0,0,0-2.09,2.09Z"/><path d="M780.94,505.63V491h4.16v2.09a2.56,2.56,0,0,1,.65-1.57,2,2,0,0,1,1.44-.52h2.09a4.22,4.22,0,0,1,4.16,4.18v10.41h-4.16V495.22a2,2,0,0,0-.62-1.47,2,2,0,0,0-1.47-.62,2.1,2.1,0,0,0-2.09,2.09v10.41Z"/><path d="M807.86,491H812a4.22,4.22,0,0,1,4.16,4.18v6.25a4.2,4.2,0,0,1-4.16,4.16h-4.18a4.17,4.17,0,0,1-4.16-4.16v-6.25a4.2,4.2,0,0,1,4.16-4.18Zm0,4.18v6.25a2.09,2.09,0,0,0,4.18,0v-6.25a2.12,2.12,0,0,0-2.09-2.09,2,2,0,0,0-1.48.62A2,2,0,0,0,807.86,495.22Z"/><path d="M832.86,491v16.68a4.22,4.22,0,0,1-4.16,4.16h-4.18c-2.45,0-3.84-1.38-4.16-4.16h2.09q.15,2.07,2.07,2.07h2.09a2,2,0,0,0,1.47-.61,2,2,0,0,0,.62-1.46v-4.18c-.16,1.4-.86,2.09-2.09,2.09h-2.09a4,4,0,0,1-2.93-1.22,4,4,0,0,1-1.23-2.94v-6.25a4.2,4.2,0,0,1,4.16-4.18Zm-4.16,2.09h-2.09a2,2,0,0,0-1.48.62,2,2,0,0,0-.61,1.47v6.25a2.09,2.09,0,0,0,4.18,0Z"/><path d="M843.12,505.63V486.88h4.16v9.38l6.25-5.22h4.18L849,498.35l8.73,7.28h-4.18l-6.25-5.21v5.21Z"/><path d="M868.12,497.29v-2.07a2,2,0,0,0-.62-1.47,2,2,0,0,0-1.47-.62h-2.09c-1.23,0-1.92.7-2.07,2.09h-2.09c.32-2.78,1.71-4.18,4.16-4.18h4.18a4.2,4.2,0,0,1,4.16,4.18v10.41h-4.16v-2.09c-.16,1.4-.86,2.09-2.09,2.09h-2.09a4.18,4.18,0,0,1-4.16-4.16h0a4.2,4.2,0,0,1,4.16-4.17Zm0,2.09H866a2,2,0,0,0-1.47.62,2,2,0,0,0-.62,1.46h0a2,2,0,0,0,.61,1.46,2.09,2.09,0,0,0,3.57-1.46Z"/><path d="M878.53,505.63v-12.5h-2.09V491h2.09v-.18a3.79,3.79,0,0,1,1.18-2.8,3.82,3.82,0,0,1,2.8-1.18h4.34V489h-2.26a1.93,1.93,0,0,0-1.9,1.89V491h2.09v2.09h-2.09v12.5Z"/><path d="M891,505.63v-12.5h-2.09V491H891v-.18a3.79,3.79,0,0,1,1.18-2.8,3.82,3.82,0,0,1,2.8-1.18h4.34V489h-2.26a1.93,1.93,0,0,0-1.9,1.89V491h2.09v2.09h-2.09v12.5Z"/><path d="M913.94,499.38H905.6v2.09a2,2,0,0,0,.61,1.46,2,2,0,0,0,1.48.61h2.09a1.83,1.83,0,0,0,2.07-2.07h2.09c-.32,2.78-1.71,4.16-4.16,4.16H905.6a4.18,4.18,0,0,1-4.16-4.16v-6.25A4.2,4.2,0,0,1,905.6,491h4.18a4.2,4.2,0,0,1,4.16,4.18Zm-8.34-2.09h4.18v-2.07a2,2,0,0,0-.62-1.47,2.09,2.09,0,0,0-3.56,1.47Z"/><path d="M918.1,505.63V491h4.16v2.09a2.62,2.62,0,0,1,.65-1.57,2,2,0,0,1,1.44-.52h2.09a4.2,4.2,0,0,1,4.16,4.18v10.41h-4.16V495.22a2,2,0,0,0-.62-1.47,2.09,2.09,0,0,0-3.56,1.47v10.41Z"/><path d="M953.37,505.63h-4.16v-2.09c-.17,1.4-.86,2.09-2.09,2.09H945a4.17,4.17,0,0,1-4.16-4.16v-6.25A4.2,4.2,0,0,1,945,491h4.18v-4.16h4.16Zm-4.16-12.5h-2.09a2.1,2.1,0,0,0-2.09,2.09v6.25a2.09,2.09,0,0,0,3.57,1.46,2,2,0,0,0,.61-1.46Z"/><path d="M965.87,497.29v-2.07a2,2,0,0,0-.62-1.47,2,2,0,0,0-1.47-.62h-2.09c-1.23,0-1.92.7-2.07,2.09h-2.09c.32-2.78,1.7-4.18,4.16-4.18h4.18a4.22,4.22,0,0,1,4.16,4.18v10.41h-4.16v-2.09c-.17,1.4-.86,2.09-2.09,2.09h-2.09a4.17,4.17,0,0,1-4.16-4.16h0a4.2,4.2,0,0,1,4.16-4.17Zm0,2.09h-2.09a2,2,0,0,0-1.48.62,2,2,0,0,0-.61,1.46h0a2.09,2.09,0,0,0,3.57,1.46,2,2,0,0,0,.61-1.46Z"/><path d="M992.79,505.63h-4.16v-2.09c-.16,1.4-.86,2.09-2.09,2.09h-2.09a4,4,0,0,1-2.93-1.22,4,4,0,0,1-1.23-2.94v-6.25a4.2,4.2,0,0,1,4.16-4.18h4.18v-4.16h4.16Zm-4.16-12.5h-2.09a2.12,2.12,0,0,0-2.09,2.09v6.25a2.09,2.09,0,0,0,4.18,0Z"/><path d="M1009.45,499.38h-8.34v2.09a2.08,2.08,0,0,0,2.09,2.07h2.09a1.83,1.83,0,0,0,2.07-2.07h2.09c-.32,2.78-1.71,4.16-4.16,4.16h-4.18a4,4,0,0,1-2.93-1.22,4,4,0,0,1-1.23-2.94v-6.25a4.2,4.2,0,0,1,4.16-4.18h4.18a4.2,4.2,0,0,1,4.16,4.18Zm-8.34-2.09h4.18v-2.07a2.09,2.09,0,0,0-4.18,0Z"/><path d="M1013.61,505.63V491h4.16v2.09a2.62,2.62,0,0,1,.65-1.57,2,2,0,0,1,1.44-.52H1022a4.2,4.2,0,0,1,4.16,4.18v10.41H1022V495.22a2.09,2.09,0,0,0-4.18,0v10.41Z"/><path d="M1048.88,491l-1,1.45a4.75,4.75,0,0,1,1,2.73v6.25a4.2,4.2,0,0,1-4.17,4.16h-4.17a4.35,4.35,0,0,1-1.8-.4l-.28.4h-2.08l1-1.42a4.79,4.79,0,0,1-1-2.74v-6.25a4.2,4.2,0,0,1,4.16-4.18h4.17a4.18,4.18,0,0,1,1.79.42l.29-.42Zm-8.34,8.77,3.94-5.53a2.14,2.14,0,0,0-1.85-1.15,2.1,2.1,0,0,0-2.09,2.09Zm4.17-2.93-4,5.53a2.16,2.16,0,0,0,1.87,1.13,2,2,0,0,0,1.46-.61,2,2,0,0,0,.62-1.46Z"/><path d="M1065.54,505.63h-4.16v-2.09c-.17,1.4-.86,2.09-2.09,2.09h-2.09a4.17,4.17,0,0,1-4.16-4.16v-6.25a4.2,4.2,0,0,1,4.16-4.18h4.18v-4.16h4.16Zm-4.16-12.5h-2.09a2.1,2.1,0,0,0-2.09,2.09v6.25a2.09,2.09,0,0,0,4.18,0Z"/><path d="M1082.2,499.38h-8.34v2.09a2.08,2.08,0,0,0,2.09,2.07H1078a1.83,1.83,0,0,0,2.07-2.07h2.09c-.33,2.78-1.72,4.16-4.16,4.16h-4.18a4.17,4.17,0,0,1-4.16-4.16v-6.25a4.2,4.2,0,0,1,4.16-4.18H1078a4.22,4.22,0,0,1,4.16,4.18Zm-8.34-2.09H1078v-2.07a2,2,0,0,0-.62-1.47,2,2,0,0,0-1.47-.62,2.1,2.1,0,0,0-2.09,2.09Z"/><path d="M1086.36,505.63V486.88h4.16v18.75Z"/><path d="M1096.79,495.22h-2.09c.31-2.78,1.7-4.18,4.16-4.18H1103a4.08,4.08,0,0,0,4.16,0h4.16a4.23,4.23,0,0,1,4.18,4.18v4.16h-8.34v2.09a2.08,2.08,0,0,0,2.09,2.07h2.07a1.84,1.84,0,0,0,2.09-2.07h2.09c-.33,2.78-1.72,4.16-4.18,4.16h-4.16a4.14,4.14,0,0,0-4.16,0h-4.18a4.17,4.17,0,0,1-4.16-4.16h0a4.2,4.2,0,0,1,4.16-4.17H1103v-2.07a2,2,0,0,0-.62-1.47,2,2,0,0,0-1.47-.62h-2.09C1097.63,493.13,1096.93,493.83,1096.79,495.22Zm6.25,4.16H1101a2,2,0,0,0-1.48.62,2,2,0,0,0-.61,1.46h0a2.09,2.09,0,0,0,4.18,0Zm4.16-2.09h4.16v-2.07a2,2,0,0,0-.62-1.47,2.08,2.08,0,0,0-3.54,1.47Z"/><path d="M1132.2,491v16.68a4.22,4.22,0,0,1-4.16,4.16h-4.18c-2.46,0-3.85-1.38-4.16-4.16h2.09q.14,2.07,2.07,2.07H1126a2,2,0,0,0,1.47-.61,2,2,0,0,0,.62-1.46v-4.18c-.17,1.4-.86,2.09-2.09,2.09h-2.09a4.17,4.17,0,0,1-4.16-4.16v-6.25a4.2,4.2,0,0,1,4.16-4.18Zm-4.16,2.09H1126a2.1,2.1,0,0,0-2.09,2.09v6.25a2.09,2.09,0,0,0,4.18,0Z"/><path d="M1136.36,499.38v-2.09h10.41v2.09Z"/><path d="M93,521v16.68a4.22,4.22,0,0,1-4.16,4.16H84.61c-2.46,0-3.84-1.38-4.16-4.16h2.09c.09,1.38.79,2.07,2.07,2.07H86.7a2,2,0,0,0,1.47-.61,2,2,0,0,0,.62-1.46v-4.18c-.17,1.4-.86,2.09-2.09,2.09H84.61a4.17,4.17,0,0,1-4.16-4.16v-6.25A4.2,4.2,0,0,1,84.61,521Zm-4.16,2.09H86.7a2.1,2.1,0,0,0-2.09,2.09v6.25a2.09,2.09,0,0,0,3.57,1.46,2,2,0,0,0,.61-1.46Z"/><path d="M109.61,529.38h-8.34v2.09a2.08,2.08,0,0,0,2.09,2.07h2.09a1.83,1.83,0,0,0,2.07-2.07h2.09c-.33,2.78-1.71,4.16-4.16,4.16h-4.18a4.17,4.17,0,0,1-4.16-4.16v-6.25a4.2,4.2,0,0,1,4.16-4.18h4.18a4.22,4.22,0,0,1,4.16,4.18Zm-8.34-2.09h4.18v-2.07a2,2,0,0,0-.62-1.47,2,2,0,0,0-1.47-.62,2.1,2.1,0,0,0-2.09,2.09Z"/><path d="M117.93,535.63h-4.16V521h4.16v4.18a5.11,5.11,0,0,1,1.29-3.13,3.88,3.88,0,0,1,2.89-1.05h2.07v4.18H120a2,2,0,0,0-1.48.61,2,2,0,0,0-.61,1.46Z"/><path d="M132.37,535.63V516.88h4.16v6.25a2.62,2.62,0,0,1,.65-1.57,2,2,0,0,1,1.44-.52h2.09a4.2,4.2,0,0,1,4.16,4.18v10.41h-4.16V525.22a2.09,2.09,0,0,0-4.18,0v10.41Z"/><path d="M157.37,527.29v-2.07a2.12,2.12,0,0,0-2.09-2.09h-2.09c-1.23,0-1.92.7-2.07,2.09H149c.32-2.78,1.71-4.18,4.16-4.18h4.18a4.2,4.2,0,0,1,4.16,4.18v10.41h-4.16v-2.09c-.16,1.4-.86,2.09-2.09,2.09h-2.09a4,4,0,0,1-2.93-1.22,4,4,0,0,1-1.23-2.94h0a4.2,4.2,0,0,1,4.16-4.17Zm0,2.09h-2.09a2,2,0,0,0-1.47.62,2,2,0,0,0-.62,1.46h0a2.09,2.09,0,0,0,4.18,0Z"/><path d="M165.69,535.63V521h4.16v2.09a2.62,2.62,0,0,1,.65-1.57,2,2,0,0,1,1.44-.52H174a4.2,4.2,0,0,1,4.16,4.18v10.41H174V525.22a2.09,2.09,0,0,0-4.18,0v10.41Z"/><path d="M192.76,525.22h-2.07c-.18-1.39-.84-2.09-2-2.09a2.65,2.65,0,0,0-1.66.44,1.54,1.54,0,0,0-.56,1.29c0,.6,1,1.44,3,2.52,1.65.89,2.59,1.62,2.85,2.2a4.73,4.73,0,0,1,.37,1.87,4.07,4.07,0,0,1-1.22,3,4,4,0,0,1-2.94,1.22h-2.09c-2.77,0-4.16-1.38-4.16-4.16h2.09c.16,1.39.81,2.08,1.95,2.08a2.66,2.66,0,0,0,1.66-.43,1.55,1.55,0,0,0,.56-1.3q0-.89-3-2.52c-1.65-.88-2.6-1.61-2.85-2.2a4.69,4.69,0,0,1-.38-1.86,4,4,0,0,1,1.23-3,4,4,0,0,1,2.93-1.23h2.09C191.21,521,192.59,522.44,192.76,525.22Z"/><path d="M203.05,535.63V516.88h4.16v6.25a2.62,2.62,0,0,1,.64-1.57,2,2,0,0,1,1.45-.52h2.08a4.22,4.22,0,0,1,4.17,4.18v6.25a4.2,4.2,0,0,1-4.17,4.16Zm4.16-2.09h2.09a2.08,2.08,0,0,0,2.08-2.07v-6.25a2,2,0,0,0-.62-1.47,2.08,2.08,0,0,0-3.55,1.47Z"/><path d="M223.87,535.63h-4.16V521h4.16v4.18a5.17,5.17,0,0,1,1.28-3.13,3.91,3.91,0,0,1,2.9-1.05h2.07v4.18H226a2,2,0,0,0-1.48.61,2,2,0,0,0-.61,1.46Z"/><path d="M240.55,527.29v-2.07a2,2,0,0,0-.63-1.47,2,2,0,0,0-1.46-.62h-2.09c-1.24,0-1.93.7-2.07,2.09h-2.09c.31-2.78,1.7-4.18,4.16-4.18h4.18a4.22,4.22,0,0,1,4.16,4.18v10.41h-4.16v-2.09c-.17,1.4-.86,2.09-2.09,2.09h-2.09a4.17,4.17,0,0,1-4.16-4.16h0a4.2,4.2,0,0,1,4.16-4.17Zm0,2.09h-2.09A2,2,0,0,0,237,530a2,2,0,0,0-.61,1.46h0a2.09,2.09,0,0,0,4.18,0Z"/><path d="M248.87,535.63V521H253v2.09a2.62,2.62,0,0,1,.64-1.57,2,2,0,0,1,1.45-.52h2.09a4.22,4.22,0,0,1,4.16,4.18v10.41h-4.16V525.22a2,2,0,0,0-.62-1.47,2,2,0,0,0-1.47-.62,2.1,2.1,0,0,0-2.09,2.09v10.41Z"/><path d="M278,535.63h-4.16v-2.09c-.17,1.4-.86,2.09-2.09,2.09h-2.09a4.17,4.17,0,0,1-4.16-4.16v-6.25a4.2,4.2,0,0,1,4.16-4.18h4.18v-4.16H278Zm-4.16-12.5h-2.09a2.1,2.1,0,0,0-2.09,2.09v6.25a2.09,2.09,0,0,0,4.18,0Z"/><path d="M294.69,529.38h-8.34v2.09a2.08,2.08,0,0,0,2.09,2.07h2.09a1.83,1.83,0,0,0,2.07-2.07h2.09c-.33,2.78-1.72,4.16-4.16,4.16h-4.18a4.17,4.17,0,0,1-4.16-4.16v-6.25a4.2,4.2,0,0,1,4.16-4.18h4.18a4.22,4.22,0,0,1,4.16,4.18Zm-8.34-2.09h4.18v-2.07a2,2,0,0,0-.62-1.47,2,2,0,0,0-1.47-.62,2.1,2.1,0,0,0-2.09,2.09Z"/><path d="M303,535.63h-4.16V521H303v4.18a5.11,5.11,0,0,1,1.29-3.13,3.88,3.88,0,0,1,2.89-1.05h2.07v4.18H305.1a2,2,0,0,0-1.48.61,2,2,0,0,0-.61,1.46Z"/><path d="M313.44,516.88h4.16V521h2.09v2.09H317.6v8.34a1.85,1.85,0,0,0,.66,1.54,2,2,0,0,0,1.23.53h.2v2.09H317.6a4.17,4.17,0,0,1-4.16-4.16v-8.34h-2.09V521h2.09Z"/><path d="M323.85,535.63v-4.16H328v4.16Z"/><path d="M338.29,535.63l.89-1.59a4.72,4.72,0,0,1-.89-2.57V521a4.18,4.18,0,0,1,4.16-4.16h4.18a4.3,4.3,0,0,1,1.83.43l.24-.43h2.09l-.89,1.61a4.66,4.66,0,0,1,.89,2.55v10.43a4.2,4.2,0,0,1-4.16,4.16h-4.18a4.58,4.58,0,0,1-1.85-.42l-.22.42Zm8.3-14.94a2,2,0,0,0-2-1.72,2.06,2.06,0,0,0-1.48.61,2,2,0,0,0-.61,1.46v7.09ZM342.5,531.8a1.89,1.89,0,0,0,2,1.74,2.08,2.08,0,0,0,2.09-2.07v-7.08Z"/><path d="M355,535.63V516.88h4.16v18.75Z"/><path d="M381.89,521v16.68a4.2,4.2,0,0,1-4.16,4.16h-4.18c-2.45,0-3.84-1.38-4.16-4.16h2.09q.15,2.07,2.07,2.07h2.09a2,2,0,0,0,1.47-.61,1.94,1.94,0,0,0,.62-1.46v-4.18c-.16,1.4-.86,2.09-2.09,2.09h-2.09a4.18,4.18,0,0,1-4.16-4.16v-6.25a4.2,4.2,0,0,1,4.16-4.18Zm-4.16,2.09h-2.09a2.12,2.12,0,0,0-2.09,2.09v6.25a2,2,0,0,0,.61,1.46,2.09,2.09,0,0,0,3.57-1.46Z"/><path d="M386.05,519v-2.09h4.16V519Zm0,16.66V521h4.16v14.59Z"/><path d="M402.73,521h4.16v7.48a7.15,7.15,0,0,1-7.12,7.11h-5.38V521h4.16v12.5h2.09a2.08,2.08,0,0,0,2.09-2.07Z"/><path d="M423.55,529.38h-8.34v2.09a2,2,0,0,0,.61,1.46,2,2,0,0,0,1.48.61h2.09a1.83,1.83,0,0,0,2.07-2.07h2.09c-.32,2.78-1.71,4.16-4.16,4.16h-4.18a4.18,4.18,0,0,1-4.16-4.16v-6.25a4.2,4.2,0,0,1,4.16-4.18h4.18a4.2,4.2,0,0,1,4.16,4.18Zm-8.34-2.09h4.18v-2.07a2,2,0,0,0-.62-1.47,2.09,2.09,0,0,0-3.56,1.47Z"/><path d="M431.87,535.63h-4.16V521h4.16v4.18a5.23,5.23,0,0,1,1.29-3.13,3.9,3.9,0,0,1,2.89-1.05h2.07v4.18H434a2,2,0,0,0-1.47.61,2,2,0,0,0-.62,1.46Z"/><path d="M450.48,535.63V521h-2.09V519l4.17-2.09h2.08v18.75Z"/><path d="M469.08,521h4.16v2.09a2.13,2.13,0,0,1,.53-1.57,2.16,2.16,0,0,1,1.56-.52h2.09a4.22,4.22,0,0,1,4.16,4.18v6.25a4,4,0,0,1-1.23,2.94,4,4,0,0,1-2.93,1.22h-4.18v4.16h-4.16Zm4.16,12.5h2.09a2,2,0,0,0,1.47-.61,2,2,0,0,0,.62-1.46v-6.25a2,2,0,0,0-.62-1.47,2,2,0,0,0-1.47-.61,2.1,2.1,0,0,0-2.09,2.08Z"/><path d="M489.9,521h4.18a4.22,4.22,0,0,1,4.16,4.18v6.25a4.2,4.2,0,0,1-4.16,4.16H489.9a4,4,0,0,1-2.93-1.22,4,4,0,0,1-1.23-2.94v-6.25A4.2,4.2,0,0,1,489.9,521Zm0,4.18v6.25a2.09,2.09,0,0,0,4.18,0v-6.25a2.09,2.09,0,0,0-4.18,0Z"/><path d="M502.4,519v-2.09h4.16V519Zm0,16.66V521h4.16v14.59Z"/><path d="M510.74,535.63V521h4.16v2.09a2.62,2.62,0,0,1,.65-1.57A2,2,0,0,1,517,521h2.09a4.22,4.22,0,0,1,4.16,4.18v10.41h-4.16V525.22a2.09,2.09,0,0,0-4.18,0v10.41Z"/><path d="M529.49,516.88h4.16V521h2.09v2.09h-2.09v8.34a1.85,1.85,0,0,0,.66,1.54,2,2,0,0,0,1.24.53h.19v2.09h-2.09a4,4,0,0,1-2.94-1.22,4,4,0,0,1-1.22-2.94v-8.34H527.4V521h2.09Z"/><path d="M539.9,531.47h4.16v4.16q0,3.71-4.16,4.16v-2.07a1.93,1.93,0,0,0,2.09-2.09H539.9Z"/><path d="M564.75,521h-2.07c-.18-1.39-.84-2.08-2-2.08a2.32,2.32,0,0,0-1.65.52,2.07,2.07,0,0,0-.56,1.57,2.17,2.17,0,0,0,.62,1.47l4.41,5a4.31,4.31,0,0,1,1.22,2.94v1.05a4.18,4.18,0,0,1-4.16,4.16H558.5a3.69,3.69,0,0,1-4.16-4.16h2.09c0,.15,0,.26,0,.35a1.47,1.47,0,0,0,.66,1.29,2.5,2.5,0,0,0,1.43.43,2.08,2.08,0,0,0,1.61-.53,2.28,2.28,0,0,0,.48-1.56A2.14,2.14,0,0,0,560,530L555.56,525a4.36,4.36,0,0,1-1.22-2.94V521a4.2,4.2,0,0,1,4.16-4.16h2.09Q564.51,516.88,564.75,521Z"/><path d="M577.27,527.29v-2.07a2,2,0,0,0-.62-1.47,2,2,0,0,0-1.47-.62h-2.09c-1.23,0-1.92.7-2.07,2.09h-2.09c.32-2.78,1.71-4.18,4.16-4.18h4.18a4.2,4.2,0,0,1,4.16,4.18v10.41h-4.16v-2.09c-.16,1.4-.86,2.09-2.09,2.09h-2.09a4.18,4.18,0,0,1-4.16-4.16h0a4.2,4.2,0,0,1,4.16-4.17Zm0,2.09h-2.09a2,2,0,0,0-1.47.62,2,2,0,0,0-.62,1.46h0a2,2,0,0,0,.61,1.46,2.09,2.09,0,0,0,3.57-1.46Z"/><path d="M587.68,535.63v-12.5h-2.09V521h2.09v-.18a3.79,3.79,0,0,1,1.18-2.8,3.82,3.82,0,0,1,2.8-1.18H596V519h-2.26a1.93,1.93,0,0,0-1.9,1.89V521h2.09v2.09h-2.09v12.5Z"/><path d="M600.18,516.88h4.16V521h2.09v2.09h-2.09v8.34A1.85,1.85,0,0,0,605,533a2,2,0,0,0,1.23.53h.19v2.09h-2.09a4.17,4.17,0,0,1-4.16-4.16v-8.34h-2.09V521h2.09Z"/><path d="M618.79,516.88H623V521H625v2.09H623v8.34a1.85,1.85,0,0,0,.66,1.54,2,2,0,0,0,1.23.53h.2v2.09H623a4.17,4.17,0,0,1-4.16-4.16v-8.34H616.7V521h2.09Z"/><path d="M637.54,527.29v-2.07a2,2,0,0,0-.62-1.47,2,2,0,0,0-1.47-.62h-2.09c-1.23,0-1.92.7-2.07,2.09H629.2c.32-2.78,1.7-4.18,4.16-4.18h4.18a4.22,4.22,0,0,1,4.16,4.18v10.41h-4.16v-2.09c-.17,1.4-.86,2.09-2.09,2.09h-2.09a4.17,4.17,0,0,1-4.16-4.16h0a4.2,4.2,0,0,1,4.16-4.17Zm0,2.09h-2.09A2,2,0,0,0,634,530a2,2,0,0,0-.61,1.46h0a2.09,2.09,0,0,0,3.57,1.46,2,2,0,0,0,.61-1.46Z"/><path d="M658.36,521v16.68a4.22,4.22,0,0,1-4.16,4.16H650c-2.46,0-3.84-1.38-4.16-4.16H648q.15,2.07,2.07,2.07h2.09a2,2,0,0,0,1.47-.61,2,2,0,0,0,.62-1.46v-4.18c-.17,1.4-.86,2.09-2.09,2.09H650a4.17,4.17,0,0,1-4.16-4.16v-6.25A4.2,4.2,0,0,1,650,521Zm-4.16,2.09h-2.09a2.1,2.1,0,0,0-2.09,2.09v6.25a2.09,2.09,0,0,0,3.57,1.46,2,2,0,0,0,.61-1.46Z"/><path d="M675,529.38h-8.34v2.09a2.08,2.08,0,0,0,2.09,2.07h2.09a1.83,1.83,0,0,0,2.07-2.07H675c-.33,2.78-1.71,4.16-4.16,4.16h-4.18a4.17,4.17,0,0,1-4.16-4.16v-6.25a4.2,4.2,0,0,1,4.16-4.18h4.18a4.22,4.22,0,0,1,4.16,4.18Zm-8.34-2.09h4.18v-2.07a2,2,0,0,0-.62-1.47,2,2,0,0,0-1.47-.62,2.1,2.1,0,0,0-2.09,2.09Z"/><path d="M683.34,535.63h-4.16V521h4.16v4.18a5.11,5.11,0,0,1,1.29-3.13,3.88,3.88,0,0,1,2.89-1.05h2.07v4.18h-4.16a2,2,0,0,0-1.48.61,2,2,0,0,0-.61,1.46Z"/><path d="M699.87,521h-2.09c.33-2.77,1.71-4.16,4.16-4.16h4.18a4.2,4.2,0,0,1,4.16,4.16v1.06c0,1.44-1.34,3.3-4,5.6l-.28.24c-2.68,2.3-4,4.1-4,5.42v.18h8.34v2.09h-12.5v-2.09q0-2.14,4-5.6l.29-.24c2.69-2.3,4-4.16,4-5.6V521a2,2,0,0,0-.62-1.46A2.07,2.07,0,0,0,704,519h-2.09C700.66,519,700,519.67,699.87,521Z"/><path d="M720.55,521h4.16v2.09a2.13,2.13,0,0,1,.52-1.57,2.17,2.17,0,0,1,1.57-.52h2.08a4.22,4.22,0,0,1,4.17,4.18v6.25a4.18,4.18,0,0,1-4.17,4.16h-4.17v4.16h-4.16Zm4.16,12.5h2.09a2,2,0,0,0,1.46-.61,1.94,1.94,0,0,0,.62-1.46v-6.25a2,2,0,0,0-.62-1.47,2,2,0,0,0-1.46-.61,2.08,2.08,0,0,0-2.09,2.08Z"/><path d="M741.37,521h4.18a4.22,4.22,0,0,1,4.16,4.18v6.25a4.2,4.2,0,0,1-4.16,4.16h-4.18a4.17,4.17,0,0,1-4.16-4.16v-6.25a4.2,4.2,0,0,1,4.16-4.18Zm0,4.18v6.25a2.09,2.09,0,0,0,4.18,0v-6.25a2,2,0,0,0-.63-1.47,2.08,2.08,0,0,0-3.55,1.47Z"/><path d="M753.87,519v-2.09H758V519Zm0,16.66V521H758v14.59Z"/><path d="M762.21,535.63V521h4.16v2.09a2.62,2.62,0,0,1,.64-1.57,2,2,0,0,1,1.45-.52h2.09a4.22,4.22,0,0,1,4.16,4.18v10.41h-4.16V525.22a2,2,0,0,0-.63-1.47,2.08,2.08,0,0,0-3.55,1.47v10.41Z"/><path d="M781,516.88h4.16V521h2.09v2.09h-2.09v8.34a1.85,1.85,0,0,0,.66,1.54,2,2,0,0,0,1.23.53h.2v2.09h-2.09a4.17,4.17,0,0,1-4.16-4.16v-8.34h-2.09V521H781Z"/><path d="M801.78,525.22h-2.07c-.19-1.39-.84-2.09-2-2.09a2.67,2.67,0,0,0-1.66.44,1.54,1.54,0,0,0-.55,1.29q0,.9,3,2.52c1.65.89,2.6,1.62,2.85,2.2a4.74,4.74,0,0,1,.38,1.87,4,4,0,0,1-1.23,3,4,4,0,0,1-2.93,1.22h-2.09c-2.78,0-4.16-1.38-4.16-4.16h2.09c.16,1.39.81,2.08,1.95,2.08a2.68,2.68,0,0,0,1.66-.43,1.58,1.58,0,0,0,.56-1.3q0-.89-3-2.52c-1.66-.88-2.61-1.61-2.86-2.2a4.68,4.68,0,0,1-.37-1.86,4,4,0,0,1,1.23-3,4,4,0,0,1,2.93-1.23h2.09C800.22,521,801.61,522.44,801.78,525.22Z"/><path d="M816.22,521h4.18a4.22,4.22,0,0,1,4.16,4.18v6.25a4.2,4.2,0,0,1-4.16,4.16h-4.18a4.17,4.17,0,0,1-4.16-4.16v-6.25a4.2,4.2,0,0,1,4.16-4.18Zm0,4.18v6.25a2.09,2.09,0,0,0,4.18,0v-6.25a2.12,2.12,0,0,0-2.09-2.09,2,2,0,0,0-1.48.62A2,2,0,0,0,816.22,525.22Z"/><path d="M841.22,521v16.68a4.22,4.22,0,0,1-4.16,4.16h-4.18c-2.46,0-3.84-1.38-4.16-4.16h2.09q.15,2.07,2.07,2.07H835a2,2,0,0,0,1.47-.61,2,2,0,0,0,.62-1.46v-4.18c-.16,1.4-.86,2.09-2.09,2.09h-2.09a4.17,4.17,0,0,1-4.16-4.16v-6.25a4.2,4.2,0,0,1,4.16-4.18Zm-4.16,2.09H835a2,2,0,0,0-1.48.62,2,2,0,0,0-.61,1.47v6.25a2.09,2.09,0,0,0,4.18,0Z"/><path d="M864,529.38h-8.34v2.09a2,2,0,0,0,.61,1.46,2,2,0,0,0,1.48.61h2.09a1.83,1.83,0,0,0,2.07-2.07H864c-.32,2.78-1.71,4.16-4.16,4.16h-4.18a4.18,4.18,0,0,1-4.16-4.16v-6.25a4.2,4.2,0,0,1,4.16-4.18h4.18a4.2,4.2,0,0,1,4.16,4.18Zm-8.34-2.09h4.18v-2.07a2,2,0,0,0-.62-1.47,2.09,2.09,0,0,0-3.56,1.47Z"/><path d="M870.23,516.88h4.16V521h2.09v2.09h-2.09v8.34a1.82,1.82,0,0,0,.67,1.54,2,2,0,0,0,1.23.53h.19v2.09h-2.09a4.17,4.17,0,0,1-4.16-4.16v-8.34h-2.09V521h2.09Z"/><path d="M886.75,535.63V516.88h4.16v18.75Z"/><path d="M895.09,519v-2.09h4.16V519Zm0,16.66V521h4.16v14.59Z"/><path d="M911.77,521h4.16v7.48a7.17,7.17,0,0,1-7.12,7.11h-5.38V521h4.16v12.5h2.09a2.08,2.08,0,0,0,2.09-2.07Z"/><path d="M930.35,521h4.18a4.22,4.22,0,0,1,4.16,4.18v6.25a4.2,4.2,0,0,1-4.16,4.16h-4.18a4,4,0,0,1-2.93-1.22,4,4,0,0,1-1.23-2.94v-6.25a4.2,4.2,0,0,1,4.16-4.18Zm0,4.18v6.25a2.09,2.09,0,0,0,4.18,0v-6.25a2.12,2.12,0,0,0-2.09-2.09,2,2,0,0,0-1.48.62A2,2,0,0,0,930.35,525.22Z"/><path d="M955.35,521v16.68a4.22,4.22,0,0,1-4.16,4.16H947c-2.45,0-3.84-1.38-4.16-4.16h2.09q.15,2.07,2.07,2.07h2.09a2,2,0,0,0,1.47-.61,2,2,0,0,0,.62-1.46v-4.18c-.16,1.4-.86,2.09-2.09,2.09H947a4,4,0,0,1-2.93-1.22,4,4,0,0,1-1.23-2.94v-6.25A4.2,4.2,0,0,1,947,521Zm-4.16,2.09H949.1a2,2,0,0,0-1.47.62,2,2,0,0,0-.62,1.47v6.25a2.09,2.09,0,0,0,4.18,0Z"/><path d="M965.61,535.63V516.88h4.16v7.66l6.74-7.66h3.69l-8.34,9.38,8.34,9.37H976l-6.25-7.28v7.28Z"/><path d="M992.7,527.29v-2.07a2,2,0,0,0-.62-1.47,2,2,0,0,0-1.47-.62h-2.09c-1.23,0-1.92.7-2.07,2.09h-2.09c.32-2.78,1.71-4.18,4.16-4.18h4.18a4.2,4.2,0,0,1,4.16,4.18v10.41H992.7v-2.09c-.16,1.4-.86,2.09-2.09,2.09h-2.09a4.18,4.18,0,0,1-4.16-4.16h0a4.2,4.2,0,0,1,4.16-4.17Zm0,2.09h-2.09a2,2,0,0,0-1.47.62,2,2,0,0,0-.62,1.46h0a2,2,0,0,0,.61,1.46,2.09,2.09,0,0,0,3.57-1.46Z"/><path d="M1003.11,535.63v-12.5H1001V521h2.09v-.18a3.79,3.79,0,0,1,1.18-2.8,3.82,3.82,0,0,1,2.8-1.18h4.34V519h-2.26a1.93,1.93,0,0,0-1.9,1.89V521h2.09v2.09h-2.09v12.5Z"/><path d="M1015.61,535.63v-12.5h-2.09V521h2.09v-.18a3.79,3.79,0,0,1,1.18-2.8,3.82,3.82,0,0,1,2.8-1.18h4.34V519h-2.26a1.93,1.93,0,0,0-1.9,1.89V521h2.09v2.09h-2.09v12.5Z"/><path d="M1038.52,529.38h-8.34v2.09a2,2,0,0,0,.61,1.46,2,2,0,0,0,1.48.61h2.09a1.83,1.83,0,0,0,2.07-2.07h2.09c-.32,2.78-1.71,4.16-4.16,4.16h-4.18a4.18,4.18,0,0,1-4.16-4.16v-6.25a4.2,4.2,0,0,1,4.16-4.18h4.18a4.2,4.2,0,0,1,4.16,4.18Zm-8.34-2.09h4.18v-2.07a2,2,0,0,0-.62-1.47,2.09,2.09,0,0,0-3.56,1.47Z"/><path d="M1042.68,535.63V521h4.16v2.09a2.62,2.62,0,0,1,.65-1.57,2,2,0,0,1,1.44-.52H1051a4.2,4.2,0,0,1,4.16,4.18v10.41H1051V525.22a2,2,0,0,0-.62-1.47,2.09,2.09,0,0,0-3.56,1.47v10.41Z"/><path d="M1067.54,516.88h4.16V521h2.09v2.09h-2.09v8.34a1.85,1.85,0,0,0,.66,1.54,2,2,0,0,0,1.23.53h.2v2.09h-2.09a4.17,4.17,0,0,1-4.16-4.16v-8.34h-2.09V521h2.09Z"/><path d="M1086.29,527.29v-2.07a2,2,0,0,0-.62-1.47,2,2,0,0,0-1.47-.62h-2.09c-1.23,0-1.92.7-2.07,2.09H1078c.32-2.78,1.7-4.18,4.16-4.18h4.18a4.22,4.22,0,0,1,4.16,4.18v10.41h-4.16v-2.09c-.17,1.4-.86,2.09-2.09,2.09h-2.09a4.17,4.17,0,0,1-4.16-4.16h0a4.2,4.2,0,0,1,4.16-4.17Zm0,2.09h-2.09a2,2,0,0,0-1.48.62,2,2,0,0,0-.61,1.46h0a2.09,2.09,0,0,0,3.57,1.46,2,2,0,0,0,.61-1.46Z"/><path d="M1107.11,521v16.68a4.22,4.22,0,0,1-4.16,4.16h-4.18c-2.46,0-3.84-1.38-4.16-4.16h2.09q.15,2.07,2.07,2.07h2.09a2,2,0,0,0,1.47-.61,2,2,0,0,0,.62-1.46v-4.18c-.17,1.4-.86,2.09-2.09,2.09h-2.09a4.17,4.17,0,0,1-4.16-4.16v-6.25a4.2,4.2,0,0,1,4.16-4.18Zm-4.16,2.09h-2.09a2.1,2.1,0,0,0-2.09,2.09v6.25a2.09,2.09,0,0,0,3.57,1.46,2,2,0,0,0,.61-1.46Z"/><path d="M1123.77,529.38h-8.34v2.09a2.08,2.08,0,0,0,2.09,2.07h2.09a1.83,1.83,0,0,0,2.07-2.07h2.09c-.33,2.78-1.71,4.16-4.16,4.16h-4.18a4.17,4.17,0,0,1-4.16-4.16v-6.25a4.2,4.2,0,0,1,4.16-4.18h4.18a4.22,4.22,0,0,1,4.16,4.18Zm-8.34-2.09h4.18v-2.07a2,2,0,0,0-.62-1.47,2,2,0,0,0-1.47-.62,2.1,2.1,0,0,0-2.09,2.09Z"/><path d="M1132.09,535.63h-4.16V521h4.16v4.18a5.11,5.11,0,0,1,1.29-3.13,3.88,3.88,0,0,1,2.89-1.05h2.07v4.18h-4.16a2,2,0,0,0-1.48.61,2,2,0,0,0-.61,1.46Z"/><path d="M88.79,557.29v-2.07a2,2,0,0,0-.62-1.47,2,2,0,0,0-1.47-.62H84.61c-1.23,0-1.92.7-2.07,2.09H80.45c.32-2.78,1.7-4.18,4.16-4.18h4.18A4.22,4.22,0,0,1,93,555.22v10.41H88.79v-2.09c-.17,1.4-.86,2.09-2.09,2.09H84.61a4.17,4.17,0,0,1-4.16-4.16h0a4.2,4.2,0,0,1,4.16-4.17Zm0,2.09H86.7a2,2,0,0,0-1.48.62,2,2,0,0,0-.61,1.46h0a2.09,2.09,0,0,0,3.57,1.46,2,2,0,0,0,.61-1.46Z"/><path d="M97.11,565.63V546.88h4.16v18.75Z"/><path d="M107.54,546.88h4.16V551h2.09v2.09H111.7v8.34a1.85,1.85,0,0,0,.66,1.54,2,2,0,0,0,1.23.53h.2v2.09H111.7a4.17,4.17,0,0,1-4.16-4.16v-8.34h-2.09V551h2.09Z"/><path d="M136.55,565.63h-4.16v-2.09c-.16,1.4-.86,2.09-2.09,2.09h-2.09a4,4,0,0,1-2.93-1.22,4,4,0,0,1-1.23-2.94v-6.25a4.2,4.2,0,0,1,4.16-4.18h4.18v-4.16h4.16Zm-4.16-12.5H130.3a2.12,2.12,0,0,0-2.09,2.09v6.25a2.09,2.09,0,0,0,4.18,0Z"/><path d="M140.71,549v-2.09h4.16V549Zm0,16.66V551h4.16v14.59Z"/><path d="M151.14,546.88h4.16V551h2.09v2.09H155.3v8.34A1.85,1.85,0,0,0,156,563a2,2,0,0,0,1.24.53h.19v2.09H155.3a4,4,0,0,1-2.94-1.22,4,4,0,0,1-1.22-2.94v-8.34h-2.09V551h2.09Z"/><path d="M167.65,565.63V546.88h4.16v18.75Z"/><path d="M176,549v-2.09h4.16V549Zm0,16.66V551h4.16v14.59Z"/><path d="M192.67,551h4.16v7.48a7.15,7.15,0,0,1-7.12,7.11h-5.38V551h4.16v12.5h2.09a2.08,2.08,0,0,0,2.09-2.07Z"/><path d="M201,565.63v-4.16h4.16v4.16Z"/></svg>
