<svg id="Layer_1" data-name="Layer 1" xmlns="http://www.w3.org/2000/svg" width="1230" height="680" viewBox="0 0 1230 680"><defs><style>.cls-1{fill:#38682b;opacity:0.8;}.cls-2{fill:#d6af85;}.cls-3{fill:#f9f9f9;}.cls-4{fill:#c19613;}.cls-5{fill:#8c061d;}.cls-6{fill:#be765f;}.cls-7{fill:#141611;}.cls-8{fill:none;stroke:#fcee21;stroke-linecap:round;stroke-miterlimit:10;stroke-width:15px;}.cls-9{fill:#fcfcfc;}.cls-10{fill:#132459;}.cls-11{fill:#0f0e0e;}.cls-12{fill:#020202;opacity:0.1;}.cls-13{fill:#f9f906;}</style></defs><title>tillykke</title><rect class="cls-1" x="4.56" y="1" width="1221" height="678" rx="12"/><ellipse class="cls-2" cx="640.57" cy="286.02" rx="84" ry="108.63"/><path d="M586.15,352.2c7.68-.77,17.29-8.11,28.81-8.38a5.63,5.63,0,0,0,5.21-3.64c.08-.26.15-.53.22-.79.64-2.19-1.14-4.31-3.77-4.18-13.74.74-25.57,9.19-35.49,8.87-1.9,0-2.09,1.41-.6,3.6l.52.78C582.52,350.62,584.73,352.41,586.15,352.2Z"/><path d="M669.32,351.39c-8.86-4.22-19.93-.87-33.21-5.67a12.19,12.19,0,0,1-6-6c-.08-.26-.17-.51-.25-.77-.74-2.13,1.32-2.72,4.34-1.9,15.85,4.26,29.48-.37,40.91,5.11,2.19,1,2.4,3.94.69,6.07l-.6.8C673.49,351.16,671,352.11,669.32,351.39Z"/><path d="M646.36,366.64c-3.12,7.51-7.33,18.17-22.66,18.54-15.33-.37-19.55-11-22.66-18.54-1.56-4-3.13-8.39.39-12.54,3.2-4,11.49-7.81,22.27-7.7,10.78-.11,19.07,3.69,22.27,7.7C649.49,358.25,647.92,362.61,646.36,366.64Z"/><rect class="cls-3" x="627.46" y="346.34" width="4.3" height="6.23" rx="1.95"/><rect class="cls-4" x="623.16" y="346.12" width="4.3" height="6.23" rx="1.95"/><rect class="cls-3" x="618.86" y="346.12" width="4.3" height="6.23" rx="1.95"/><rect class="cls-3" x="610.27" y="347.41" width="4.3" height="6.23" rx="1.95"/><rect class="cls-3" x="635.84" y="348.7" width="4.3" height="6.23" rx="1.95"/><rect class="cls-3" x="631.54" y="347.41" width="4.3" height="6.23" rx="1.95"/><rect class="cls-3" x="605.97" y="348.7" width="4.3" height="6.23" rx="1.95"/><rect class="cls-3" x="601.68" y="351.06" width="4.3" height="6.23" rx="1.95"/><path class="cls-5" d="M603.18,389c1.76,8.12,7.77,14,13.43,10.38S628.28,388,630,379.21c1.76-9.29-4.25-16-13.43-10.37S601.42,381.41,603.18,389Z"/><path class="cls-6" d="M620.76,315C600,315,560,317.35,557,328.3c-4.47,16.37,64.14,18.71,82.84,9.76"/><path class="cls-7" d="M628.79,340.44a4.94,4.94,0,0,1,9.46-2.85"/><path class="cls-2" d="M561.91,330.51c-.75-1,.56-3.23,2.92-5.07s4.89-2.54,5.64-1.58-2.23.94-4.6,2.78S562.66,331.48,561.91,330.51Z"/><path d="M548.23,259.49h24c1.67,0,5.56-16,5.56-17.68l3.79-30.57c0-1.67,1.66,0,0,0l-11.62,3c-1.67,0-5.56,7.43-5.56,9.09L550,252.16C550,253.83,546.56,259.49,548.23,259.49Z"/><path d="M723.55,265.55H693.24a3,3,0,0,1-3-3V217.3a3,3,0,0,1,3-3l12.88,6.06c1.67,0,9.86,6.42,9.86,8.09l5.81,29.81C721.79,259.89,725.22,265.55,723.55,265.55Z"/><path class="cls-6" d="M568.19,254.94c-1.52,11.67-6.73,24-11.62,24.51s-10.11-9.1-11.63-24.51c-1.52-11.66,3.68-24,11.63-24.5S569.71,239.54,568.19,254.94Z"/><path class="cls-6" d="M724.56,261c-1.52,11.66-6.73,24-11.62,24.5s-10.09-9.1-11.62-24.5c-1.52-11.67,3.68-24,11.62-24.51S726.09,245.6,724.56,261Z"/><path class="cls-2" d="M721.79,258.32c-1,7.86-4.54,16.17-7.84,16.52s-6.8-6.14-7.83-16.52c-1-7.86,2.48-16.17,7.83-16.51S722.81,247.94,721.79,258.32Z"/><path class="cls-2" d="M564.4,255c-1,7.85-4.54,16.17-7.83,16.51s-6.81-6.13-7.84-16.51c-1-7.86,2.48-16.18,7.84-16.52S565.42,244.66,564.4,255Z"/><path class="cls-8" d="M721.91,272.5c4.8,6.57,1.77,16.93-5.3,19.2-4.6,1.48-8.85-7.12-8.85-12.63"/><ellipse class="cls-9" cx="597.88" cy="283.51" rx="19.83" ry="31.45"/><ellipse class="cls-9" cx="635.53" cy="281.49" rx="19.83" ry="31.45"/><path class="cls-6" d="M617.72,283.51c0,17.37-13.3-2.15-24.26-2.15s-15.41,19.52-15.41,2.15,8.88-31.46,19.83-31.46S617.72,266.14,617.72,283.51Z"/><path class="cls-6" d="M655.36,281.49c0,17.37-14.57-.13-25.52-.13s-14.15,17.5-14.15.13S624.57,250,635.53,250,655.36,264.11,655.36,281.49Z"/><circle class="cls-7" cx="593.72" cy="293.49" r="6.06"/><circle class="cls-7" cx="629.59" cy="293.49" r="6.06"/><path class="cls-10" d="M652.07,306.24c0,3.7-7.35,6.7-16.42,6.7s-16.42-3-16.42-6.7,7.1,1.9,16.17,1.9S652.07,302.55,652.07,306.24Z"/><path class="cls-10" d="M614.18,308.77c0,3.7-7.35,6.69-16.42,6.69s-16.42-3-16.42-6.69,7.1,1.89,16.17,1.89S614.18,305.07,614.18,308.77Z"/><circle class="cls-9" cx="590.43" cy="291.21" r="0.51"/><circle class="cls-9" cx="626.3" cy="291.21" r="0.51"/><path class="cls-2" d="M623.65,264.45c-.95-1.22.71-4.1,3.71-6.43s6.19-3.23,7.14-2-2.83,1.2-5.83,3.53S624.6,265.68,623.65,264.45Z"/><path class="cls-2" d="M586,266.48c-1-1.23.71-4.11,3.7-6.44s6.2-3.23,7.15-2-2.83,1.19-5.83,3.52S587,267.7,586,266.48Z"/><polyline class="cls-11" points="614.96 185.47 601.07 177.9 617.49 175.62 612.18 165.77 628.1 172.59 630.88 164 638.96 172.59 648.56 165.26 652.6 176.88 665.74 171.07 664.48 190.53"/><path class="cls-12" d="M589,243.7c-7,1.67,16.78-10.83,34.5-11.46s27.22,7.07,32.56,11.95c5.1,4.66-14.44-10.24-32.17-9.61S597.28,241.72,589,243.7Z"/><path class="cls-12" d="M595.41,233c-5.94,1.42,14.19-9.15,29.17-9.68s23,6,27.52,10.1c4.32,3.94-12.21-8.66-27.19-8.13S602.45,231.35,595.41,233Z"/><path class="cls-12" d="M606.28,222.78c-4,.87,9.61-5.94,19.64-6.09s15.32,4.3,18.29,7.12-8.06-6-18.09-5.8S611,221.75,606.28,222.78Z"/><path d="M69.43,435.71v-30H82.77a6.71,6.71,0,0,1,6.66,6.66v16.68a6.73,6.73,0,0,1-6.66,6.66Zm6.65-3.34h3.35a3.36,3.36,0,0,0,3.34-3.32V412.37a3.17,3.17,0,0,0-1-2.34,3.25,3.25,0,0,0-2.35-1H76.08Z"/><path d="M116.08,412.37v23.34h-6.65v-3.34c-.26,2.22-1.38,3.34-3.35,3.34h-3.34a6.69,6.69,0,0,1-6.66-6.66V412.37h6.66v16.68a3.36,3.36,0,0,0,3.34,3.32,3.36,3.36,0,0,0,3.35-3.32V412.37Z"/><path d="M132.5,435.71v-30h6.66v10a4.16,4.16,0,0,1,1-2.52,3.14,3.14,0,0,1,2.3-.82h3.35a6.35,6.35,0,0,1,4.69,2,6.45,6.45,0,0,1,2,4.71v16.66h-6.65V419.05a3.23,3.23,0,0,0-1-2.36,3.27,3.27,0,0,0-2.36-1,3.36,3.36,0,0,0-3.34,3.34v16.66Z"/><path d="M172.5,422.37v-3.32a3.36,3.36,0,0,0-3.34-3.34h-3.34q-3,0-3.32,3.34h-3.34q.76-6.69,6.66-6.68h6.68a6.37,6.37,0,0,1,4.7,2,6.45,6.45,0,0,1,2,4.71v16.66H172.5v-3.34c-.26,2.22-1.37,3.34-3.34,3.34h-3.34a6.69,6.69,0,0,1-6.66-6.66v0a6.71,6.71,0,0,1,6.66-6.65Zm0,3.34h-3.34a3.24,3.24,0,0,0-2.36,1,3.19,3.19,0,0,0-1,2.33v0a3.34,3.34,0,0,0,6.68,0Z"/><path d="M192.47,435.71h-6.65V412.37h6.65v6.68a8.17,8.17,0,0,1,2.07-5,6.21,6.21,0,0,1,4.62-1.67h3.31v6.68h-6.65a3.22,3.22,0,0,0-2.36,1,3.17,3.17,0,0,0-1,2.34Z"/><path d="M218.93,435.71v-20h-3.35v-3.34h3.35v-.3a6.38,6.38,0,0,1,6.36-6.36h7v3.34h-3.63a3.06,3.06,0,0,0-3,3v.3h3.35v3.34h-3.35v20Z"/><path d="M242.24,412.37h6.69a6.36,6.36,0,0,1,4.69,2,6.45,6.45,0,0,1,2,4.71v10a6.73,6.73,0,0,1-6.65,6.66h-6.69a6.69,6.69,0,0,1-6.66-6.66v-10a6.71,6.71,0,0,1,6.66-6.68Zm0,6.68v10a3.36,3.36,0,0,0,3.34,3.32,3.36,3.36,0,0,0,3.35-3.32v-10a3.2,3.2,0,0,0-1-2.36,3.34,3.34,0,0,0-5.69,2.36Z"/><path d="M268.9,435.71h-6.66V412.37h6.66v6.68a8.17,8.17,0,0,1,2.06-5,6.21,6.21,0,0,1,4.62-1.67h3.32v6.68h-6.66a3.24,3.24,0,0,0-2.36,1,3.16,3.16,0,0,0-1,2.34Z"/><path d="M302.24,435.71h-6.66V419.05a3.34,3.34,0,0,0-6.68,0v16.66h-6.66V412.37h6.66v3.34a4.16,4.16,0,0,1,1-2.52,3.15,3.15,0,0,1,2.31-.82h3.34a5.63,5.63,0,0,1,5,2.35,4.88,4.88,0,0,1,2-1.77,7,7,0,0,1,3-.58h3.32a6.71,6.71,0,0,1,6.68,6.68v16.66H308.9V419.05a3.22,3.22,0,0,0-1-2.35,3.18,3.18,0,0,0-2.33-1,3.35,3.35,0,0,0-3.34,3.34Z"/><path d="M335.58,422.37v-3.32a3.36,3.36,0,0,0-3.34-3.34H328.9q-3,0-3.32,3.34h-3.34q.76-6.69,6.66-6.68h6.68a6.37,6.37,0,0,1,4.7,2,6.45,6.45,0,0,1,2,4.71v16.66h-6.66v-3.34c-.26,2.22-1.37,3.34-3.34,3.34H328.9a6.69,6.69,0,0,1-6.66-6.66v0a6.71,6.71,0,0,1,6.66-6.65Zm-10-20a6.66,6.66,0,1,1,11.36,4.7,6.57,6.57,0,0,1-9.4,0A6.45,6.45,0,0,1,325.58,402.37Zm3.32,0a3.34,3.34,0,0,0,6.68,0,3.17,3.17,0,0,0-1-2.34,3.32,3.32,0,0,0-4.71,0A3.16,3.16,0,0,0,328.9,402.37Zm6.68,23.34h-3.34a3.24,3.24,0,0,0-2.36,1,3.15,3.15,0,0,0-1,2.33v0a3.34,3.34,0,0,0,6.68,0Z"/><path d="M368.9,425.71H355.55v3.34a3.36,3.36,0,0,0,3.35,3.32h3.34q3.31,0,3.31-3.32h3.35c-.53,4.44-2.74,6.66-6.66,6.66h-6.69a6.69,6.69,0,0,1-6.65-6.66v-10a6.69,6.69,0,0,1,6.65-6.68h6.69a6.35,6.35,0,0,1,4.69,2,6.46,6.46,0,0,1,2,4.71Zm-13.35-3.34h6.69v-3.32a3.35,3.35,0,0,0-6.69,0Z"/><path d="M378.9,405.71h6.65v6.66h3.35v3.34h-3.35v13.34a3,3,0,0,0,1.06,2.46,3.27,3.27,0,0,0,2,.86h.32v3.34h-3.35a6.67,6.67,0,0,1-6.65-6.66V415.71h-3.35v-3.34h3.35Z"/><path d="M418.66,422.37v-3.32a3.36,3.36,0,0,0-3.34-3.34H412q-3,0-3.31,3.34h-3.34q.76-6.69,6.65-6.68h6.69a6.39,6.39,0,0,1,4.7,2,6.49,6.49,0,0,1,2,4.71v16.66h-6.66v-3.34c-.26,2.22-1.37,3.34-3.34,3.34H412a6.69,6.69,0,0,1-6.65-6.66v0a6.71,6.71,0,0,1,6.65-6.65Zm0,3.34h-3.34a3.22,3.22,0,0,0-2.36,1,3.16,3.16,0,0,0-1,2.33v0a3.34,3.34,0,0,0,5.71,2.33,3.17,3.17,0,0,0,1-2.33Z"/><path d="M435.32,405.71H442v6.66h3.35v3.34H442v13.34a3,3,0,0,0,1.07,2.46,3.22,3.22,0,0,0,2,.86h.32v3.34H442a6.67,6.67,0,0,1-6.65-6.66V415.71H432v-3.34h3.35Z"/><path d="M481.74,435.71h-6.66v-3.34c-.26,2.22-1.37,3.34-3.34,3.34H468.4a6.69,6.69,0,0,1-6.66-6.66v-10a6.71,6.71,0,0,1,6.66-6.68h6.68v-6.66h6.66Zm-6.66-20h-3.34a3.35,3.35,0,0,0-3.34,3.34v10a3.34,3.34,0,0,0,6.68,0Z"/><path d="M495.05,435.71H488.4V412.37h6.65v6.68a8.22,8.22,0,0,1,2.06-5,6.25,6.25,0,0,1,4.63-1.67h3.31v6.68H498.4a3.22,3.22,0,0,0-2.36,1,3.17,3.17,0,0,0-1,2.34Z"/><path d="M508.4,409.05v-3.34h6.65v3.34Zm0,26.66V412.37h6.65v23.34Z"/><path d="M521.74,435.71v-30h6.66v15l10-8.34h6.68l-14,11.68,14,11.66H538.4l-10-8.34v8.34Z"/><path d="M548.4,435.71v-30h6.65v15l10-8.34h6.69l-14,11.68,14,11.66h-6.69l-10-8.34v8.34Z"/><path d="M595.05,425.71H581.71v3.34a3.35,3.35,0,0,0,3.34,3.32h3.35c2.2,0,3.31-1.11,3.31-3.32h3.34q-.78,6.66-6.65,6.66h-6.69a6.69,6.69,0,0,1-6.66-6.66v-10a6.71,6.71,0,0,1,6.66-6.68h6.69a6.36,6.36,0,0,1,4.69,2,6.45,6.45,0,0,1,2,4.71Zm-13.34-3.34h6.69v-3.32a3.35,3.35,0,0,0-6.69,0Z"/><path d="M611.47,435.71v-30h13.35a6.71,6.71,0,0,1,6.65,6.66v1.68a6.24,6.24,0,0,1-1.66,4.6,8.19,8.19,0,0,1-5,2.06,6.1,6.1,0,0,1,5,2,7.07,7.07,0,0,1,1.66,4.65v1.68a6.75,6.75,0,0,1-6.65,6.66Zm6.66-16.66h3.34a3.24,3.24,0,0,0,2.36-1,3.21,3.21,0,0,0,1-2.35v-3.34a3.17,3.17,0,0,0-1-2.34,3.27,3.27,0,0,0-2.36-1h-3.34Zm0,13.32h3.34a3.24,3.24,0,0,0,2.36-1,3.18,3.18,0,0,0,1-2.33v-3.34q0-3.34-3.35-3.34h-3.34Z"/><path d="M658.13,425.71H644.79v3.34a3.35,3.35,0,0,0,3.34,3.32h3.34q3.31,0,3.32-3.32h3.34q-.78,6.66-6.66,6.66h-6.68a6.69,6.69,0,0,1-6.66-6.66v-10a6.71,6.71,0,0,1,6.66-6.68h6.68a6.37,6.37,0,0,1,4.7,2,6.45,6.45,0,0,1,2,4.71Zm-13.34-3.34h6.68v-3.32a3.34,3.34,0,0,0-6.68,0Z"/><path d="M664.79,435.71V412.37h6.65v3.34a4.16,4.16,0,0,1,1-2.52,3.15,3.15,0,0,1,2.31-.82h3.34a6.39,6.39,0,0,1,4.7,2,6.49,6.49,0,0,1,2,4.71v16.66h-6.66V419.05a3.35,3.35,0,0,0-6.69,0v16.66Z"/><path d="M691.44,435.71V412.37h6.66v3.34a4.11,4.11,0,0,1,1-2.52,3.11,3.11,0,0,1,2.3-.82h3.35a6.36,6.36,0,0,1,4.69,2,6.45,6.45,0,0,1,2,4.71v16.66h-6.65V419.05a3.2,3.2,0,0,0-1-2.36,3.34,3.34,0,0,0-5.69,2.36v16.66Z"/><path d="M721.44,439.05q.24,3.31,3.31,3.32h3.35a3.25,3.25,0,0,0,2.35-1,3.17,3.17,0,0,0,1-2.34v-6.68c-.26,2.22-1.37,3.34-3.34,3.34h-3.35a6.69,6.69,0,0,1-6.65-6.66V412.37h6.65v16.68a3.35,3.35,0,0,0,6.69,0V412.37h6.66v26.68a6.74,6.74,0,0,1-6.66,6.66h-6.69q-5.88,0-6.65-6.66Z"/><path d="M754.52,435.71v-30h13.34a6.71,6.71,0,0,1,6.66,6.66v1.68a6.24,6.24,0,0,1-1.66,4.6,8.22,8.22,0,0,1-5,2.06,6.12,6.12,0,0,1,5,2,7.07,7.07,0,0,1,1.66,4.65v1.68a6.76,6.76,0,0,1-6.66,6.66Zm6.66-16.66h3.34a3.38,3.38,0,0,0,3.34-3.34v-3.34a3.17,3.17,0,0,0-1-2.34,3.23,3.23,0,0,0-2.35-1h-3.34Zm0,13.32h3.34a3.38,3.38,0,0,0,3.34-3.32v-3.34q0-3.34-3.34-3.34h-3.34Z"/><path d="M794.52,422.37v-3.32a3.36,3.36,0,0,0-3.34-3.34h-3.35q-3,0-3.31,3.34h-3.34q.77-6.69,6.65-6.68h6.69a6.39,6.39,0,0,1,4.7,2,6.49,6.49,0,0,1,2,4.71v16.66h-6.66v-3.34c-.26,2.22-1.37,3.34-3.34,3.34h-3.35a6.69,6.69,0,0,1-6.65-6.66v0a6.71,6.71,0,0,1,6.65-6.65Zm0,3.34h-3.34a3.22,3.22,0,0,0-2.36,1,3.16,3.16,0,0,0-1,2.33v0a3.35,3.35,0,0,0,6.69,0Z"/><path d="M814.49,412.37h6.66v23.34a6.73,6.73,0,0,1-6.66,6.66h-3.34q-5.89,0-6.66-6.66h3.34c.2,2.23,1.3,3.34,3.32,3.34a3.36,3.36,0,0,0,3.34-3.34Zm0-3.32v-3.34h6.66v3.34Z"/><path d="M847.83,425.71H834.49v3.34a3.36,3.36,0,0,0,3.34,3.32h3.35c2.2,0,3.31-1.11,3.31-3.32h3.34q-.78,6.66-6.65,6.66h-6.69a6.69,6.69,0,0,1-6.66-6.66v-10a6.71,6.71,0,0,1,6.66-6.68h6.69a6.36,6.36,0,0,1,4.69,2,6.45,6.45,0,0,1,2,4.71Zm-13.34-3.34h6.69v-3.32a3.2,3.2,0,0,0-1-2.36,3.34,3.34,0,0,0-5.69,2.36Z"/><path d="M861.15,435.71h-6.66V412.37h6.66v6.68a8.17,8.17,0,0,1,2.06-5,6.21,6.21,0,0,1,4.62-1.67h3.32v6.68h-6.66a3.24,3.24,0,0,0-2.36,1,3.16,3.16,0,0,0-1,2.34Z"/><path d="M904.25,412.37v23.34H897.6v-3.34c-.26,2.22-1.38,3.34-3.35,3.34h-3.34a6.71,6.71,0,0,1-6.66-6.66V412.37h6.66v16.68a3.35,3.35,0,0,0,6.69,0V412.37Z"/><path d="M910.91,435.71V412.37h6.66v3.34a4.11,4.11,0,0,1,1-2.52,3.11,3.11,0,0,1,2.3-.82h3.34a6.37,6.37,0,0,1,4.7,2,6.45,6.45,0,0,1,2,4.71v16.66h-6.66V419.05a3.34,3.34,0,0,0-6.68,0v16.66Z"/><path d="M957.57,435.71h-6.66v-3.34c-.26,2.22-1.37,3.34-3.34,3.34h-3.35a6.69,6.69,0,0,1-6.65-6.66v-10a6.71,6.71,0,0,1,6.65-6.68h6.69v-6.66h6.66Zm-6.66-20h-3.34a3.36,3.36,0,0,0-3.35,3.34v10a3.34,3.34,0,0,0,5.71,2.33,3.17,3.17,0,0,0,1-2.33Z"/><path d="M984.22,425.71H970.88v3.34a3.36,3.36,0,0,0,3.34,3.32h3.35q3.31,0,3.31-3.32h3.34q-.78,6.66-6.65,6.66h-6.69a6.69,6.69,0,0,1-6.66-6.66v-10a6.71,6.71,0,0,1,6.66-6.68h6.69a6.35,6.35,0,0,1,4.69,2,6.45,6.45,0,0,1,2,4.71Zm-13.34-3.34h6.69v-3.32a3.23,3.23,0,0,0-1-2.36,3.34,3.34,0,0,0-5.7,2.36Z"/><path d="M997.54,435.71h-6.66V412.37h6.66v6.68a8.17,8.17,0,0,1,2.06-5,6.21,6.21,0,0,1,4.62-1.67h3.32v6.68h-6.66a3.24,3.24,0,0,0-2.36,1,3.16,3.16,0,0,0-1,2.34Z"/><path d="M1020.65,435.71v-30h6.65v10a4.16,4.16,0,0,1,1-2.52,3.15,3.15,0,0,1,2.31-.82H1034a6.35,6.35,0,0,1,4.69,2,6.46,6.46,0,0,1,2,4.71v10a6.74,6.74,0,0,1-6.66,6.66Zm6.65-3.34h3.35a3.36,3.36,0,0,0,3.34-3.32v-10a3.35,3.35,0,0,0-6.69,0Z"/><path d="M1054,412.37h6.69a6.36,6.36,0,0,1,4.69,2,6.45,6.45,0,0,1,2,4.71v10a6.73,6.73,0,0,1-6.65,6.66H1054a6.69,6.69,0,0,1-6.66-6.66v-10a6.71,6.71,0,0,1,6.66-6.68Zm0,6.68v10a3.35,3.35,0,0,0,6.69,0v-10a3.35,3.35,0,0,0-6.69,0Z"/><path d="M1080.61,435.71H1074V412.37h6.65v6.68a8.17,8.17,0,0,1,2.07-5,6.21,6.21,0,0,1,4.62-1.67h3.31v6.68H1084a3.22,3.22,0,0,0-2.36,1,3.17,3.17,0,0,0-1,2.34Z"/><path d="M1114,435.71h-6.66v-3.34c-.26,2.22-1.37,3.34-3.34,3.34h-3.35a6.69,6.69,0,0,1-6.65-6.66v-10a6.71,6.71,0,0,1,6.65-6.68h6.69v-6.66H1114Zm-6.66-20H1104a3.36,3.36,0,0,0-3.35,3.34v10a3.35,3.35,0,0,0,6.69,0Z"/><path d="M1140.61,425.71h-13.34v3.34a3.36,3.36,0,0,0,3.34,3.32H1134q3.32,0,3.31-3.32h3.34q-.78,6.66-6.65,6.66h-6.69a6.71,6.71,0,0,1-6.66-6.66v-10a6.71,6.71,0,0,1,6.66-6.68H1134a6.35,6.35,0,0,1,4.69,2,6.45,6.45,0,0,1,2,4.71Zm-13.34-3.34H1134v-3.32a3.23,3.23,0,0,0-1-2.36,3.34,3.34,0,0,0-5.7,2.36Z"/><path d="M1150.61,405.71h6.66v6.66h3.34v3.34h-3.34v13.34a2.94,2.94,0,0,0,1.06,2.46,3.27,3.27,0,0,0,2,.86h.31v3.34h-3.34a6.69,6.69,0,0,1-6.66-6.66V415.71h-3.34v-3.34h3.34Z"/><path d="M348.66,457.05v-3.34h6.66v3.34Zm0,26.66V460.37h6.66v23.34Z"/><path d="M362,483.71V460.37h6.66v3.34a4.16,4.16,0,0,1,1-2.52,3.13,3.13,0,0,1,2.3-.82h3.35a6.35,6.35,0,0,1,4.69,2,6.45,6.45,0,0,1,2,4.71v16.66h-6.65V467.05a3.23,3.23,0,0,0-1-2.36,3.34,3.34,0,0,0-5.7,2.36v16.66Z"/><path d="M408.66,483.71H402v-3.34c-.26,2.22-1.37,3.34-3.34,3.34h-3.34a6.69,6.69,0,0,1-6.66-6.66v-10a6.71,6.71,0,0,1,6.66-6.68H402v-6.66h6.66Zm-6.66-20h-3.34a3.35,3.35,0,0,0-3.34,3.34v10a3.34,3.34,0,0,0,6.68,0Z"/><path d="M435.32,473.71H422v3.34a3.36,3.36,0,0,0,3.35,3.32h3.34q3.31,0,3.31-3.32h3.35q-.78,6.66-6.66,6.66H422a6.69,6.69,0,0,1-6.65-6.66v-10a6.71,6.71,0,0,1,6.65-6.68h6.69a6.39,6.39,0,0,1,4.7,2,6.49,6.49,0,0,1,2,4.71ZM422,470.37h6.69v-3.32a3.35,3.35,0,0,0-6.69,0Z"/><path d="M442,483.71V460.37h6.66v3.34a4.11,4.11,0,0,1,1-2.52,3.11,3.11,0,0,1,2.3-.82h3.35a6.36,6.36,0,0,1,4.69,2,6.45,6.45,0,0,1,2,4.71v16.66h-6.65V467.05a3.2,3.2,0,0,0-1-2.36,3.34,3.34,0,0,0-5.69,2.36v16.66Z"/><path d="M478.39,483.71v-30h6.66v10a4.16,4.16,0,0,1,1-2.52,3.14,3.14,0,0,1,2.3-.82h3.35a6.35,6.35,0,0,1,4.69,2,6.45,6.45,0,0,1,2,4.71v10a6.73,6.73,0,0,1-6.65,6.66Zm6.66-3.34h3.34a3.36,3.36,0,0,0,3.35-3.32v-10a3.23,3.23,0,0,0-1-2.36,3.27,3.27,0,0,0-2.36-1,3.36,3.36,0,0,0-3.34,3.34Z"/><path d="M511.71,460.37h6.68a6.37,6.37,0,0,1,4.7,2,6.45,6.45,0,0,1,2,4.71v10a6.73,6.73,0,0,1-6.66,6.66h-6.68a6.69,6.69,0,0,1-6.66-6.66v-10a6.71,6.71,0,0,1,6.66-6.68Zm0,6.68v10a3.34,3.34,0,0,0,6.68,0v-10a3.34,3.34,0,0,0-6.68,0Z"/><path d="M551.71,483.71h-6.66v-3.34c-.26,2.22-1.37,3.34-3.34,3.34h-3.35a6.69,6.69,0,0,1-6.65-6.66v-10a6.71,6.71,0,0,1,6.65-6.68h6.69v-6.66h6.66Zm-6.66-20h-3.34a3.36,3.36,0,0,0-3.35,3.34v10a3.35,3.35,0,0,0,6.69,0Z"/><path d="M578.36,473.71H565v3.34a3.36,3.36,0,0,0,3.34,3.32h3.35q3.31,0,3.31-3.32h3.34q-.78,6.66-6.65,6.66H565a6.69,6.69,0,0,1-6.66-6.66v-10a6.71,6.71,0,0,1,6.66-6.68h6.69a6.36,6.36,0,0,1,4.69,2,6.45,6.45,0,0,1,2,4.71ZM565,470.37h6.69v-3.32a3.2,3.2,0,0,0-1-2.36,3.34,3.34,0,0,0-5.69,2.36Z"/><path d="M605,460.37v26.68a6.74,6.74,0,0,1-6.66,6.66h-6.68q-5.89,0-6.66-6.66h3.34c.16,2.21,1.26,3.32,3.32,3.32H595a3.23,3.23,0,0,0,2.35-1,3.17,3.17,0,0,0,1-2.34v-6.68c-.26,2.22-1.37,3.34-3.34,3.34h-3.34a6.69,6.69,0,0,1-6.66-6.66v-10a6.71,6.71,0,0,1,6.66-6.68Zm-6.66,3.34H595a3.35,3.35,0,0,0-3.34,3.34v10a3.34,3.34,0,0,0,6.68,0Z"/><path d="M625,470.37v-3.32a3.36,3.36,0,0,0-3.34-3.34h-3.35q-3,0-3.31,3.34h-3.34q.77-6.69,6.65-6.68H625a6.35,6.35,0,0,1,4.69,2,6.46,6.46,0,0,1,2,4.71v16.66H625v-3.34c-.26,2.22-1.38,3.34-3.34,3.34h-3.35a6.69,6.69,0,0,1-6.65-6.66v0a6.69,6.69,0,0,1,6.65-6.65Zm0,3.34h-3.34a3.22,3.22,0,0,0-2.36,1,3.16,3.16,0,0,0-1,2.33v0a3.35,3.35,0,0,0,6.69,0Z"/><path d="M658.33,473.71H645v3.34a3.35,3.35,0,0,0,3.34,3.32h3.35c2.2,0,3.31-1.11,3.31-3.32h3.34q-.78,6.66-6.65,6.66H645a6.69,6.69,0,0,1-6.66-6.66v-10a6.71,6.71,0,0,1,6.66-6.68h6.69a6.36,6.36,0,0,1,4.69,2,6.45,6.45,0,0,1,2,4.71ZM645,470.37h6.69v-3.32a3.35,3.35,0,0,0-6.69,0Z"/><path d="M665,483.71V460.37h6.65v3.34a4.22,4.22,0,0,1,1-2.52,3.15,3.15,0,0,1,2.31-.82h3.34a6.39,6.39,0,0,1,4.7,2,6.49,6.49,0,0,1,2,4.71v16.66h-6.66V467.05a3.35,3.35,0,0,0-6.69,0v16.66Z"/><path d="M701.41,483.71v-30h6.66v30Z"/><path d="M734.75,460.37v23.34H728.1v-3.34c-.26,2.22-1.38,3.34-3.35,3.34h-3.34a6.69,6.69,0,0,1-6.66-6.66V460.37h6.66v16.68a3.35,3.35,0,0,0,6.69,0V460.37Z"/><path d="M741.41,483.71v-30h6.66v15l10-8.34h6.68l-14,11.68,14,11.66h-6.68l-10-8.34v8.34Z"/><path d="M768.07,483.71v-30h6.65v15l10-8.34h6.69l-14,11.68,14,11.66h-6.69l-10-8.34v8.34Z"/><path d="M814.72,473.71H801.38v3.34a3.36,3.36,0,0,0,3.34,3.32h3.35c2.2,0,3.31-1.11,3.31-3.32h3.34q-.78,6.66-6.65,6.66h-6.69a6.69,6.69,0,0,1-6.66-6.66v-10a6.71,6.71,0,0,1,6.66-6.68h6.69a6.36,6.36,0,0,1,4.69,2,6.45,6.45,0,0,1,2,4.71Zm-13.34-3.34h6.69v-3.32a3.2,3.2,0,0,0-1-2.36,3.34,3.34,0,0,0-5.69,2.36Z"/><path d="M841.38,483.71h-6.66v-3.34c-.26,2.22-1.37,3.34-3.34,3.34H828a6.69,6.69,0,0,1-6.66-6.66v-10a6.71,6.71,0,0,1,6.66-6.68h6.68v-6.66h6.66Zm-6.66-20h-3.34a3.35,3.35,0,0,0-3.34,3.34v10a3.34,3.34,0,0,0,6.68,0Z"/><path d="M868,473.71H854.69v3.34a3.36,3.36,0,0,0,3.35,3.32h3.34q3.32,0,3.31-3.32H868c-.53,4.44-2.74,6.66-6.66,6.66h-6.69a6.69,6.69,0,0,1-6.65-6.66v-10a6.69,6.69,0,0,1,6.65-6.68h6.69a6.35,6.35,0,0,1,4.69,2,6.46,6.46,0,0,1,2,4.71Zm-13.35-3.34h6.69v-3.32a3.23,3.23,0,0,0-1-2.36,3.27,3.27,0,0,0-2.35-1,3.36,3.36,0,0,0-3.35,3.34Z"/><path d="M874.69,483.71v-6.66h6.66v6.66Z"/><path class="cls-13" d="M179.41,227.4q1.65-8.53,3.55-17.07,8.29,16.56,17,32.81Q193.83,249,187.79,255q-11.73-13.46-23.35-27A677,677,0,0,1,299.89,123.82q10,14.76,19.95,29.59-7.05,4.08-14,8.37-13.29-12.74-27-25.13,8.54.49,17,1.24A666.33,666.33,0,0,0,179.41,227.4Zm127,39.77q15.18-9.66,30.74-18.16l4.41,6.67a543.09,543.09,0,0,0-59.77,45.92l-5.29-6q12.56-13.11,25.84-25.31C303.73,269.24,305.08,268.2,306.44,267.17Zm-49.22-39c-12.87-16.09-25.84-32.36-39.45-47.85q11.78-9.45,23.87-18.32c11.17,16.86,23.49,33.62,35.9,50.56l5.92,8.07c12.18,16.62,24.49,33.38,37.26,49.56q-9.69,7.11-19.13,14.7c-12-16.24-25-32.51-38.13-48.91Z"/><path class="cls-13" d="M397.43,223.31c-3.6-8.26-12.59-26.81-18.14-37.9l-4.2-8.41c-4.92-9.84-7.94-15.26-12-22.17q-10.63,4.33-21.18,9.11l-3.37-6.14q15.93-15.62,33.13-30.2c1.58,0,3.17,0,4.75,0q5.21,12.47,10.44,24.92l11,24c5.16,11.29,13.95,29.92,18.13,37.91Q406.61,218.71,397.43,223.31Zm31.42-22.12,2.7,6.46A538.47,538.47,0,0,0,380.93,232l-3.36-6.14q11.06-8.32,22.54-16.09c1.49-.72,3-1.44,4.49-2.14Q416.72,204.08,428.85,201.19Zm-97.7-93c-3.52-6.73,2.18-15.36,12.54-20.32s20.6-4,23.64,3c3,6.78-2.83,15-12.75,19.75S334.58,114.79,331.15,108.23Z"/><path class="cls-13" d="M435.3,49c1.52.08,3.05.17,4.57.27Q443.43,63,447,76.75l22.29,72.67q6.17,20.09,13,40-9.91,3-19.75,6.43-6.21-20.07-13.06-39.93-14.4-41.6-28.79-83.18-12.09,3.12-24.13,6.71c-.84-2.17-1.69-4.35-2.53-6.53Q414.17,60.25,435.3,49Zm63.77,128.35c.6,2.26,1.2,4.51,1.81,6.77a539.31,539.31,0,0,0-56.49,18.39c-.84-2.18-1.69-4.35-2.53-6.53q12.21-6.87,24.82-13.15c1.56-.52,3.12-1,4.68-1.53Q485.24,178.93,499.07,177.32Z"/><path class="cls-13" d="M523.37,27.84c1.49.28,3,.57,4.48.87q1.73,14.1,3.5,28.21,6.28,37.47,12.58,75,3.48,20.72,7.66,41.31-10.17,1.68-20.29,3.76-3.52-20.72-7.71-41.3Q514.77,92.53,506,49.42q-12.31,1.48-24.62,3.43l-1.65-6.8Q501.1,36.23,523.37,27.84Zm46.29,135.6.9,6.94a542.5,542.5,0,0,0-58,10.75c-.55-2.27-1.11-4.54-1.66-6.8q12.92-5.19,26.13-9.74l4.82-.89Q555.79,163.22,569.66,163.44Z"/><path class="cls-13" d="M578.64,206.45c.85-5.75,7.07-9.32,13.86-9.95,5.87-.54,10.6,1.1,17,6.11q3.64,2.88,7.21,5.82-4.2,2.4-8.31,4.87-3.09-2-6.23-4c14.2-7.68,22.79-21.65,28.45-35.78q3.49-8.76,7.23-17.49a761.12,761.12,0,0,1,42.83-83.75q7.58.48,15.14,1.13a736.43,736.43,0,0,0-50.74,91.23c-16.5,35.94-27.31,51.47-45.11,52.86C589.37,218.39,579.66,214.19,578.64,206.45ZM591.83,83q-13.65-.45-27.37-.3l-.84-7a642.25,642.25,0,0,1,66.74-4.56q.06,3.6.11,7.2-16.63,1.66-33.12,4.2Zm42.33,93.35A713.57,713.57,0,0,0,574.24,74.51q13-1.37,26.07-2.18a754,754,0,0,1,43.59,83.94Q638.86,166.23,634.16,176.3Zm45.86-94q-14.55-2.42-29.26-4.15l.12-7q27.54.45,55,3.25l-.72,7q-9.84.51-19.61,1.31Z"/><path class="cls-13" d="M759.07,28,763,30.36q-3.12,13.88-6.19,27.75l-13.38,74.81q-3.7,20.69-6.69,41.48-10.15-1.82-20.36-3.25,3.64-20.7,6.64-41.49,6.21-43.56,12.41-87.12-12.06-2.72-24.25-5,.36-3.48.73-7Q735.26,28.5,759.07,28Zm-2,143.24c-.49,2.28-1,4.56-1.48,6.84a543,543,0,0,0-58.23-9.3c.24-2.32.49-4.64.73-7q13.84-.56,27.81-.42,2.42.38,4.83.78Q744,166.43,757.06,171.28Zm74.4-71.09a547.58,547.58,0,0,0-100.52,45.23q.91-5.71,1.84-11.45A552.9,552.9,0,0,1,814.9,95.25Q823.21,97.6,831.46,100.19Zm-34.77,77q12.42,5.73,24.5,12c-.77,2.2-1.54,4.41-2.3,6.61q-15.09-5.24-30.4-9.56a575.43,575.43,0,0,0-28.34-61.6q8.4-4.22,17.05-8.17a578.86,578.86,0,0,1,32.14,72.75Q803.15,183.18,796.69,177.23Zm5-73q-11.61-5.47-23.5-10.48c.55-2.47,1.11-4.94,1.66-7.41A635.86,635.86,0,0,1,843.07,104l-2.41,7.21q-15.31-3.33-30.65-5.85C807.23,104.94,804.44,104.59,801.66,104.27Z"/><path class="cls-13" d="M918.72,76.18,922,79.41q-6.37,12.7-12.7,25.44-15.47,34.71-30.94,69.44Q869.85,193.48,862,213q-9.57-4.28-19.26-8.17,8.5-19.22,16.39-38.69Q875.57,125.28,892,84.47q-11.21-5.59-22.63-10.77l2.38-6.58Q895.19,70.76,918.72,76.18ZM882.73,215l-3.09,6.29a537,537,0,0,0-55-23.35l2.37-6.59q13.72,2.82,27.42,6.38c1.53.63,3,1.28,4.57,1.93Q871.06,207,882.73,215ZM973,164.54a531.7,531.7,0,0,0-109.89,18.82l4.54-10.68a537.51,537.51,0,0,1,90.14-17.17Q965.48,159.91,973,164.54Zm-52.6,66.18q10.92,8.75,21.39,18L938,254.59q-13.69-9-27.81-17.1a581.09,581.09,0,0,0-13.36-67.05q9.28-2,18.75-3.7a587.7,587.7,0,0,1,14.52,79Q925.41,238.17,920.44,230.72Zm22.18-69.78q-10.17-8.25-20.71-16.09l3.4-6.8a633.05,633.05,0,0,1,58.33,33.13l-4.09,6.41q-14.37-7.18-28.92-13.53Q946.63,162.47,942.62,160.94Z"/><path class="cls-13" d="M1065.73,282.74a30,30,0,0,1-9.31,6.54,593.65,593.65,0,0,0-78-65.25l4.81-6.89a600.55,600.55,0,0,1,52,40.88c10.09,8.93,15.44,7.8,19.28,3.67,7.83-8.26,4.5-25.73-9.83-37.72-14.54-12.31-38.39-16.42-55.07,6.86-14.82,20.72-9.53,41,9.94,57.66,12.52,10.78,24,13.71,36.8,14.46q.94,3.45,1.86,6.9c-16.94,3.19-34.73-1.69-52.25-16.36-25.62-21.33-33.39-48.23-16.71-73.81s53.59-25.89,82.35-1.66C1075.44,238,1083.06,265.91,1065.73,282.74Z"/></svg>
