<svg id="Layer_1" data-name="Layer 1" xmlns="http://www.w3.org/2000/svg" xmlns:xlink="http://www.w3.org/1999/xlink" width="1920" height="1080" viewBox="0 0 1920 1080"><defs><style>.cls-1{fill:url(#linear-gradient);}.cls-2{fill:url(#linear-gradient-2);}.cls-3{fill:url(#linear-gradient-3);}.cls-4{fill:url(#linear-gradient-4);}.cls-5{fill:#d6af85;}.cls-29,.cls-33,.cls-6{fill:#f9f9f9;}.cls-7{fill:#c19613;}.cls-8{fill:#8c061d;}.cls-35,.cls-9{fill:#be765f;}.cls-10{fill:#141611;}.cls-11{fill:none;stroke:#fcee21;stroke-linecap:round;stroke-width:15px;}.cls-11,.cls-48,.cls-49{stroke-miterlimit:10;}.cls-12{fill:#fcfcfc;}.cls-13{fill:#132459;}.cls-14{fill:#0f0e0e;}.cls-15,.cls-22{fill:#020202;}.cls-15{opacity:0.1;}.cls-16{fill:#a2254b;}.cls-17{fill:#38682b;}.cls-18{opacity:0.8;}.cls-19{opacity:0.47;}.cls-20{fill:#134403;}.cls-21{fill:#898507;}.cls-21,.cls-36{opacity:0.5;}.cls-23{fill:#050505;}.cls-24{fill:#f7f5f5;}.cls-25{fill:#e2ba96;}.cls-26{fill:#235114;}.cls-27{fill:#ede71b;}.cls-28,.cls-30,.cls-31{fill:#348c62;}.cls-28,.cls-33,.cls-34,.cls-35{opacity:0.84;}.cls-29,.cls-30{opacity:0.73;}.cls-32{fill:#177244;}.cls-34,.cls-36,.cls-39{fill:#fff;}.cls-37{fill:#f23663;}.cls-38{fill:#724f2f;}.cls-40{fill:#000502;opacity:0.43;}.cls-41{fill:url(#linear-gradient-5);}.cls-42{fill:url(#linear-gradient-6);}.cls-43{fill:url(#linear-gradient-7);}.cls-44{fill:url(#linear-gradient-8);}.cls-45{fill:url(#linear-gradient-9);}.cls-46{fill:#fffefd;}.cls-47{fill:#664420;}.cls-48{fill:#050200;}.cls-48,.cls-49{stroke:#000;stroke-width:2px;}.cls-49{fill:#020100;}.cls-50{fill:#cecece;}.cls-51{fill:url(#linear-gradient-10);}.cls-52{fill:url(#linear-gradient-11);}.cls-53{fill:url(#linear-gradient-12);}.cls-54{fill:url(#linear-gradient-13);}</style><linearGradient id="linear-gradient" x1="-104" y1="790.5" x2="3" y2="790.5" gradientUnits="userSpaceOnUse"><stop offset="0.79" stop-color="#a87f56"/><stop offset="1"/></linearGradient><linearGradient id="linear-gradient-2" x1="-105" x2="4" xlink:href="#linear-gradient"/><linearGradient id="linear-gradient-3" x1="920.89" y1="1144.54" x2="1004.46" y2="-59.18" gradientUnits="userSpaceOnUse"><stop offset="0"/><stop offset="0.06" stop-color="#07051a"/><stop offset="0.14" stop-color="#0e0b35"/><stop offset="0.23" stop-color="#140f4a"/><stop offset="0.33" stop-color="#181259"/><stop offset="0.45" stop-color="#1a1361"/><stop offset="0.63" stop-color="#1b1464"/><stop offset="0.97" stop-color="#1b1464"/></linearGradient><linearGradient id="linear-gradient-4" x1="272.22" y1="467.5" x2="268.88" y2="3.3" gradientUnits="userSpaceOnUse"><stop offset="0.43" stop-color="#fff" stop-opacity="0.1"/><stop offset="1" stop-color="#fff"/></linearGradient><linearGradient id="linear-gradient-5" x1="1612.57" y1="492.74" x2="1757.04" y2="492.74" gradientUnits="userSpaceOnUse"><stop offset="0.01" stop-color="#fff"/><stop offset="1" stop-color="#b5b5b5"/><stop offset="1" stop-color="#b3b3b3"/></linearGradient><linearGradient id="linear-gradient-6" x1="-3965.59" y1="617.24" x2="-3940" y2="617.24" gradientTransform="matrix(-1, 0, 0, 1, -2346.22, 0)" gradientUnits="userSpaceOnUse"><stop offset="0" stop-color="#a67c52"/><stop offset="1" stop-color="#42210b"/></linearGradient><linearGradient id="linear-gradient-7" x1="1612.57" y1="609.59" x2="1757.04" y2="609.59" gradientUnits="userSpaceOnUse"><stop offset="0" stop-color="#fff"/><stop offset="1" stop-color="#ccc"/></linearGradient><linearGradient id="linear-gradient-8" x1="1757.04" y1="556.27" x2="1811" y2="556.27" gradientUnits="userSpaceOnUse"><stop offset="0" stop-color="#b3b3b3"/><stop offset="1" stop-color="#4d4d4d"/></linearGradient><linearGradient id="linear-gradient-9" x1="1757.04" y1="565.62" x2="1811" y2="565.62" xlink:href="#linear-gradient-7"/><linearGradient id="linear-gradient-10" x1="1698.3" y1="636.79" x2="1723.89" y2="636.79" gradientTransform="matrix(1, 0, 0, 1, 0, 0)" xlink:href="#linear-gradient-6"/><linearGradient id="linear-gradient-11" x1="1689" y1="664.41" x2="1701" y2="664.41" gradientTransform="translate(1235.04 -1097.1) rotate(53.96)" xlink:href="#linear-gradient-6"/><linearGradient id="linear-gradient-12" x1="1689.11" y1="672.19" x2="1710.38" y2="672.19" gradientTransform="translate(973.16 -1005.02) rotate(45)" xlink:href="#linear-gradient-6"/><linearGradient id="linear-gradient-13" x1="1622.34" y1="494.99" x2="1747.69" y2="494.99" gradientTransform="matrix(1, 0, 0, 1, 0, 0)" xlink:href="#linear-gradient-6"/></defs><title>titelskærm</title><rect class="cls-1" x="-104" y="498" width="107" height="585"/><path class="cls-2" d="M4,1084H-105V497H4Zm-107-2H2V499H-103Z"/><rect class="cls-3" x="3" y="-2" width="1920" height="1080"/><circle class="cls-4" cx="270.5" cy="228.5" r="168.5"/><ellipse class="cls-5" cx="1076.15" cy="546.73" rx="211.85" ry="273.97"/><path d="M939.64,713.52c19-2.22,42.63-19.91,70.92-21,5.89-.16,12.68-4.09,14.49-10.17h0c1.83-6.07-3.12-11.95-10.4-11.5-33.83,2.23-63,22.6-87.53,22.22-5.32,0-5.8,4-1.67,10h0C929.6,709.19,935.72,714.17,939.64,713.52Z"/><path d="M1147.82,711.3c-21.88-10-49.12-2.25-81.73-13.63-6.78-2.5-14.61-10.72-16.7-16.63h0c-2.11-5.91,3.59-7.52,12-5.36,39,10,72.63-.85,100.89,12.18,6.13,2.72,6.68,10.83,1.92,16.76h0C1159.39,710.58,1152.35,713.23,1147.82,711.3Z"/><path d="M1090.77,750.06c-5,10.18-8.2,20.69-16.85,30-8.3,9.09-22.07,17-40.3,16.75-18.23.24-32-7.66-40.31-16.75-8.65-9.32-11.81-19.83-16.85-30-3.92-10.16-7.88-21.16,1-31.62,8.07-10.13,29-19.71,56.16-19.42,27.18-.29,48.09,9.29,56.16,19.42C1098.65,728.9,1094.69,739.9,1090.77,750.06Z"/><rect class="cls-6" x="1043.1" y="698.85" width="10.84" height="15.71" rx="5.42"/><rect class="cls-7" x="1032.26" y="698.31" width="10.84" height="15.71" rx="5.42"/><rect class="cls-6" x="1021.42" y="698.31" width="10.84" height="15.71" rx="5.42"/><rect class="cls-6" x="999.75" y="701.56" width="10.84" height="15.71" rx="5.42"/><rect class="cls-6" x="1064.23" y="704.81" width="10.84" height="15.71" rx="5.42"/><rect class="cls-6" x="1053.39" y="701.56" width="10.84" height="15.71" rx="5.42"/><rect class="cls-6" x="988.91" y="704.81" width="10.84" height="15.71" rx="5.42"/><rect class="cls-6" x="978.07" y="710.78" width="10.84" height="15.71" rx="5.42"/><path class="cls-8" d="M981.87,806.38c4.44,20.47,19.6,35.26,33.86,26.16s29.43-28.75,33.87-50.78c4.44-23.43-10.72-40.37-33.87-26.16S977.43,787.31,981.87,806.38Z"/><path class="cls-9" d="M1026.2,619.73c-52.28,0-153.17,6-160.71,33.64-11.25,41.27,161.77,47.19,208.93,24.61"/><path class="cls-10" d="M1046.46,684a12.46,12.46,0,0,1,23.85-7.19"/><path class="cls-5" d="M877.79,658.94c-1.89-2.43,1.41-8.15,7.37-12.79s12.32-6.42,14.21-4-5.63,2.39-11.59,7S879.68,661.37,877.79,658.94Z"/><path d="M843.28,479.83h60.53c4.21,0,14-40.4,14-44.6l9.55-77.09c0-4.21,4.21,0,0,0l-29.3,7.64c-4.21,0-14,18.73-14,22.94l-36.32,72.63C847.74,465.56,839.08,479.83,843.28,479.83Z"/><path d="M1285.45,495.12H1209a7.67,7.67,0,0,1-7.65-7.65v-114a7.67,7.67,0,0,1,7.65-7.65l32.49,15.29c4.2,0,24.85,16.18,24.85,20.39L1281,476.64C1281,480.85,1289.66,495.12,1285.45,495.12Z"/><path class="cls-9" d="M893.62,468.36c-1.66,16.49-6.25,29.27-11.51,41.16-5.35,11.34-11.36,21.79-17.8,20.64s-12.45-4.53-17.8-15.57c-5.26-10.47-9.85-28.59-11.51-46.23-1.65-16.5.31-29.27,5.66-41.17,5.26-11.33,13.9-21.78,23.65-20.63s18.39,4.53,23.65,15.56C893.3,432.59,895.27,450.72,893.62,468.36Z"/><path class="cls-9" d="M1288,483.65c-1.65,16.49-6.25,29.27-11.51,41.16-5.35,11.34-11.36,21.79-17.8,20.64s-12.45-4.53-17.8-15.56c-5.26-10.48-9.85-28.6-11.51-46.24-1.65-16.49.32-29.27,5.66-41.16,5.26-11.34,13.91-21.79,23.65-20.64s18.39,4.53,23.65,15.56C1287.69,447.89,1289.65,466,1288,483.65Z"/><path class="cls-5" d="M1281,476.88c-1.11,11.11-4.21,19.72-7.76,27.74-3.6,7.64-7.65,14.68-12,13.91s-8.39-3.06-12-10.49c-3.55-7.06-6.65-19.28-7.76-31.16-1.11-11.12.21-19.73,3.81-27.74,3.55-7.64,9.37-14.69,15.94-13.91s12.39,3,15.94,10.49C1280.78,452.77,1282.1,465,1281,476.88Z"/><path class="cls-5" d="M884.06,468.59c-1.11,11.12-4.21,19.73-7.76,27.75-3.6,7.63-7.65,14.68-12,13.9s-8.39-3.05-12-10.49c-3.54-7.05-6.64-19.27-7.75-31.16-1.12-11.11.21-19.72,3.81-27.74,3.54-7.63,9.37-14.68,15.94-13.9s12.39,3.05,15.94,10.49C883.85,444.49,885.17,456.71,884.06,468.59Z"/><path class="cls-11" d="M1281.31,512.64c12.11,16.56,4.46,42.69-13.38,48.42-11.59,3.73-22.3-18-22.3-31.86"/><ellipse class="cls-12" cx="968.51" cy="540.39" rx="50.01" ry="79.32"/><ellipse class="cls-12" cx="1063.45" cy="535.3" rx="50.01" ry="79.32"/><path class="cls-9" d="M1018.53,540.39c0,43.81-33.54-5.41-61.17-5.41s-38.86,49.22-38.86,5.41,22.39-79.32,50-79.32S1018.53,496.59,1018.53,540.39Z"/><path class="cls-9" d="M1113.46,535.3c0,43.81-36.73-.32-64.35-.32s-35.68,44.13-35.68.32,22.39-79.33,50-79.33S1113.46,491.49,1113.46,535.3Z"/><circle class="cls-10" cx="958" cy="565.56" r="15.29"/><circle class="cls-10" cx="1048.47" cy="565.56" r="15.29"/><path class="cls-13" d="M1105.18,597.74c0,9.32-18.54,16.88-41.42,16.88s-41.41-7.56-41.41-16.88,17.9,4.77,40.78,4.77S1105.18,588.41,1105.18,597.74Z"/><path class="cls-13" d="M1009.61,604.11c0,9.32-18.54,16.88-41.42,16.88s-41.41-7.56-41.41-16.88,17.9,4.78,40.78,4.78S1009.61,594.78,1009.61,604.11Z"/><circle class="cls-12" cx="949.72" cy="559.83" r="1.27"/><circle class="cls-12" cx="1040.19" cy="559.83" r="1.27"/><path class="cls-5" d="M1033.49,492.35c-2.4-3.09,1.79-10.35,9.35-16.23s15.63-8.14,18-5.06-7.15,3-14.71,8.9S1035.89,495.43,1033.49,492.35Z"/><path class="cls-5" d="M938.56,497.44c-2.4-3.08,1.79-10.34,9.35-16.22s15.63-8.15,18-5.06-7.15,3-14.71,8.9S941,500.53,938.56,497.44Z"/><polyline class="cls-14" points="1011.58 293.16 976.54 274.04 1017.95 268.31 1004.57 243.46 1044.71 260.66 1051.72 239 1072.11 260.66 1096.32 242.19 1106.52 271.49 1139.65 256.84 1136.46 305.9"/><path class="cls-15" d="M946,440c-17.74,4.22,42.31-27.31,87-28.89s68.64,17.83,82.1,30.13C1128,453,1078.7,415.42,1034,417S967,435,946,440Z"/><path class="cls-15" d="M962.28,413.08c-15,3.57,35.77-23.09,73.56-24.43s58,15.08,69.41,25.48c10.89,9.94-30.79-21.83-68.58-20.5S980,408.85,962.28,413.08Z"/><path class="cls-15" d="M989.68,387.25c-10.09,2.19,24.24-15,49.55-15.38s38.63,10.86,46.11,18c7.15,6.79-20.32-15-45.62-14.62S1001.61,384.65,989.68,387.25Z"/><path class="cls-16" d="M1550.35,455.31c-241.42-261.47-655.28-261.47-896.7,0-5.34,5.77-13.68,7.1-18.65,2.75q-72.39-63.81-144.77-127.63c-5-4.34-3.21-14.54,4.07-22.43,327.22-354.39,888.18-354.39,1215.4,0,7.28,7.89,9,18.09,4.07,22.43Q1641.4,394.26,1569,458.06C1564,462.41,1555.69,461.08,1550.35,455.31Z"/><path class="cls-16" d="M482.09,897.67c407.8,156.67,810,161,1225.69-9,12-4.83,24.66-17.89,27.7-28.91a812.13,812.13,0,0,0,28.94-236.21c-.27-11-11.43-10.82-24.53-.21-111.65,93-225.91,146.25-334.55,180-109.22,33.13-212.8,46.78-316.5,47-103.69-.26-207.48-13.9-316.73-47.24-108.64-33.78-222.75-87.24-333.06-177.22-13-10.3-23.71-9.8-23.53,1.65A859.82,859.82,0,0,0,454.1,869.35C457.57,880.49,470.3,893.25,482.09,897.67Z"/><path class="cls-17" d="M709.73,146.13l-6.05-10Q720,116.36,737.73,98.59q4,8,8,16L743.2,117A426.38,426.38,0,0,0,709.73,146.13Zm117,131.3q4,8,8,16-15,4.83-29.65,10.2l-6-10q12.56-7.67,25.57-15.35Zm-54.6-81c-15.16-28.63-30.44-57.65-46.34-85.44Q737.58,98.37,750,86.64c13.55,31.39,28.33,62.83,43.23,94.66q2.49,5.3,5,10.6C815,227.68,829.73,259.11,845,290.18q-10.37,3.18-20.57,6.62c-14.23-28.24-29.51-57.25-45-86.44Zm9.18-10.33q11.64-8.46,23.71-16.24c30-18.78,39.19-39,27.81-72.53C821.62,64.24,802.36,62,775,84.63q-15.69,13-30.58,27.34l-6.66-13.38q18.69-18.8,38.74-35.36C814,32.07,846,44.74,856.6,81.23c9,29.86,2.09,62-28.67,85.39-.4-1-.8-2-1.19-3,41-18,65.93,3.65,75.19,36.62,10,35.66,2.73,74.12-38.25,84.47q-14.65,4.13-29,8.75L828,280.05q11.94-4.49,24.11-8.59c28.65-9.11,37.29-30.51,26.74-63.08-11-34-32.73-44.91-66.77-24.35q-12.27,7.4-24.15,15.47Q784.6,192.81,781.28,186.12Z"/><path class="cls-17" d="M1024,120.4a153.07,153.07,0,0,1,.91,25.47A646.86,646.86,0,0,0,928,167.45q-2.06-8.52-4.12-17a617.28,617.28,0,0,1,63.3-16.94c12.93-2.67,14.57-13.32,12.89-25.78-3.28-25.35-20.54-45.44-38.92-40.11-18.75,5.39-34.84,35.53-21.26,94.15,12.07,52.06,33.36,77.13,56.94,74.06,15.27-2.12,23-16,29.85-35.93q3.36,3.69,6.67,7.42c-5.52,33-17.6,54.2-38.45,56.65-30.32,3.12-59.47-30.38-75.55-90.32-16.3-60,2.61-114.4,39.89-125.88C990.08,38.47,1018.51,65.74,1024,120.4Z"/><path class="cls-17" d="M1077.57,251.19c-.73-20.71-3.17-68.09-4.79-96.61L1071.55,133c-1.44-25.29-2.52-39.53-4.17-57.87q-11.73-1-23.53-1.59-.66-8-1.33-16c12.64-10.9,25.71-21.51,39.21-31.69,1.6,1.44,3.18,2.88,4.76,4.33q2.77,26.69,5.36,53.43l2.22,69.82c.91,28.66,2.68,76.28,3.79,97.08Q1087.71,250.74,1077.57,251.19Zm36.67-17.14.15,16.22q-27.17.18-54.25,1.82-.65-8-1.3-16,12.84-5.46,26-10.63l4.88-.19Q1102.14,229.5,1114.24,234.05Zm63.48-121.29q-1.35,21.12-2.68,42.23c-1.87,29.38-4.56,75.76-5.42,96.42q-10.14-.48-20.28-.77c1.24-20.77,3.29-67.41,4.42-97q.75-19.39,1.49-38.79c1.74-42.89-4.83-57.39-22.71-57.81-14.8-.25-27.2,9.22-42.79,32.67l-6,.33-.84-20.77q7.45-.48,14.92-.76-6.19,4.41-12.27,8.93c12.33-30,36.8-53.48,58.72-52.49C1170.85,26.2,1181.81,52.36,1177.72,112.76Zm-13.78,113q11.93,5.19,23.54,10.62-.69,8-1.39,15.93-27-1.74-54.22-2,.11-8.12.23-16.22,13.34-4.47,27-8.52Z"/><path class="cls-17" d="M1220.09,255.13c3.14-19.94,9.57-65.61,13.29-93.12q1.39-10.42,2.81-20.86c3.29-24.4,4.88-38.21,6.69-56.08q-11.14-4.35-22.48-8.31.86-7.89,1.7-15.78c14.28-6.71,28.86-12.75,43.68-18,1.27,1.85,2.52,3.7,3.77,5.55q-2.23,25.82-4.64,51.48l-10.65,65.77c-4.37,27-11.38,71.92-14.11,91.55Q1230.15,256.12,1220.09,255.13Zm39.1-10.66-2.79,14.94q-26.64-3.65-53.63-5.85.86-7.87,1.73-15.76,13.65-3.3,27.54-6l4.81.62Q1248.19,238.39,1259.19,244.47ZM1341.74,150q-4.92,18-9.85,36c-6.85,25.06-17.43,64.69-21.81,82.37q-9.76-1.92-19.61-3.64c4.86-18.18,15-59,21.3-85l8.25-34c9.19-37.52,5.55-52.48-11.37-58.31-14-4.68-27.57.12-46.88,17.72q-2.93-.69-5.86-1.35,1.52-9.87,3-19.74,7.26,1.73,14.49,3.62-6.75,2.3-13.43,4.81c17.4-24.7,45-38.44,65.53-30.33C1350.39,72,1356,98.68,1341.74,150ZM1309,245.25q10.65,6.58,21,13.14l-4,13.23q-25.92-5.58-52.43-9.7l3.12-14.59q13.79-1.92,27.7-3.12Z"/><path class="cls-17" d="M1304.79,341.18c4.64-10.54,12.4-15.15,18.72-14.44,5.46.57,8.46,4.74,10.59,14.62.81,3.77,1.58,7.47,2.34,11.1q-5.4,3.57-10.73,7.36-1.32-3.92-2.7-8c17.71-11.32,35.26-33.43,50.18-54.85q9.25-13.38,18.68-26.06c30.91-41.21,63.22-76.64,96.23-105.17q6.38,5.61,12.6,11.45c-37,27.86-73.49,64.87-108.23,109.38-40,51.74-60.66,79.71-77,79.52C1305.67,366.25,1300.38,356.05,1304.79,341.18Zm96.79-215.72q-11.86-9.83-24.21-19.25l4-13.21a535.09,535.09,0,0,1,62.8,38.14l-4.9,11.68q-16-7.95-32.51-14.41C1405.06,127.42,1403.33,126.44,1401.58,125.46Zm-27.07,176.85c9-60,15.21-128.75,17.22-203.83q12.57,6.85,24.81,14.39c-4.34,58.16-11,112-19.29,160.31Q1385.76,287.19,1374.51,302.31Zm106.22-122.69q-11.28-12.33-23.19-24.26,2.46-5.36,4.94-10.71a522,522,0,0,1,46.44,40.48l-5.29,8.75q-9-5.52-18.24-10.36Q1483.06,181.56,1480.73,179.62Z"/><path class="cls-17" d="M744.33,737l-4.82-10.28q21,.78,42,1.46l5.52,15.57-2.93-.2Q764.34,740.22,744.33,737Zm99,165.26,5.52,15.57Q834.13,909,820.24,899q-2.4-5.15-4.82-10.28a251.9,251.9,0,0,0,25.7,12.46ZM801.08,813c-11-28.32-22-57-34-85.3q14.43.5,28.88.93c8.59,29.38,18.45,59.56,28.34,90.1q1.67,5.09,3.31,10.17c11.12,34.32,21,64.5,31.3,94.85q-10.25-5.77-20.13-12.13c-10.18-27.34-21.22-56-32.42-84.87Q803.74,819.92,801.08,813Zm10.69.38q12.87,3.08,25.91,5.85c32.29,7,44.15-3.65,38.14-33.6s-23.91-41-54.52-42.44q-17.59-.93-35.12-2l-4.62-13q22.26.72,44.58,1.33c41.69.72,69.76,24,74.92,56.52,4.37,26.16-6.83,47.92-40.43,45.52-.24-.93-.47-1.87-.7-2.8,42.58,11.94,63.54,38,67.89,67.43,4.78,30.7-9,58.23-50.24,37.45q-14.7-7.33-28.77-15.8l-4.62-13q11.88,6.51,24.19,12.3c28.93,13.8,41,2.14,35.55-26.77-5.63-30.85-25-48.76-61.45-57.15q-13.15-3.21-26.09-6.79Z"/><path class="cls-17" d="M991,879.28a268.52,268.52,0,0,1,40.92-12q.3,6.62.59,13.22a209.48,209.48,0,0,0-34.95,11.64C974.81,902.05,974,914.6,975,925c2,18.73,11.36,28,22.77,29.91,8.76,1.34,13.2-2.41,28.4-17.22l4.86-5q2,4,4,8-3.48,5-6.88,10c-14,20.34-21.38,29.08-36.18,26.18-17.56-3.64-33.85-22.45-37.72-51.12C951.78,906,956.79,892.87,991,879.28Zm34.17,64.86-4.47-83.35c-1.85-35.88-10.31-44.89-29.07-45.91a50.9,50.9,0,0,0-24.83,4.73l10.25-10.25q-2.31,15.15-4.42,30.14c-1.49,10.1-5,15.36-12.29,14.49s-12.26-6.68-13.91-15.44c1.75-25.77,21.09-40.81,50-39.63,29.77,1.21,44.85,18.69,46.3,65.18l2.73,78.08c.59,16.57,4.31,22.74,10.09,23.07,4.28.24,7-3,9.68-7.67q2.61,4.15,5.18,8.3c-5.86,13.89-12.39,18.39-20.79,17.76C1036.12,982.58,1026.5,966.75,1025.21,944.14Z"/><path class="cls-17" d="M1101.76,885.94c.28-20.36.16-31.82-.22-46.62q-11.18-1.53-22.43-3.25,0-6.5-.07-13,20.81-11,42.33-22.53l4.22,3.61q-1.21,24.9-2.38,49.81l-2.67,88.14c-1.84,61.17-4.33,88.71-17,110.53-7.44,12.92-15.21,21.46-28.66,21-13.65-.54-20.14-12.83-20.46-22.35,1.8-9.4,6.39-13.8,13.24-13.46,6.14.29,11.16,4.13,17.48,11.18q5.26,5.94,10.41,11.71-14.94,3.6-29.7,5.83l-.27-14.42c2.43,5.33,8.94,9,13.56,9,6.47.13,11.75-2.18,15.39-16,3.87-15.66,5.75-45.33,6.52-102.32Zm-6.18-150.24c.07-14.08,9.08-23.34,20.52-23.33s20.05,9.21,19.5,23.18c-.54,13.61-9.53,23.29-20.52,23.38S1095.51,749.4,1095.58,735.7Z"/><path class="cls-17" d="M1269.16,854.36a106.26,106.26,0,0,1-5.24,18.89,808.74,808.74,0,0,1-96.69,15.22q.54-7.62,1.07-15.22c21.4-1.87,42.67-4.45,63.69-7.77,12.68-2.06,16.8-10.43,18.31-19.89,3.16-19.2-7.48-35.35-25.34-34-18.17,1.45-40.85,22.11-44.83,73.71-3.55,45.76,10.43,68,34.56,61.76,15.53-3.94,26.53-16.85,37.84-33.27,1.53,1.47,3,2.92,4.52,4.34-13.16,26-30.25,46.79-51.85,52.61-31.58,8.6-51-23.08-48-78.51,2.89-56,35.2-94.23,71.1-96.47C1258,794,1277,814.81,1269.16,854.36Z"/><path class="cls-17" d="M1305.84,871.27q1.9-7.24,3.79-14.48c4.43-16.93,6.67-26.41,9.34-38.65q-10.32.63-20.83,1,1.24-5.6,2.48-11.18,20.79-12.3,42.32-23.88c1.1.82,2.19,1.62,3.28,2.41q-3.9,18.36-8,36.48l-12.84,42c-5.61,18.33-14.7,48.69-18.36,61.73q-9.26,5-18.76,9.62C1292.32,922.16,1300.85,890.36,1305.84,871.27Zm-31.14,61.18q13.33-8.28,26.59-17,2.25-1,4.49-2.08a214.91,214.91,0,0,0,22.21-6.64q-1.79,4.93-3.56,9.85a418,418,0,0,1-52.24,27Q1273.44,938,1274.7,932.45Zm52.49-105.05q7.44-1.68,14.82-3.45-3.57,1.8-7.12,3.62c16.47-29.77,39-48.05,55.3-50.52,8-1.26,14.52,1,15.29,5.48-5.71,12-13.43,20-23.7,22.64-5.94,1.5-9.89.26-13.09-2.9l-4.84-5q7.07-2.68,14.15-5.35c-20,12-34.26,28.58-47,53q-4.79,1.37-9.58,2.68Z"/><path class="cls-17" d="M642.19,799.09c-3.45,1-6.75,1.94-9.87,2.87-21-18.32,2.89-36-12.62-53.18,3.54-1.37,6.9-2.77,10-4.2C651.07,762.16,626.53,780.33,642.19,799.09Z"/><path class="cls-17" d="M575.15,813.19q-7.11-1.49-14-2.9c-7.31-17.69,19-35.8,9.27-54.34,4.73.27,9.44.58,14.12.9C592.14,776.06,565,794.84,575.15,813.19Z"/><g class="cls-18"><path class="cls-17" d="M633.74,751.7c-25.71,11-51,16.06-75.89,14.22-5.83-.45-11.76-7.08-13.14-14.17-11.69-62.58-19.66-124.44-20.44-184.6-.07-6.79,6-14.42,13.24-16.41,30.89-8.19,61.62-8.9,92.18-.91,7.22,1.93,13.76,9.56,14.48,16.19,6.19,58.88,7.9,115.34,2,169.44C645.44,741.54,639.78,749,633.74,751.7Z"/></g><g class="cls-18"><path class="cls-17" d="M589.55,555.65q-9.1-.25-18.28-.9c-12.23-.65-23.65-15.74-23.4-32.52a289.11,289.11,0,0,1,34.79-135.39c7.37-13.45,21.6-16.66,30.8-9q7,5.67,14.23,11a24.77,24.77,0,0,1,6.78,31c-16.55,32-26,70-24.94,110.8C609.86,544.09,601.73,555.81,589.55,555.65Z"/></g><ellipse class="cls-17" cx="621.55" cy="382.67" rx="11.35" ry="29.62" transform="translate(-41.04 688.83) rotate(-56.42)"/><ellipse class="cls-17" cx="628.55" cy="377.08" rx="11.35" ry="29.62" transform="translate(-33.26 692.16) rotate(-56.42)"/><ellipse class="cls-19" cx="628.24" cy="376.71" rx="6.97" ry="20.16" transform="translate(-33.09 691.73) rotate(-56.42)"/><ellipse class="cls-12" cx="603.02" cy="498.96" rx="13.24" ry="22.11" transform="translate(-47.68 64.01) rotate(-5.85)"/><ellipse class="cls-12" cx="576.91" cy="501.76" rx="13.24" ry="22.11" transform="translate(-48.1 61.37) rotate(-5.85)"/><path class="cls-20" d="M591.63,517.12c9.75,4.27,29.76,12.82,27.28,18.47s-22.07,2.7-31.82-1.57"/><path class="cls-21" d="M620.3,566.69c0,4.43-7,8.86-7.45,3.26-.64-7.57-14.11.89-14.45-5.59-.47-8.86,4.05-13.52,11.65-13.52S620.3,559.61,620.3,566.69Z"/><ellipse class="cls-22" cx="588.84" cy="550.14" rx="20.28" ry="13.28"/><path class="cls-8" d="M597,551.38c8.65,3.45,3.64,8.39,4.09,12.47-.94,4.11,3.6,7.37-.9,8.09-.65.69-12.18-1.67-11-5.27.23-3.57,1.15-8.41-2.6-12"/><rect class="cls-12" x="578.82" y="535.46" width="6.06" height="8.39" rx="2.52"/><rect class="cls-12" x="599.33" y="538.72" width="5.59" height="9.32" rx="2.33"/><rect class="cls-12" x="577.89" y="555.97" width="6.06" height="8.39" rx="2.52"/><path class="cls-5" d="M563.75,503.11c1.24,12.14,5.93-10.26,13.2-11s14.38,20.45,13.13,8.3-8.14-21.39-15.42-20.65S562.5,491,563.75,503.11Z"/><path class="cls-9" d="M564.23,507.08c-1.09-12.45,7.73,9.19,14.95,8.55s10.11-23.3,11.2-10.85-3.87,23.07-11.09,23.7S565.33,519.54,564.23,507.08Z"/><path class="cls-5" d="M589.85,500.31c1.24,12.15,7.8-12.59,15.07-13.33s12.51,22.78,11.27,10.63S608,476.22,600.77,477,588.61,488.16,589.85,500.31Z"/><path class="cls-9" d="M590.28,503.17c1.16,11.38,8,20,15.17,19.26s12.11-10.56,10.94-21.93-2.2,16-9.41,16.73S589.11,491.8,590.28,503.17Z"/><circle class="cls-23" cx="577.24" cy="503.96" r="4.48"/><circle class="cls-23" cx="609.76" cy="501.72" r="4.48"/><path class="cls-24" d="M616.91,607.43q.24-9.72.71-19.48a6,6,0,0,0-5.28-5.92q-20.76-2.79-41.43-5.3a4.93,4.93,0,0,0-5.51,5.17q0,11,.29,22c-14,13.83-21.39,42.29-17.4,73.84,6.4,48.67,33.14,80.13,55.06,72.86s36.84-43.15,36.56-81C639.42,644.36,631,621.9,616.91,607.43Z"/><path class="cls-25" d="M615,610.2q.22-8.72.64-17.45a5.38,5.38,0,0,0-4.73-5.3q-18.6-2.51-37.11-4.75a4.43,4.43,0,0,0-4.95,4.63q0,9.88.26,19.69c-12.5,12.39-19.15,37.89-15.57,66.15,5.72,43.6,29.68,71.78,49.31,65.27s33-38.66,32.76-72.58C635.14,643.28,627.56,623.16,615,610.2Z"/><circle class="cls-12" cx="579.52" cy="503.06" r="0.7"/><circle class="cls-12" cx="611.68" cy="501.66" r="0.7"/><path class="cls-26" d="M606.69,820.44a138.7,138.7,0,0,1-41.89,8.66c-6,.19-10.45-4.16-10.19-9,0-1.22.08-2.43.08-3.63.12-4.83,4-9.93,8.72-11.9a106.84,106.84,0,0,0,31.92-18.9c3.42-3.15,9.54.32,13.1,8.73.83,2,1.63,4.08,2.39,6.16C614.05,809.19,611.87,818.63,606.69,820.44Z"/><path class="cls-26" d="M666,831.59a226.94,226.94,0,0,0-38.88-18.14c-5-1.87-6.64-6.74-4.67-11.8.47-1.26.9-2.54,1.28-3.84,1.67-5.23,5.53-9.91,9.87-9.67a186.3,186.3,0,0,1,35.94,6.41c5,1.26,10.23,10.33,9.74,19.73q-.18,3.38-.56,6.74C677.67,830.37,671.2,834.81,666,831.59Z"/><path class="cls-25" d="M619.88,454.12a36.35,36.35,0,0,1,2.77-8.22c1.09-2.58,1.84-5.22,2.74-7.87,1.47-4.36,3.13-9.35,5.94-13.16a2.14,2.14,0,0,1,.67-.93,2.5,2.5,0,0,1,.14-.77l-.37.06-70.43,11.46-8.06,30.59,65.84-10.71.73-.12A1.84,1.84,0,0,1,619.88,454.12Z"/><path d="M591.71,444.11c1,5.42-2.17,9.34-6,10s-8.12-1.67-9.13-7.32c-1-5.43,2.22-9.35,6-10S590.7,438.46,591.71,444.11Zm-12.44,11.3-1.19-.64,10.69-19.22,1.19.63Zm6.2-2.52c3.5-.62,4.3-4.6,3.63-8.32s-2.79-7.17-6.28-6.55-4.32,4.61-3.66,8.32S582,453.52,585.47,452.89Z"/><path d="M592.08,436.5l-.18-1,6.94-1.24.18,1-3.15.94-.5.09Zm2.1-1.4,2.38-.43c.39,2.57.85,5.15,1.3,7.7l.31,1.73c.38,2.11.84,4.69,1.36,7.18l-2.38.42c-.38-2.56-.84-5.14-1.3-7.7l-.22-1.23C595.17,440.16,594.71,437.58,594.18,435.1Zm3.92,15,.24,1.36-3.47.62-.18-1,3.16-.95Zm8.5-4.92.59,4.7-8.85,1.58-.22-1.24,8-1.42L605,450.31l.16-4.84Z"/><path class="cls-27" d="M611.38,611.44H573.29c-.68-7.77-1.31-15.54-2-23.31h42.09A38.05,38.05,0,0,0,611.38,611.44Z"/><polygon class="cls-25" points="578.82 591.95 586.2 588.13 594.67 592.79 601.76 588.13 607.25 593.26 612.38 588.13 572.29 588.13 578.82 591.95"/><path class="cls-17" d="M581.45,656.37c-10.36,20.24,6.49,50.8-8,43.39s-17.8-29.81-7.44-50S596.52,619.09,611,626.5,591.8,636.14,581.45,656.37Z"/><path class="cls-17" d="M615.39,679.21c-9.64,17.71-40.47,20.66-27.8,27.55s30.74-1.88,40.39-19.59,7.19-37.66-5.48-44.56S625,661.5,615.39,679.21Z"/><path d="M588.61,477.89c-7.93,4.43-5.85-1.16-13.06-1.16s-13,3.61-13,1.16,5.85-4.43,13-4.43S590.74,476.7,588.61,477.89Z"/><path d="M589.89,474.63c7.93,4.43,5.84-1.17,13.05-1.17s13,3.61,13,1.17-5.84-4.43-13-4.43S587.76,473.43,589.89,474.63Z"/><rect class="cls-28" x="1510.7" y="399.55" width="46.5" height="180.97" rx="12" transform="translate(27.4 -78.69) rotate(2.96)"/><line class="cls-6" x1="1559.91" y1="414.94" x2="1563.75" y2="413.55"/><path class="cls-29" d="M1513.84,431.61a2.93,2.93,0,0,1,.06.8c-.53,7.62-1.43,15.23-1.13,22.87l47.14-16.92V414.94Z"/><line class="cls-6" x1="1563.18" y1="437.18" x2="1559.91" y2="438.36"/><ellipse class="cls-30" cx="1538.89" cy="399.61" rx="26.96" ry="5.34"/><ellipse class="cls-28" cx="1537.83" cy="394.81" rx="28.03" ry="4.8"/><path class="cls-28" d="M1522.21,577.37h0A53.68,53.68,0,0,1,1575.88,631V756.57a11.5,11.5,0,0,1-11.5,11.5h-81.63a11.5,11.5,0,0,1-11.5-11.5V628.33A51,51,0,0,1,1522.21,577.37Z" transform="translate(36.84 -77.91) rotate(2.96)"/><ellipse class="cls-31" cx="1518.87" cy="763.15" rx="11.21" ry="52.32" transform="translate(678.18 2240.52) rotate(-87.04)"/><rect class="cls-32" x="1484.71" y="763.15" width="8.54" height="26.69"/><rect class="cls-32" x="1527.42" y="765.82" width="9.61" height="24.02"/><circle class="cls-31" cx="1488.71" cy="789.58" r="8.27"/><circle class="cls-31" cx="1530.89" cy="789.58" r="8.27"/><ellipse class="cls-33" cx="1518.87" cy="487.16" rx="14.95" ry="22.42"/><ellipse class="cls-34" cx="1548.5" cy="486.89" rx="14.68" ry="23.76"/><path class="cls-35" d="M1533.82,485.56c0,12.38-6.69-2.14-15-2.14s-14.94,12.81-14.94,3.74c0-12.38,6.69-22.42,14.94-22.42S1533.82,473.17,1533.82,485.56Z"/><path class="cls-35" d="M1563.18,486.89c0,13.12-5.77-2.4-13.88-2.4s-15.48,15.52-15.48,2.4,6.57-23.75,14.68-23.75S1563.18,473.77,1563.18,486.89Z"/><ellipse class="cls-36" cx="1522.64" cy="672.53" rx="68.33" ry="46.48" transform="translate(747.14 2145.4) rotate(-86.06)"/><path class="cls-37" d="M1551.44,675.6c0,19.46-14,35.24-31.23,35.24S1489,695.06,1489,675.6c0-6.41,4.8-40,23-34.7,10.56,3.11,10.15,1.07,19.76-1.06C1541,637.76,1551.44,669.08,1551.44,675.6Z"/><rect class="cls-38" x="1518.87" y="624.35" width="9.61" height="21.35" rx="4.8" transform="translate(573.19 -714.58) rotate(32.22)"/><path class="cls-28" d="M1535.42,516.52c0,5.16-1.36,13.88-6.94,13.88-4.8,0-6.94-9.25-6.94-14.41"/><path class="cls-39" d="M1515.14,538.67c0,2.81,6.16,6.1,13.61,5.08,7.74-1.07,13.61-2.27,13.61-5.08"/><circle cx="1547.97" cy="495.43" r="5.61"/><circle cx="1518.61" cy="492.23" r="5.61"/><path class="cls-32" d="M1537,797.58c0-5.45-4.06-9.87-9.07-9.87s-9.08,4.42-9.08,9.87c0,.23,0,.46,0,.68a31.44,31.44,0,0,0-11.62,2.81c-10.72,4.77-17,14-14.12,20.52s14,8,24.7,3.23c9.78-4.36,15.9-12.38,14.68-18.74A10,10,0,0,0,1537,797.58Z"/><path class="cls-32" d="M1494.32,797.85a10.67,10.67,0,0,0-19.77-5.58,42.57,42.57,0,0,0-9.36-.47c-13.21.76-23.59,7.11-23.18,14.17s11.45,12.17,24.65,11.41c10.73-.62,19.59-4.92,22.33-10.3A10.65,10.65,0,0,0,1494.32,797.85Z"/><path d="M1522.34,443.86c-.43-1.07-1.38-1.25-3.31-1.13l-.84,0c-2.26.14-4-.28-4.69-2-.76-1.9.67-3.82,3.15-4.81a6.26,6.26,0,0,1,3.54-.4l.75,2.2-1.18.47-1.55-2.28,1.47,0,.34.83a4.17,4.17,0,0,0-3.15,0c-1.53.61-2.42,1.72-1.92,3,.41,1,1.46,1.34,3.07,1.23l.86-.06c2.92-.19,4.3.38,4.93,1.93.78,2-.68,3.92-3.36,5a9.15,9.15,0,0,1-4.14.65l-.81-2.37,1.17-.47,1.53,2.35-1.46,0-.31-.79a5.66,5.66,0,0,0,3.63-.21C1521.92,446.38,1522.86,445.16,1522.34,443.86Z"/><path d="M1525.19,445l1.85-1,.39-.15,2.25-.62.27.67-4.5,1.8Zm1.61-12.84,1.18-.47,9,9.37-1.82.73-7.9-8.34.45-.18,0,11.51-.92.37Zm.44,7.7,5.27-2.11.62.64-5.9,2.36Zm5.34,2.18,2.36-1.23.39-.16,2.53-.72.26.66-5.28,2.12Z"/><path d="M1534.82,429.78l-.26-.66,2.73-1.1.37.92-.2.07Zm3.65,3.73c-.68-1.71-1.37-3.43-2.12-5.11l1.88-.75c.61,1.69,1.3,3.42,2,5.15l.25.63c.76,1.91,1.45,3.63,2.19,5.31l-1.88.75c-.61-1.69-1.29-3.41-2-5.15Zm4.24-7.65,1.21.47-6.3,2.52-.33-.83,7-2.79,1.32,2.89-1.1.44Zm-1.15,12.27,2.65-.77.26.66-5.47,2.19-.27-.66,2.44-1.26Zm2.63-6.13-4.57,1.84-.31-.77,4.58-1.83Zm-.86-.34-.41-1.87.88-.36,1.64,4.09-.88.36-1-1.72Z"/><path d="M1546.75,425.2l.55-1.18.55,3.2-1.09.43-1-3,10.68-4.27,1.33,2.89-1.09.44-1.81-2.7,1.21.47Zm5.5,2.79c-.69-1.7-1.38-3.42-2.12-5.11l1.88-.75c.61,1.7,1.3,3.42,2,5.16l.33.83c.68,1.7,1.37,3.43,2.11,5.11l-1.88.75c-.61-1.7-1.3-3.42-2-5.16Zm3.09,4.62,2.84-.84.27.66-5.87,2.35-.27-.67,2.64-1.34Z"/><path class="cls-22" d="M1560.51,467.9c0,6.47-5.67-8.3-13-8.3s-13.45,14.77-13.45,8.3,5.91-11.7,13.21-11.7S1560.51,461.44,1560.51,467.9Z"/><path class="cls-22" d="M1532,468.44c0,6.46-5.67-8.3-13-8.3s-13.45,14.76-13.45,8.3,5.91-11.71,13.21-11.71S1532,462,1532,468.44Z"/><ellipse class="cls-40" cx="1537.83" cy="394.89" rx="14.68" ry="2.06"/><ellipse class="cls-41" cx="1684.8" cy="492.74" rx="72.23" ry="29.74"/><path class="cls-42" d="M1593.78,617.24c0,15.26,9.89,27.62,22.09,27.62s-11.47-12.36-11.47-27.62,23.67-27.62,11.47-27.62S1593.78,602,1593.78,617.24Z"/><path class="cls-43" d="M1757,497.84a5.12,5.12,0,0,0-5.1-5.1H1617.67a5.11,5.11,0,0,0-5.1,5.1v201a5.26,5.26,0,0,0,.14,1.2,9.16,9.16,0,0,0-.14,1.57c0,13.73,32.34,24.85,72.23,24.85S1757,715.32,1757,701.59a9.17,9.17,0,0,0-.15-1.57,5.26,5.26,0,0,0,.15-1.2Z"/><path class="cls-44" d="M1805.9,504.64h-43.76a5.11,5.11,0,0,0-5.1,5.1V602.8a5.11,5.11,0,0,0,5.1,5.09h43.76a5.11,5.11,0,0,0,5.1-5.09V509.74A5.11,5.11,0,0,0,1805.9,504.64Zm-21.67,79.46a5.11,5.11,0,0,1-5.1,5.1h-8.07a5.11,5.11,0,0,1-5.1-5.1V540.76a5.11,5.11,0,0,1,5.1-5.1h8.07a5.11,5.11,0,0,1,5.1,5.1Z"/><path class="cls-45" d="M1805.9,514h-43.76a5.11,5.11,0,0,0-5.1,5.1v93a5.11,5.11,0,0,0,5.1,5.1h43.76a5.11,5.11,0,0,0,5.1-5.1v-93A5.11,5.11,0,0,0,1805.9,514Zm-21.67,79.46a5.11,5.11,0,0,1-5.1,5.1h-8.07a5.11,5.11,0,0,1-5.1-5.1V550.11a5.11,5.11,0,0,1,5.1-5.1h8.07a5.11,5.11,0,0,1,5.1,5.1Z"/><ellipse class="cls-46" cx="1668.44" cy="598.12" rx="16.36" ry="28.04" transform="matrix(0.98, -0.18, 0.18, 0.98, -79.84, 306.66)"/><ellipse class="cls-46" cx="1636.57" cy="591.11" rx="26.98" ry="15.08" transform="translate(479.13 1890.38) rotate(-68.16)"/><polyline class="cls-22" points="1628.24 548.3 1641.58 540.8 1655.95 566.36"/><polyline class="cls-22" points="1687.35 552.66 1687.35 567.95 1658.03 567.95"/><path class="cls-47" d="M1684.54,595.21c2.76,15.24-8.33-5.54-18.86-7.71-14.45-3-13.45,29.08-13.17,13.6.42-23.37,2-29,10.94-30.57S1681.78,580,1684.54,595.21Z"/><path class="cls-47" d="M1650.58,596.72c-5.55,13.83-5.21-19.29-12.94-22.39s-20.61,25-15.07,11.17,16.31-22.53,24-19.44S1656.12,582.89,1650.58,596.72Z"/><ellipse class="cls-48" cx="1631.69" cy="591.54" rx="8.71" ry="5.1" transform="translate(475.67 1886.11) rotate(-68.16)"/><ellipse class="cls-49" cx="1663.98" cy="598.76" rx="8.71" ry="5.1" transform="translate(772.56 2126.08) rotate(-79.52)"/><path class="cls-50" d="M1647.66,616.83c-9,1.43-25.24,12.75-24.48,17.51s21.56,1.56,30.52.13"/><path class="cls-22" d="M1658,651c0,4.34-1.64-3.18-12.32-3.18s-26.34,7.52-26.34,3.18,8.86-7.86,19.54-7.86S1658,646.68,1658,651Z"/><path class="cls-51" d="M1723.89,636.79c0,15.25-9.89,27.62-22.09,27.62s11.47-12.37,11.47-27.62-23.67-27.62-11.47-27.62S1723.89,621.53,1723.89,636.79Z"/><ellipse class="cls-52" cx="1695" cy="664.41" rx="6.8" ry="5.52" transform="translate(160.53 1644.13) rotate(-53.96)"/><ellipse class="cls-53" cx="1699.75" cy="672.19" rx="12.36" ry="8.56" transform="translate(22.53 1398.78) rotate(-45)"/><circle class="cls-12" cx="1630.2" cy="588.56" r="1.06"/><circle class="cls-12" cx="1662.07" cy="596.21" r="1.06"/><path class="cls-54" d="M1747.69,492.89c0,7.43-28.06,13.45-62.68,13.45s-62.67-6-62.67-13.45,27.62-12,62.89-7.37C1737.66,492.47,1747.69,485.47,1747.69,492.89Z"/></svg>
