<svg id="Layer_1" data-name="Layer 1" xmlns="http://www.w3.org/2000/svg" width="360" height="460" viewBox="0 0 360 460"><defs><style>.cls-1{fill:#020202;}.cls-2{fill:#8c8c8c;}.cls-3{fill:#dbdbdb;}.cls-4{fill:none;stroke:#000;stroke-miterlimit:10;stroke-width:10px;}.cls-5{fill:#999;}.cls-6{fill:#fcfcfc;}</style></defs><title>ur</title><rect class="cls-1" x="170" y="19.5" width="46" height="94" rx="7"/><path d="M209,24.5a2,2,0,0,1,2,2v80a2,2,0,0,1-2,2H177a2,2,0,0,1-2-2v-80a2,2,0,0,1,2-2h32m0-10H177a12,12,0,0,0-12,12v80a12,12,0,0,0,12,12h32a12,12,0,0,0,12-12v-80a12,12,0,0,0-12-12Z"/><circle class="cls-2" cx="180" cy="280.5" r="173"/><path d="M180,112.5A168,168,0,1,1,61.21,161.71,166.9,166.9,0,0,1,180,112.5m0-10a178,178,0,1,0,178,178,178,178,0,0,0-178-178Z"/><circle class="cls-3" cx="173.75" cy="284.5" r="149"/><path d="M173.75,140.5A144,144,0,1,1,71.93,182.68,143,143,0,0,1,173.75,140.5m0-10a154,154,0,1,0,154,154,154,154,0,0,0-154-154Z"/><line class="cls-4" x1="193.5" y1="262" x2="264.5" y2="158"/><rect class="cls-2" x="155" y="6.5" width="46" height="94" rx="7"/><path d="M194,11.5a2,2,0,0,1,2,2v80a2,2,0,0,1-2,2H162a2,2,0,0,1-2-2v-80a2,2,0,0,1,2-2h32m0-10H162a12,12,0,0,0-12,12v80a12,12,0,0,0,12,12h32a12,12,0,0,0,12-12v-80a12,12,0,0,0-12-12Z"/><path class="cls-5" d="M70.23,138.94a7,7,0,0,1-5.79-3L13.38,61.8a7,7,0,0,1,1.8-9.73L30.82,41.29a7,7,0,0,1,9.74,1.79L91.62,117.2a7,7,0,0,1-1.8,9.73L74.18,137.71A7,7,0,0,1,70.23,138.94Z"/><path d="M34.77,45.06a2.06,2.06,0,0,1,1.67.86L87.5,120a2,2,0,0,1-.51,2.79L71.34,133.59a1.9,1.9,0,0,1-1.11.35,2.06,2.06,0,0,1-1.67-.86L17.5,59A2,2,0,0,1,18,56.18L33.66,45.41a1.9,1.9,0,0,1,1.11-.35m0-10A11.92,11.92,0,0,0,28,37.17L12.34,48A12,12,0,0,0,9.27,64.64l51.05,74.11A12,12,0,0,0,77,141.83l15.65-10.78a12,12,0,0,0,3.07-16.69L44.68,40.25a12,12,0,0,0-9.91-5.19Z"/><path class="cls-6" d="M116.19,192.08c8.44,3.51-16.68,2.45-23.88,10.69s-5.83,32.37-9.22,23.89c-3-7.36-1.39-18.63,5.81-26.87S107.37,188.4,116.19,192.08Z"/></svg>
